G04 Layer: TopLayer*
G04 EasyEDA v6.5.50, 2025-06-24 16:33:47*
G04 5496cec8b1eb4744bb4034f485f85566,07aaf3ec58ed4e568cacc845e37e2e79,10*
G04 Gerber Generator version 0.2*
G04 Scale: 100 percent, Rotated: No, Reflected: No *
G04 Dimensions in millimeters *
G04 leading zeros omitted , absolute positions ,4 integer and 5 decimal *
%FSLAX45Y45*%
%MOMM*%

%ADD10C,0.2032*%
%ADD11C,0.2540*%
%ADD12O,2.0379944X0.5739892*%
%ADD13O,2.0450048X0.58801*%
%ADD14C,1.7000*%
%ADD15R,1.7000X1.7000*%
%ADD16R,1.8000X1.8000*%
%ADD17C,1.8000*%
%ADD18C,1.5748*%
%ADD19R,1.5748X1.5748*%
%ADD20C,0.6200*%
%ADD21C,0.0114*%

%LPD*%
D10*
X6546761Y1192552D02*
G01*
X6528219Y1183408D01*
X6509677Y1164866D01*
X6500533Y1146578D01*
X6500533Y1109494D01*
X6509677Y1090952D01*
X6528219Y1072664D01*
X6546761Y1063266D01*
X6574447Y1054122D01*
X6620675Y1054122D01*
X6648361Y1063266D01*
X6666903Y1072664D01*
X6685191Y1090952D01*
X6694589Y1109494D01*
X6694589Y1146578D01*
X6685191Y1164866D01*
X6666903Y1183408D01*
X6648361Y1192552D01*
X6500533Y1327426D02*
G01*
X6694589Y1253512D01*
X6500533Y1327426D02*
G01*
X6694589Y1401340D01*
X6629819Y1281198D02*
G01*
X6629819Y1373654D01*
X6500533Y1462300D02*
G01*
X6694589Y1462300D01*
X6500533Y1462300D02*
G01*
X6694589Y1591586D01*
X6500533Y1591586D02*
G01*
X6694589Y1591586D01*
X6500533Y1794786D02*
G01*
X6694589Y1794786D01*
X6694589Y1794786D02*
G01*
X6694589Y1905784D01*
X6500533Y2108984D02*
G01*
X6694589Y2108984D01*
X6500533Y2238270D02*
G01*
X6694589Y2238270D01*
X6592989Y2108984D02*
G01*
X6592989Y2238270D01*
X1229309Y377444D02*
G01*
X1210767Y395731D01*
X1183081Y405129D01*
X1146251Y405129D01*
X1118565Y395731D01*
X1100023Y377444D01*
X1100023Y358902D01*
X1109167Y340360D01*
X1118565Y331215D01*
X1136853Y321818D01*
X1192479Y303529D01*
X1210767Y294131D01*
X1220165Y284987D01*
X1229309Y266445D01*
X1229309Y238760D01*
X1210767Y220218D01*
X1183081Y211073D01*
X1146251Y211073D01*
X1118565Y220218D01*
X1100023Y238760D01*
X1290269Y405129D02*
G01*
X1290269Y211073D01*
X1290269Y405129D02*
G01*
X1373327Y405129D01*
X1401013Y395731D01*
X1410411Y386587D01*
X1419555Y368045D01*
X1419555Y340360D01*
X1410411Y321818D01*
X1401013Y312673D01*
X1373327Y303529D01*
X1290269Y303529D01*
X1480515Y405129D02*
G01*
X1480515Y211073D01*
X2133493Y408330D02*
G01*
X2133493Y214274D01*
X2133493Y408330D02*
G01*
X2216805Y408330D01*
X2244491Y398932D01*
X2253635Y389788D01*
X2262779Y371246D01*
X2262779Y343560D01*
X2253635Y325018D01*
X2244491Y315874D01*
X2216805Y306730D01*
X2133493Y306730D01*
X2323739Y408330D02*
G01*
X2369967Y214274D01*
X2416195Y408330D02*
G01*
X2369967Y214274D01*
X2416195Y408330D02*
G01*
X2462423Y214274D01*
X2508651Y408330D02*
G01*
X2462423Y214274D01*
X2569611Y408330D02*
G01*
X2569611Y214274D01*
X2569611Y408330D02*
G01*
X2643525Y214274D01*
X2717439Y408330D02*
G01*
X2643525Y214274D01*
X2717439Y408330D02*
G01*
X2717439Y214274D01*
X2361336Y3541115D02*
G01*
X2370734Y3522573D01*
X2389276Y3504285D01*
X2407564Y3494887D01*
X2444648Y3494887D01*
X2462936Y3504285D01*
X2481478Y3522573D01*
X2490876Y3541115D01*
X2500020Y3568801D01*
X2500020Y3615029D01*
X2490876Y3642715D01*
X2481478Y3661257D01*
X2462936Y3679799D01*
X2444648Y3688943D01*
X2407564Y3688943D01*
X2389276Y3679799D01*
X2370734Y3661257D01*
X2361336Y3642715D01*
X2361336Y3615029D01*
X2407564Y3615029D02*
G01*
X2361336Y3615029D01*
X2300376Y3494887D02*
G01*
X2300376Y3688943D01*
X2300376Y3494887D02*
G01*
X2171090Y3688943D01*
X2171090Y3494887D02*
G01*
X2171090Y3688943D01*
X2110130Y3494887D02*
G01*
X2110130Y3688943D01*
X2110130Y3494887D02*
G01*
X2045614Y3494887D01*
X2017928Y3504285D01*
X1999386Y3522573D01*
X1990242Y3541115D01*
X1980844Y3568801D01*
X1980844Y3615029D01*
X1990242Y3642715D01*
X1999386Y3661257D01*
X2017928Y3679799D01*
X2045614Y3688943D01*
X2110130Y3688943D01*
X916889Y3522573D02*
G01*
X916889Y3688943D01*
X999947Y3605885D02*
G01*
X833831Y3605885D01*
X661873Y3494887D02*
G01*
X754329Y3494887D01*
X763473Y3578199D01*
X754329Y3568801D01*
X726643Y3559657D01*
X698957Y3559657D01*
X671271Y3568801D01*
X652729Y3587343D01*
X643585Y3615029D01*
X643585Y3633571D01*
X652729Y3661257D01*
X671271Y3679799D01*
X698957Y3688943D01*
X726643Y3688943D01*
X754329Y3679799D01*
X763473Y3670401D01*
X772871Y3651859D01*
X582625Y3559657D02*
G01*
X526999Y3688943D01*
X471627Y3559657D02*
G01*
X526999Y3688943D01*
D11*
X390994Y2888993D02*
G01*
X701995Y3199993D01*
X1199997Y3199993D01*
X1372996Y3372993D01*
X1372996Y3599995D01*
X3577234Y2063495D02*
G01*
X3763492Y2063495D01*
X3899992Y2199995D01*
X3899992Y2499995D01*
X4099991Y2699994D01*
X5799988Y2699994D01*
X5999988Y2499995D01*
X5999988Y2299995D01*
X6172987Y2126995D01*
X6199987Y2126995D01*
X3577234Y1936495D02*
G01*
X3836492Y1936495D01*
X3999991Y2099995D01*
X3999991Y2399995D01*
X4199991Y2599994D01*
X5699988Y2599994D01*
X5899988Y2399995D01*
X5899988Y1999995D01*
X6026988Y1872995D01*
X6199987Y1872995D01*
X644994Y2888993D02*
G01*
X855995Y3099993D01*
X1399997Y3099993D01*
X1626996Y3326993D01*
X1626996Y3599995D01*
X898994Y1110998D02*
G01*
X888997Y1101001D01*
X888997Y599998D01*
X1152994Y1110998D02*
G01*
X1142997Y1101001D01*
X1142997Y599998D01*
X1406994Y1110998D02*
G01*
X1396997Y1101001D01*
X1396997Y599998D01*
X1660994Y1110998D02*
G01*
X1650997Y1101001D01*
X1650997Y599998D01*
X2171694Y599998D02*
G01*
X2171694Y1108298D01*
X2168994Y1110998D01*
X3999991Y1399997D02*
G01*
X5099989Y1399997D01*
X5299989Y1199997D01*
X5299989Y999997D01*
X5099989Y799998D01*
X3099993Y799998D01*
X2899994Y599998D01*
X2679694Y599998D01*
X2636520Y2063495D02*
G01*
X2100021Y2599994D01*
X799998Y2599994D01*
X644994Y2754998D01*
X644994Y2888993D01*
X3022752Y2063495D02*
G01*
X2636520Y2063495D01*
X2499995Y1926970D01*
X2499995Y1599996D01*
X2699994Y1399997D01*
X3999991Y1399997D01*
X4218990Y1618995D01*
X4223075Y1618995D01*
D12*
G01*
X4223075Y2380995D03*
G01*
X4223075Y2253995D03*
G01*
X4223075Y2126995D03*
G01*
X4223075Y1999995D03*
G01*
X4223075Y1872995D03*
G01*
X4223075Y1745995D03*
G01*
X4223075Y1618995D03*
G01*
X4776896Y2380995D03*
G01*
X4776896Y2253995D03*
G01*
X4776896Y2126995D03*
G01*
X4776896Y1999995D03*
G01*
X4776896Y1872995D03*
G01*
X4776896Y1745995D03*
G01*
X4776896Y1618995D03*
D13*
G01*
X3022752Y2190495D03*
G01*
X3022752Y2063495D03*
G01*
X3022752Y1936495D03*
G01*
X3022752Y1809495D03*
G01*
X3577234Y2190495D03*
G01*
X3577234Y2063495D03*
G01*
X3577234Y1936495D03*
G01*
X3577234Y1809495D03*
D14*
G01*
X6199987Y2126995D03*
G01*
X6199987Y1872995D03*
G01*
X1372996Y3599995D03*
G01*
X1626996Y3599995D03*
D15*
G01*
X5499988Y1618995D03*
D14*
G01*
X5499988Y1872995D03*
G01*
X5499988Y2126995D03*
G01*
X5499988Y2380995D03*
D15*
G01*
X888997Y599998D03*
D14*
G01*
X1142997Y599998D03*
G01*
X1396997Y599998D03*
G01*
X1650997Y599998D03*
D16*
G01*
X136994Y1110998D03*
D17*
G01*
X390994Y1110998D03*
G01*
X644994Y1110998D03*
G01*
X898994Y1110998D03*
G01*
X1152994Y1110998D03*
G01*
X1406994Y1110998D03*
G01*
X1660994Y1110998D03*
G01*
X1914994Y1110998D03*
G01*
X2168994Y1110998D03*
G01*
X2422994Y1110998D03*
G01*
X2676994Y1110998D03*
G01*
X2930994Y1110998D03*
G01*
X3184994Y1110998D03*
G01*
X3438994Y1110998D03*
G01*
X3692994Y1110998D03*
G01*
X3946994Y1110998D03*
G01*
X4200994Y1110998D03*
G01*
X4454994Y1110998D03*
G01*
X4708994Y1110998D03*
G01*
X4962994Y1110998D03*
D16*
G01*
X136994Y2888993D03*
D17*
G01*
X390994Y2888993D03*
G01*
X644994Y2888993D03*
G01*
X898994Y2888993D03*
G01*
X1152994Y2888993D03*
G01*
X1406994Y2888993D03*
G01*
X1660994Y2888993D03*
G01*
X1914994Y2888993D03*
G01*
X2168994Y2888993D03*
G01*
X2422994Y2888993D03*
G01*
X2676994Y2888993D03*
G01*
X2930994Y2888993D03*
G01*
X3184994Y2888993D03*
G01*
X3438994Y2888993D03*
G01*
X3692994Y2888993D03*
G01*
X3946994Y2888993D03*
G01*
X4200994Y2888993D03*
G01*
X4454994Y2888993D03*
G01*
X4708994Y2888993D03*
G01*
X4962994Y2888993D03*
D18*
G01*
X2679694Y599998D03*
G01*
X2425694Y599998D03*
D19*
G01*
X2171694Y599998D03*
D20*
G01*
X4776896Y2253995D03*
G01*
X4776896Y2126995D03*
G01*
X4776896Y1999995D03*
G01*
X4776896Y1872995D03*
G01*
X3022752Y1936495D03*
G01*
X4776896Y2380995D03*
G01*
X3022752Y2190495D03*
G01*
X4223075Y2380995D03*
G01*
X4223075Y2253995D03*
G01*
X3022752Y1809495D03*
M02*
