M48
METRIC,LZ,000.000
;FILE_FORMAT=3:3
;TYPE=PLATED
;Layer: PTH_Through_Via
;EasyEDA v6.5.51, 2025-11-04 20:26:23
;623bb76df6fb496f828c8c95ac90ab9a,07aaf3ec58ed4e568cacc845e37e2e79,10
;Gerber Generator version 0.2
;Holesize 1 = 0.310 mm
T01C0.310
%
G05
G90
T01
X060000Y032500
X067700Y027000
X060000Y042700
X054000Y040700
X052000Y038000
X058150Y039150
X066900Y024875
X039300Y008000
X040700Y008000
X069100Y023125
X080000Y055000
X069270Y015769
X048000Y025250
X064190Y015769
X045350Y019700
X071810Y010231
X062000Y040000
X051000Y015000
X071000Y005000
X082772Y012635
X064190Y007000
X082772Y011365
X085000Y007000
X086000Y009000
X065460Y010231
X077227Y012635
X075000Y030000
X044455Y017000
X045545Y017000
X029975Y029235
X042000Y024000
X029000Y030765
X034100Y024700
X042600Y017100
X037066Y006000
X030934Y006000
X041300Y014500
X038000Y018455
X034000Y014234
X070450Y052700
X075300Y055241
X064800Y053900
X064800Y053900
X044800Y031000
X044000Y031545
X052700Y033550
X050400Y034600
X049600Y035250
X051900Y034200
X064000Y019000
X063000Y018999
X061999Y018999
X061000Y019000
X064400Y037800
X064950Y037100
X043000Y034000
X045100Y035950
X042000Y032000
X066000Y036000
X048245Y018500
X031300Y020900
X031650Y026300
X029000Y034000
X033000Y040300
X031501Y028999
X030000Y036000
X032150Y031900
X032765Y046975
X032750Y031050
X037850Y028750
X031235Y046000
X032765Y055975
X033600Y030000
X037000Y028400
X042934Y055000
X039000Y031000
X037765Y055975
X036000Y030000
X048000Y033000
X048000Y031000
X064000Y050000
X066000Y050000
X095400Y049750
X094750Y054000
X051999Y029350
X035000Y024650
X038200Y014200
X068495Y036505
X067505Y037495
X051000Y027000
X050000Y038000
X072545Y052000
X041400Y030600
X051000Y029000
X050000Y030000
X031650Y024900
X044350Y029400
X034000Y020266
X038499Y028199
X031650Y022400
X057550Y038600
X057150Y039300
X056150Y038600
X087246Y051000
X087246Y053000
X031235Y055000
X047000Y012700
X039500Y011000
X045000Y012000
M30
