G04 Layer: TopSolderMaskLayer*
G04 EasyEDA v6.5.51, 2025-11-04 20:26:23*
G04 623bb76df6fb496f828c8c95ac90ab9a,07aaf3ec58ed4e568cacc845e37e2e79,10*
G04 Gerber Generator version 0.2*
G04 Scale: 100 percent, Rotated: No, Reflected: No *
G04 Dimensions in millimeters *
G04 leading zeros omitted , absolute positions ,4 integer and 5 decimal *
%FSLAX45Y45*%
%MOMM*%

%AMMACRO1*4,1,8,-0.4161,-0.3208,-0.4458,-0.291,-0.4458,0.2911,-0.4161,0.3208,0.4161,0.3208,0.4458,0.2911,0.4458,-0.291,0.4161,-0.3208,-0.4161,-0.3208,0*%
%AMMACRO2*4,1,8,-0.2911,-0.4458,-0.3208,-0.4161,-0.3208,0.4161,-0.2911,0.4458,0.291,0.4458,0.3208,0.4161,0.3208,-0.4161,0.291,-0.4458,-0.2911,-0.4458,0*%
%AMMACRO3*4,1,8,-0.4711,-0.4508,-0.5008,-0.421,-0.5008,0.4211,-0.4711,0.4508,0.471,0.4508,0.5008,0.4211,0.5008,-0.421,0.471,-0.4508,-0.4711,-0.4508,0*%
%AMMACRO4*4,1,8,-0.4211,-0.5008,-0.4508,-0.471,-0.4508,0.4711,-0.4211,0.5008,0.421,0.5008,0.4508,0.4711,0.4508,-0.471,0.421,-0.5008,-0.4211,-0.5008,0*%
%AMMACRO5*4,1,8,-0.6961,-0.7558,-0.7258,-0.726,-0.7258,0.7261,-0.6961,0.7558,0.696,0.7558,0.7258,0.7261,0.7258,-0.726,0.696,-0.7558,-0.6961,-0.7558,0*%
%AMMACRO6*4,1,8,-0.7261,-0.7258,-0.7558,-0.696,-0.7558,0.6961,-0.7261,0.7258,0.726,0.7258,0.7558,0.6961,0.7558,-0.696,0.726,-0.7258,-0.7261,-0.7258,0*%
%AMMACRO7*4,1,8,-0.0564,-0.6518,-0.6518,-0.0564,-0.6518,-0.0143,0.0143,0.6518,0.0564,0.6518,0.6518,0.0564,0.6518,0.0143,-0.0143,-0.6518,-0.0564,-0.6518,0*%
%AMMACRO8*4,1,8,-0.5211,-1.9508,-0.5508,-1.921,-0.5508,1.9211,-0.5211,1.9508,0.521,1.9508,0.5508,1.9211,0.5508,-1.921,0.521,-1.9508,-0.5211,-1.9508,0*%
%AMMACRO9*4,1,8,-1.9211,-0.5508,-1.9508,-0.521,-1.9508,0.5211,-1.9211,0.5508,1.921,0.5508,1.9508,0.5211,1.9508,-0.521,1.921,-0.5508,-1.9211,-0.5508,0*%
%AMMACRO10*4,1,8,-0.1961,-0.4008,-0.2258,-0.371,-0.2258,0.3711,-0.1961,0.4008,0.196,0.4008,0.2258,0.3711,0.2258,-0.371,0.196,-0.4008,-0.1961,-0.4008,0*%
%AMMACRO11*4,1,8,-0.3711,-0.2258,-0.4008,-0.196,-0.4008,0.1961,-0.3711,0.2258,0.371,0.2258,0.4008,0.1961,0.4008,-0.196,0.371,-0.2258,-0.3711,-0.2258,0*%
%AMMACRO12*4,1,8,-1.749,-0.6921,-1.7788,-0.6623,-1.7788,0.6623,-1.749,0.6921,1.749,0.6921,1.7788,0.6623,1.7788,-0.6623,1.749,-0.6921,-1.749,-0.6921,0*%
%AMMACRO13*4,1,8,-0.6623,-1.7788,-0.6921,-1.749,-0.6921,1.749,-0.6623,1.7788,0.6623,1.7788,0.6921,1.749,0.6921,-1.749,0.6623,-1.7788,-0.6623,-1.7788,0*%
%AMMACRO14*4,1,8,-0.0083,-0.1908,-0.1908,-0.0083,-0.1908,0.0338,-0.0338,0.1908,0.0083,0.1908,0.1908,0.0083,0.1908,-0.0338,0.0338,-0.1908,-0.0083,-0.1908,0*%
%AMMACRO15*4,1,8,-0.1291,-0.1408,-0.1588,-0.111,-0.1588,0.111,-0.1291,0.1408,0.129,0.1408,0.1588,0.111,0.1588,-0.111,0.129,-0.1408,-0.1291,-0.1408,0*%
%AMMACRO16*4,1,8,-0.1831,-0.2024,-0.2128,-0.1726,-0.2128,0.1726,-0.1831,0.2024,0.183,0.2024,0.2128,0.1726,0.2128,-0.1726,0.183,-0.2024,-0.1831,-0.2024,0*%
%AMMACRO17*4,1,8,-0.1851,-0.3558,-0.3558,-0.1851,-0.3558,-0.1437,0.1437,0.3558,0.1851,0.3558,0.3558,0.1851,0.3558,0.1437,-0.1437,-0.3558,-0.1851,-0.3558,0*%
%AMMACRO18*4,1,8,0.1437,-0.3558,-0.3558,0.1437,-0.3558,0.1851,-0.1851,0.3558,-0.1437,0.3558,0.3558,-0.1437,0.3558,-0.1851,0.1851,-0.3558,0.1437,-0.3558,0*%
%AMMACRO19*4,1,8,-0.0207,-2.4542,-2.4542,-0.0207,-2.4542,0.0207,-0.0207,2.4542,0.0207,2.4542,2.4542,0.0207,2.4542,-0.0207,0.0207,-2.4542,-0.0207,-2.4542,0*%
%AMMACRO20*4,1,8,-0.3536,-0.1908,-0.3833,-0.161,-0.3833,0.1611,-0.3536,0.1908,0.3535,0.1908,0.3833,0.1611,0.3833,-0.161,0.3535,-0.1908,-0.3536,-0.1908,0*%
%AMMACRO21*4,1,8,-0.6211,-1.0508,-0.6508,-1.021,-0.6508,1.0211,-0.6211,1.0508,0.621,1.0508,0.6508,1.0211,0.6508,-1.021,0.621,-1.0508,-0.6211,-1.0508,0*%
%AMMACRO22*4,1,8,-0.1711,-0.4858,-0.2008,-0.456,-0.2008,0.4561,-0.1711,0.4858,0.171,0.4858,0.2008,0.4561,0.2008,-0.456,0.171,-0.4858,-0.1711,-0.4858,0*%
%AMMACRO23*4,1,8,-0.8211,-0.8508,-0.8508,-0.821,-0.8508,0.8211,-0.8211,0.8508,0.821,0.8508,0.8508,0.8211,0.8508,-0.821,0.821,-0.8508,-0.8211,-0.8508,0*%
%AMMACRO24*4,1,8,-2.5711,-2.6008,-2.6008,-2.571,-2.6008,2.5711,-2.5711,2.6008,2.571,2.6008,2.6008,2.5711,2.6008,-2.571,2.571,-2.6008,-2.5711,-2.6008,0*%
%AMMACRO25*4,1,8,-0.3711,-0.1758,-0.4008,-0.146,-0.4008,0.1461,-0.3711,0.1758,0.371,0.1758,0.4008,0.1461,0.4008,-0.146,0.371,-0.1758,-0.3711,-0.1758,0*%
%AMMACRO26*4,1,8,-0.3711,-0.1758,-0.4008,-0.1461,-0.4008,0.1461,-0.3711,0.1758,0.371,0.1758,0.4008,0.1461,0.4008,-0.1461,0.371,-0.1758,-0.3711,-0.1758,0*%
%AMMACRO27*4,1,8,-0.1461,-0.7758,-0.1758,-0.746,-0.1758,0.746,-0.1461,0.7758,0.146,0.7758,0.1758,0.746,0.1758,-0.746,0.146,-0.7758,-0.1461,-0.7758,0*%
%AMMACRO28*4,1,8,-0.1461,-0.9758,-0.1758,-0.946,-0.1758,0.946,-0.1461,0.9758,0.146,0.9758,0.1758,0.946,0.1758,-0.946,0.146,-0.9758,-0.1461,-0.9758,0*%
%AMMACRO29*4,1,8,-0.1461,-0.4008,-0.1758,-0.371,-0.1758,0.3711,-0.1461,0.4008,0.146,0.4008,0.1758,0.3711,0.1758,-0.371,0.146,-0.4008,-0.1461,-0.4008,0*%
%AMMACRO30*4,1,8,-0.1461,-0.4008,-0.1758,-0.371,-0.1758,0.3711,-0.1461,0.4008,0.1461,0.4008,0.1758,0.3711,0.1758,-0.371,0.1461,-0.4008,-0.1461,-0.4008,0*%
%AMMACRO31*4,1,8,-0.4211,-1.5507,-0.4508,-1.5209,-0.4508,1.5209,-0.4211,1.5507,0.4211,1.5507,0.4508,1.5209,0.4508,-1.5209,0.4211,-1.5507,-0.4211,-1.5507,0*%
%AMMACRO32*4,1,8,-0.4211,-1.5507,-0.4509,-1.5209,-0.4509,1.5209,-0.4211,1.5507,0.4211,1.5507,0.4509,1.5209,0.4509,-1.5209,0.4211,-1.5507,-0.4211,-1.5507,0*%
%AMMACRO33*4,1,8,-0.4243,-0.4828,-0.454,-0.453,-0.454,0.4531,-0.4243,0.4828,0.4243,0.4828,0.454,0.4531,0.454,-0.453,0.4243,-0.4828,-0.4243,-0.4828,0*%
%AMMACRO34*4,1,8,-0.7211,-0.6508,-0.7508,-0.621,-0.7508,0.6211,-0.7211,0.6508,0.721,0.6508,0.7508,0.6211,0.7508,-0.621,0.721,-0.6508,-0.7211,-0.6508,0*%
%ADD10C,2.9016*%
%ADD11MACRO1*%
%ADD12MACRO2*%
%ADD13MACRO3*%
%ADD14MACRO4*%
%ADD15MACRO5*%
%ADD16MACRO6*%
%ADD17MACRO7*%
%ADD18C,1.7016*%
%ADD19C,0.0142*%
%ADD20MACRO8*%
%ADD21MACRO9*%
%ADD22MACRO10*%
%ADD23MACRO11*%
%ADD24MACRO12*%
%ADD25MACRO13*%
%ADD26MACRO14*%
%ADD27MACRO15*%
%ADD28MACRO16*%
%ADD29MACRO17*%
%ADD30MACRO18*%
%ADD31MACRO19*%
%ADD32MACRO20*%
%ADD33MACRO21*%
%ADD34MACRO22*%
%ADD35O,1.45161X1.201598*%
%ADD36MACRO23*%
%ADD37O,2.146605X0.68961*%
%ADD38O,0.675589X2.139594*%
%ADD39MACRO24*%
%ADD40O,0.38161X1.701597*%
%ADD41O,1.701597X0.38161*%
%ADD42MACRO25*%
%ADD43MACRO26*%
%ADD44MACRO27*%
%ADD45MACRO28*%
%ADD46MACRO29*%
%ADD47MACRO30*%
%ADD48MACRO31*%
%ADD49MACRO32*%
%ADD50MACRO33*%
%ADD51MACRO34*%
%ADD52C,5.1016*%

%LPD*%
D10*
G01*
X798499Y1299997D03*
G01*
X798499Y1799869D03*
G01*
X798499Y2299995D03*
G01*
X801496Y2799994D03*
G01*
X798499Y3299993D03*
D11*
G01*
X4824496Y1849996D03*
G01*
X4715484Y1849996D03*
G01*
X4554496Y1699996D03*
G01*
X4445485Y1699996D03*
D12*
G01*
X3799992Y1954502D03*
G01*
X3799992Y1845490D03*
G01*
X4169991Y1585490D03*
G01*
X4169991Y1694502D03*
G01*
X3999992Y1315491D03*
G01*
X3999992Y1424503D03*
G01*
X4399991Y3154499D03*
G01*
X4399991Y3045487D03*
D13*
G01*
X3819992Y1559996D03*
G01*
X3819992Y1419997D03*
D14*
G01*
X4069991Y799998D03*
G01*
X3929992Y799998D03*
D13*
G01*
X4699990Y1129997D03*
G01*
X4699990Y1269997D03*
D14*
G01*
X4429991Y1499996D03*
G01*
X4569990Y1499996D03*
G01*
X4729990Y1499996D03*
G01*
X4869990Y1499996D03*
G01*
X6619986Y5389989D03*
G01*
X6479987Y5389989D03*
D13*
G01*
X7399985Y5429989D03*
G01*
X7399985Y5569988D03*
D15*
G01*
X4799990Y3099991D03*
G01*
X4799990Y3299995D03*
D16*
G01*
X7999986Y5099989D03*
G01*
X7799981Y5099989D03*
G01*
X7999986Y5299989D03*
G01*
X7799981Y5299989D03*
G01*
X7999986Y5499988D03*
G01*
X7799981Y5499988D03*
G01*
X5299991Y2699994D03*
G01*
X5099987Y2699994D03*
G01*
X5199992Y3799992D03*
G01*
X4999987Y3799992D03*
G01*
X6599989Y5199989D03*
G01*
X6399984Y5199989D03*
G01*
X6599989Y4999989D03*
G01*
X6399984Y4999989D03*
D13*
G01*
X3164994Y2489995D03*
G01*
X3164994Y2629994D03*
G01*
X3299993Y4169991D03*
G01*
X3299993Y4029991D03*
D14*
G01*
X4669990Y5099989D03*
G01*
X4529990Y5099989D03*
D17*
G01*
X6750488Y3749490D03*
G01*
X6849482Y3650496D03*
D14*
G01*
X6629986Y2699994D03*
G01*
X6769986Y2699994D03*
D13*
G01*
X5999988Y4129991D03*
G01*
X5999988Y4269991D03*
G01*
X5399989Y3929992D03*
G01*
X5399989Y4069991D03*
D11*
G01*
X7145479Y5199989D03*
G01*
X7254491Y5199989D03*
D18*
G01*
X9399981Y2299995D03*
G01*
X9399981Y2099995D03*
G01*
X9399981Y2499995D03*
G01*
X9399981Y2699994D03*
G01*
X9399981Y2899994D03*
G01*
X9399981Y3099993D03*
G01*
X9399981Y1299971D03*
G01*
X9399981Y1099972D03*
G01*
X9399981Y1499971D03*
D20*
G01*
X7219985Y6099987D03*
G01*
X6979986Y6099987D03*
D21*
G01*
X3599992Y1219997D03*
G01*
X3599992Y979998D03*
G36*
X2782394Y3013616D02*
G01*
X2781896Y3013641D01*
X2781404Y3013712D01*
X2780918Y3013834D01*
X2780451Y3014002D01*
X2779999Y3014215D01*
X2779572Y3014471D01*
X2779171Y3014769D01*
X2778803Y3015104D01*
X2778467Y3015472D01*
X2778170Y3015874D01*
X2777914Y3016300D01*
X2777700Y3016752D01*
X2777533Y3017220D01*
X2777411Y3017705D01*
X2777340Y3018198D01*
X2777314Y3018696D01*
X2777314Y3268510D01*
X2777340Y3269007D01*
X2777411Y3269500D01*
X2777533Y3269985D01*
X2777700Y3270453D01*
X2777914Y3270905D01*
X2778170Y3271332D01*
X2778467Y3271733D01*
X2778803Y3272101D01*
X2779171Y3272436D01*
X2779572Y3272734D01*
X2779999Y3272990D01*
X2780451Y3273204D01*
X2780918Y3273371D01*
X2781404Y3273493D01*
X2781896Y3273564D01*
X2782394Y3273590D01*
X2822473Y3273590D01*
X2822971Y3273564D01*
X2823463Y3273493D01*
X2823949Y3273371D01*
X2824416Y3273204D01*
X2824868Y3272990D01*
X2825295Y3272734D01*
X2825696Y3272436D01*
X2826064Y3272101D01*
X2826400Y3271733D01*
X2826697Y3271332D01*
X2826953Y3270905D01*
X2827167Y3270453D01*
X2827334Y3269985D01*
X2827456Y3269500D01*
X2827527Y3269007D01*
X2827553Y3268510D01*
X2827553Y3216562D01*
X2842285Y3216562D01*
X2842285Y3268510D01*
X2842310Y3269007D01*
X2842381Y3269500D01*
X2842503Y3269985D01*
X2842671Y3270453D01*
X2842884Y3270905D01*
X2843141Y3271332D01*
X2843438Y3271733D01*
X2843773Y3272101D01*
X2844142Y3272436D01*
X2844543Y3272734D01*
X2844970Y3272990D01*
X2845422Y3273204D01*
X2845889Y3273371D01*
X2846374Y3273493D01*
X2846867Y3273564D01*
X2847365Y3273590D01*
X2887497Y3273590D01*
X2887995Y3273564D01*
X2888488Y3273493D01*
X2888973Y3273371D01*
X2889440Y3273204D01*
X2889892Y3272990D01*
X2890319Y3272734D01*
X2890720Y3272436D01*
X2891088Y3272101D01*
X2891424Y3271733D01*
X2891721Y3271332D01*
X2891977Y3270905D01*
X2892191Y3270453D01*
X2892358Y3269985D01*
X2892480Y3269500D01*
X2892552Y3269007D01*
X2892577Y3268510D01*
X2892577Y3216562D01*
X2907426Y3216562D01*
X2907426Y3268510D01*
X2907451Y3269007D01*
X2907522Y3269500D01*
X2907644Y3269985D01*
X2907812Y3270453D01*
X2908025Y3270905D01*
X2908282Y3271332D01*
X2908579Y3271733D01*
X2908914Y3272101D01*
X2909282Y3272436D01*
X2909684Y3272734D01*
X2910111Y3272990D01*
X2910563Y3273204D01*
X2911030Y3273371D01*
X2911515Y3273493D01*
X2912008Y3273564D01*
X2912506Y3273590D01*
X2952521Y3273590D01*
X2953019Y3273564D01*
X2953511Y3273493D01*
X2953997Y3273371D01*
X2954464Y3273204D01*
X2954916Y3272990D01*
X2955343Y3272734D01*
X2955744Y3272436D01*
X2956112Y3272101D01*
X2956448Y3271733D01*
X2956745Y3271332D01*
X2957001Y3270905D01*
X2957215Y3270453D01*
X2957382Y3269985D01*
X2957504Y3269500D01*
X2957575Y3269007D01*
X2957601Y3268510D01*
X2957601Y3216562D01*
X2972333Y3216562D01*
X2972333Y3268510D01*
X2972358Y3269007D01*
X2972429Y3269500D01*
X2972551Y3269985D01*
X2972719Y3270453D01*
X2972932Y3270905D01*
X2973189Y3271332D01*
X2973486Y3271733D01*
X2973821Y3272101D01*
X2974190Y3272436D01*
X2974591Y3272734D01*
X2975018Y3272990D01*
X2975470Y3273204D01*
X2975937Y3273371D01*
X2976422Y3273493D01*
X2976915Y3273564D01*
X2977413Y3273590D01*
X3017593Y3273590D01*
X3018091Y3273564D01*
X3018584Y3273493D01*
X3019069Y3273371D01*
X3019536Y3273204D01*
X3019988Y3272990D01*
X3020415Y3272734D01*
X3020816Y3272436D01*
X3021185Y3272101D01*
X3021520Y3271733D01*
X3021817Y3271332D01*
X3022074Y3270905D01*
X3022287Y3270453D01*
X3022455Y3269985D01*
X3022577Y3269500D01*
X3022648Y3269007D01*
X3022673Y3268510D01*
X3022673Y3018696D01*
X3022648Y3018198D01*
X3022577Y3017705D01*
X3022455Y3017220D01*
X3022287Y3016752D01*
X3022074Y3016300D01*
X3021817Y3015874D01*
X3021520Y3015472D01*
X3021185Y3015104D01*
X3020816Y3014769D01*
X3020415Y3014471D01*
X3019988Y3014215D01*
X3019536Y3014002D01*
X3019069Y3013834D01*
X3018584Y3013712D01*
X3018091Y3013641D01*
X3017593Y3013616D01*
G37*
D22*
G01*
X2802496Y2923514D03*
G01*
X2867494Y2923514D03*
G01*
X2932493Y2923514D03*
G01*
X2997492Y2923514D03*
G36*
X2782394Y2513617D02*
G01*
X2781896Y2513642D01*
X2781404Y2513713D01*
X2780918Y2513835D01*
X2780451Y2514003D01*
X2779999Y2514216D01*
X2779572Y2514472D01*
X2779171Y2514770D01*
X2778803Y2515105D01*
X2778467Y2515473D01*
X2778170Y2515875D01*
X2777914Y2516301D01*
X2777700Y2516753D01*
X2777533Y2517221D01*
X2777411Y2517706D01*
X2777340Y2518199D01*
X2777314Y2518697D01*
X2777314Y2768511D01*
X2777340Y2769008D01*
X2777411Y2769501D01*
X2777533Y2769986D01*
X2777700Y2770454D01*
X2777914Y2770906D01*
X2778170Y2771333D01*
X2778467Y2771734D01*
X2778803Y2772102D01*
X2779171Y2772437D01*
X2779572Y2772735D01*
X2779999Y2772991D01*
X2780451Y2773205D01*
X2780918Y2773372D01*
X2781404Y2773494D01*
X2781896Y2773565D01*
X2782394Y2773591D01*
X2822473Y2773591D01*
X2822971Y2773565D01*
X2823463Y2773494D01*
X2823949Y2773372D01*
X2824416Y2773205D01*
X2824868Y2772991D01*
X2825295Y2772735D01*
X2825696Y2772437D01*
X2826064Y2772102D01*
X2826400Y2771734D01*
X2826697Y2771333D01*
X2826953Y2770906D01*
X2827167Y2770454D01*
X2827334Y2769986D01*
X2827456Y2769501D01*
X2827527Y2769008D01*
X2827553Y2768511D01*
X2827553Y2716563D01*
X2842285Y2716563D01*
X2842285Y2768511D01*
X2842310Y2769008D01*
X2842381Y2769501D01*
X2842503Y2769986D01*
X2842671Y2770454D01*
X2842884Y2770906D01*
X2843141Y2771333D01*
X2843438Y2771734D01*
X2843773Y2772102D01*
X2844142Y2772437D01*
X2844543Y2772735D01*
X2844970Y2772991D01*
X2845422Y2773205D01*
X2845889Y2773372D01*
X2846374Y2773494D01*
X2846867Y2773565D01*
X2847365Y2773591D01*
X2887497Y2773591D01*
X2887995Y2773565D01*
X2888488Y2773494D01*
X2888973Y2773372D01*
X2889440Y2773205D01*
X2889892Y2772991D01*
X2890319Y2772735D01*
X2890720Y2772437D01*
X2891088Y2772102D01*
X2891424Y2771734D01*
X2891721Y2771333D01*
X2891977Y2770906D01*
X2892191Y2770454D01*
X2892358Y2769986D01*
X2892480Y2769501D01*
X2892552Y2769008D01*
X2892577Y2768511D01*
X2892577Y2716563D01*
X2907426Y2716563D01*
X2907426Y2768511D01*
X2907451Y2769008D01*
X2907522Y2769501D01*
X2907644Y2769986D01*
X2907812Y2770454D01*
X2908025Y2770906D01*
X2908282Y2771333D01*
X2908579Y2771734D01*
X2908914Y2772102D01*
X2909282Y2772437D01*
X2909684Y2772735D01*
X2910111Y2772991D01*
X2910563Y2773205D01*
X2911030Y2773372D01*
X2911515Y2773494D01*
X2912008Y2773565D01*
X2912506Y2773591D01*
X2952521Y2773591D01*
X2953019Y2773565D01*
X2953511Y2773494D01*
X2953997Y2773372D01*
X2954464Y2773205D01*
X2954916Y2772991D01*
X2955343Y2772735D01*
X2955744Y2772437D01*
X2956112Y2772102D01*
X2956448Y2771734D01*
X2956745Y2771333D01*
X2957001Y2770906D01*
X2957215Y2770454D01*
X2957382Y2769986D01*
X2957504Y2769501D01*
X2957575Y2769008D01*
X2957601Y2768511D01*
X2957601Y2716563D01*
X2972333Y2716563D01*
X2972333Y2768511D01*
X2972358Y2769008D01*
X2972429Y2769501D01*
X2972551Y2769986D01*
X2972719Y2770454D01*
X2972932Y2770906D01*
X2973189Y2771333D01*
X2973486Y2771734D01*
X2973821Y2772102D01*
X2974190Y2772437D01*
X2974591Y2772735D01*
X2975018Y2772991D01*
X2975470Y2773205D01*
X2975937Y2773372D01*
X2976422Y2773494D01*
X2976915Y2773565D01*
X2977413Y2773591D01*
X3017593Y2773591D01*
X3018091Y2773565D01*
X3018584Y2773494D01*
X3019069Y2773372D01*
X3019536Y2773205D01*
X3019988Y2772991D01*
X3020415Y2772735D01*
X3020816Y2772437D01*
X3021185Y2772102D01*
X3021520Y2771734D01*
X3021817Y2771333D01*
X3022074Y2770906D01*
X3022287Y2770454D01*
X3022455Y2769986D01*
X3022577Y2769501D01*
X3022648Y2769008D01*
X3022673Y2768511D01*
X3022673Y2518697D01*
X3022648Y2518199D01*
X3022577Y2517706D01*
X3022455Y2517221D01*
X3022287Y2516753D01*
X3022074Y2516301D01*
X3021817Y2515875D01*
X3021520Y2515473D01*
X3021185Y2515105D01*
X3020816Y2514770D01*
X3020415Y2514472D01*
X3019988Y2514216D01*
X3019536Y2514003D01*
X3019069Y2513835D01*
X3018584Y2513713D01*
X3018091Y2513642D01*
X3017593Y2513617D01*
G37*
G01*
X2802496Y2423515D03*
G01*
X2867494Y2423515D03*
G01*
X2932493Y2423515D03*
G01*
X2997492Y2423515D03*
G36*
X2931477Y4477311D02*
G01*
X2930979Y4477336D01*
X2930486Y4477407D01*
X2930001Y4477529D01*
X2929534Y4477697D01*
X2929082Y4477910D01*
X2928655Y4478167D01*
X2928254Y4478464D01*
X2927885Y4478799D01*
X2927550Y4479168D01*
X2927253Y4479569D01*
X2926996Y4479996D01*
X2926783Y4480448D01*
X2926615Y4480915D01*
X2926494Y4481400D01*
X2926422Y4481893D01*
X2926397Y4482391D01*
X2926397Y4522470D01*
X2926422Y4522967D01*
X2926494Y4523460D01*
X2926615Y4523945D01*
X2926783Y4524413D01*
X2926996Y4524865D01*
X2927253Y4525291D01*
X2927550Y4525693D01*
X2927885Y4526061D01*
X2928254Y4526396D01*
X2928655Y4526694D01*
X2929082Y4526950D01*
X2929534Y4527163D01*
X2930001Y4527331D01*
X2930486Y4527453D01*
X2930979Y4527524D01*
X2931477Y4527550D01*
X2983425Y4527550D01*
X2983425Y4542281D01*
X2931477Y4542281D01*
X2930979Y4542307D01*
X2930486Y4542378D01*
X2930001Y4542500D01*
X2929534Y4542668D01*
X2929082Y4542881D01*
X2928655Y4543137D01*
X2928254Y4543435D01*
X2927885Y4543770D01*
X2927550Y4544138D01*
X2927253Y4544540D01*
X2926996Y4544966D01*
X2926783Y4545418D01*
X2926615Y4545886D01*
X2926494Y4546371D01*
X2926422Y4546864D01*
X2926397Y4547362D01*
X2926397Y4587494D01*
X2926422Y4587991D01*
X2926494Y4588484D01*
X2926615Y4588969D01*
X2926783Y4589437D01*
X2926996Y4589889D01*
X2927253Y4590315D01*
X2927550Y4590717D01*
X2927885Y4591085D01*
X2928254Y4591420D01*
X2928655Y4591718D01*
X2929082Y4591974D01*
X2929534Y4592187D01*
X2930001Y4592355D01*
X2930486Y4592477D01*
X2930979Y4592548D01*
X2931477Y4592573D01*
X2983425Y4592573D01*
X2983425Y4607422D01*
X2931477Y4607422D01*
X2930979Y4607448D01*
X2930486Y4607519D01*
X2930001Y4607641D01*
X2929534Y4607808D01*
X2929082Y4608022D01*
X2928655Y4608278D01*
X2928254Y4608576D01*
X2927885Y4608911D01*
X2927550Y4609279D01*
X2927253Y4609680D01*
X2926996Y4610107D01*
X2926783Y4610559D01*
X2926615Y4611027D01*
X2926494Y4611512D01*
X2926422Y4612004D01*
X2926397Y4612502D01*
X2926397Y4652518D01*
X2926422Y4653015D01*
X2926494Y4653508D01*
X2926615Y4653993D01*
X2926783Y4654461D01*
X2926996Y4654913D01*
X2927253Y4655339D01*
X2927550Y4655741D01*
X2927885Y4656109D01*
X2928254Y4656444D01*
X2928655Y4656742D01*
X2929082Y4656998D01*
X2929534Y4657211D01*
X2930001Y4657379D01*
X2930486Y4657501D01*
X2930979Y4657572D01*
X2931477Y4657597D01*
X2983425Y4657597D01*
X2983425Y4672329D01*
X2931477Y4672329D01*
X2930979Y4672355D01*
X2930486Y4672426D01*
X2930001Y4672548D01*
X2929534Y4672716D01*
X2929082Y4672929D01*
X2928655Y4673185D01*
X2928254Y4673483D01*
X2927885Y4673818D01*
X2927550Y4674186D01*
X2927253Y4674588D01*
X2926996Y4675014D01*
X2926783Y4675466D01*
X2926615Y4675934D01*
X2926494Y4676419D01*
X2926422Y4676912D01*
X2926397Y4677410D01*
X2926397Y4717590D01*
X2926422Y4718088D01*
X2926494Y4718580D01*
X2926615Y4719065D01*
X2926783Y4719533D01*
X2926996Y4719985D01*
X2927253Y4720412D01*
X2927550Y4720813D01*
X2927885Y4721181D01*
X2928254Y4721517D01*
X2928655Y4721814D01*
X2929082Y4722070D01*
X2929534Y4722284D01*
X2930001Y4722451D01*
X2930486Y4722573D01*
X2930979Y4722644D01*
X2931477Y4722670D01*
X3181291Y4722670D01*
X3181789Y4722644D01*
X3182282Y4722573D01*
X3182767Y4722451D01*
X3183234Y4722284D01*
X3183686Y4722070D01*
X3184113Y4721814D01*
X3184514Y4721517D01*
X3184883Y4721181D01*
X3185218Y4720813D01*
X3185515Y4720412D01*
X3185772Y4719985D01*
X3185985Y4719533D01*
X3186153Y4719065D01*
X3186275Y4718580D01*
X3186346Y4718088D01*
X3186371Y4717590D01*
X3186371Y4482391D01*
X3186346Y4481893D01*
X3186275Y4481400D01*
X3186153Y4480915D01*
X3185985Y4480448D01*
X3185772Y4479996D01*
X3185515Y4479569D01*
X3185218Y4479168D01*
X3184883Y4478799D01*
X3184514Y4478464D01*
X3184113Y4478167D01*
X3183686Y4477910D01*
X3183234Y4477697D01*
X3182767Y4477529D01*
X3182282Y4477407D01*
X3181789Y4477336D01*
X3181291Y4477311D01*
G37*
D23*
G01*
X3276473Y4502492D03*
G01*
X3276473Y4567491D03*
G01*
X3276473Y4632490D03*
G01*
X3276473Y4697488D03*
G36*
X3431476Y4477311D02*
G01*
X3430978Y4477336D01*
X3430485Y4477407D01*
X3430000Y4477529D01*
X3429533Y4477697D01*
X3429081Y4477910D01*
X3428654Y4478167D01*
X3428253Y4478464D01*
X3427884Y4478799D01*
X3427549Y4479168D01*
X3427252Y4479569D01*
X3426995Y4479996D01*
X3426782Y4480448D01*
X3426614Y4480915D01*
X3426493Y4481400D01*
X3426421Y4481893D01*
X3426396Y4482391D01*
X3426396Y4522470D01*
X3426421Y4522967D01*
X3426493Y4523460D01*
X3426614Y4523945D01*
X3426782Y4524413D01*
X3426995Y4524865D01*
X3427252Y4525291D01*
X3427549Y4525693D01*
X3427884Y4526061D01*
X3428253Y4526396D01*
X3428654Y4526694D01*
X3429081Y4526950D01*
X3429533Y4527163D01*
X3430000Y4527331D01*
X3430485Y4527453D01*
X3430978Y4527524D01*
X3431476Y4527550D01*
X3483424Y4527550D01*
X3483424Y4542281D01*
X3431476Y4542281D01*
X3430978Y4542307D01*
X3430485Y4542378D01*
X3430000Y4542500D01*
X3429533Y4542668D01*
X3429081Y4542881D01*
X3428654Y4543137D01*
X3428253Y4543435D01*
X3427884Y4543770D01*
X3427549Y4544138D01*
X3427252Y4544540D01*
X3426995Y4544966D01*
X3426782Y4545418D01*
X3426614Y4545886D01*
X3426493Y4546371D01*
X3426421Y4546864D01*
X3426396Y4547362D01*
X3426396Y4587494D01*
X3426421Y4587991D01*
X3426493Y4588484D01*
X3426614Y4588969D01*
X3426782Y4589437D01*
X3426995Y4589889D01*
X3427252Y4590315D01*
X3427549Y4590717D01*
X3427884Y4591085D01*
X3428253Y4591420D01*
X3428654Y4591718D01*
X3429081Y4591974D01*
X3429533Y4592187D01*
X3430000Y4592355D01*
X3430485Y4592477D01*
X3430978Y4592548D01*
X3431476Y4592573D01*
X3483424Y4592573D01*
X3483424Y4607422D01*
X3431476Y4607422D01*
X3430978Y4607448D01*
X3430485Y4607519D01*
X3430000Y4607641D01*
X3429533Y4607808D01*
X3429081Y4608022D01*
X3428654Y4608278D01*
X3428253Y4608576D01*
X3427884Y4608911D01*
X3427549Y4609279D01*
X3427252Y4609680D01*
X3426995Y4610107D01*
X3426782Y4610559D01*
X3426614Y4611027D01*
X3426493Y4611512D01*
X3426421Y4612004D01*
X3426396Y4612502D01*
X3426396Y4652518D01*
X3426421Y4653015D01*
X3426493Y4653508D01*
X3426614Y4653993D01*
X3426782Y4654461D01*
X3426995Y4654913D01*
X3427252Y4655339D01*
X3427549Y4655741D01*
X3427884Y4656109D01*
X3428253Y4656444D01*
X3428654Y4656742D01*
X3429081Y4656998D01*
X3429533Y4657211D01*
X3430000Y4657379D01*
X3430485Y4657501D01*
X3430978Y4657572D01*
X3431476Y4657597D01*
X3483424Y4657597D01*
X3483424Y4672329D01*
X3431476Y4672329D01*
X3430978Y4672355D01*
X3430485Y4672426D01*
X3430000Y4672548D01*
X3429533Y4672716D01*
X3429081Y4672929D01*
X3428654Y4673185D01*
X3428253Y4673483D01*
X3427884Y4673818D01*
X3427549Y4674186D01*
X3427252Y4674588D01*
X3426995Y4675014D01*
X3426782Y4675466D01*
X3426614Y4675934D01*
X3426493Y4676419D01*
X3426421Y4676912D01*
X3426396Y4677410D01*
X3426396Y4717590D01*
X3426421Y4718088D01*
X3426493Y4718580D01*
X3426614Y4719065D01*
X3426782Y4719533D01*
X3426995Y4719985D01*
X3427252Y4720412D01*
X3427549Y4720813D01*
X3427884Y4721181D01*
X3428253Y4721517D01*
X3428654Y4721814D01*
X3429081Y4722070D01*
X3429533Y4722284D01*
X3430000Y4722451D01*
X3430485Y4722573D01*
X3430978Y4722644D01*
X3431476Y4722670D01*
X3681290Y4722670D01*
X3681788Y4722644D01*
X3682281Y4722573D01*
X3682766Y4722451D01*
X3683233Y4722284D01*
X3683685Y4722070D01*
X3684112Y4721814D01*
X3684513Y4721517D01*
X3684882Y4721181D01*
X3685217Y4720813D01*
X3685514Y4720412D01*
X3685771Y4719985D01*
X3685984Y4719533D01*
X3686152Y4719065D01*
X3686274Y4718580D01*
X3686345Y4718088D01*
X3686370Y4717590D01*
X3686370Y4482391D01*
X3686345Y4481893D01*
X3686274Y4481400D01*
X3686152Y4480915D01*
X3685984Y4480448D01*
X3685771Y4479996D01*
X3685514Y4479569D01*
X3685217Y4479168D01*
X3684882Y4478799D01*
X3684513Y4478464D01*
X3684112Y4478167D01*
X3683685Y4477910D01*
X3683233Y4477697D01*
X3682766Y4477529D01*
X3682281Y4477407D01*
X3681788Y4477336D01*
X3681290Y4477311D01*
G37*
G01*
X3776471Y4502492D03*
G01*
X3776471Y4567491D03*
G01*
X3776471Y4632490D03*
G01*
X3776471Y4697488D03*
G36*
X3431476Y5377309D02*
G01*
X3430978Y5377334D01*
X3430485Y5377406D01*
X3430000Y5377527D01*
X3429533Y5377695D01*
X3429081Y5377908D01*
X3428654Y5378165D01*
X3428253Y5378462D01*
X3427884Y5378797D01*
X3427549Y5379166D01*
X3427252Y5379567D01*
X3426995Y5379994D01*
X3426782Y5380446D01*
X3426614Y5380913D01*
X3426493Y5381398D01*
X3426421Y5381891D01*
X3426396Y5382389D01*
X3426396Y5422468D01*
X3426421Y5422966D01*
X3426493Y5423458D01*
X3426614Y5423943D01*
X3426782Y5424411D01*
X3426995Y5424863D01*
X3427252Y5425290D01*
X3427549Y5425691D01*
X3427884Y5426059D01*
X3428253Y5426395D01*
X3428654Y5426692D01*
X3429081Y5426948D01*
X3429533Y5427162D01*
X3430000Y5427329D01*
X3430485Y5427451D01*
X3430978Y5427522D01*
X3431476Y5427548D01*
X3483424Y5427548D01*
X3483424Y5442280D01*
X3431476Y5442280D01*
X3430978Y5442305D01*
X3430485Y5442376D01*
X3430000Y5442498D01*
X3429533Y5442666D01*
X3429081Y5442879D01*
X3428654Y5443136D01*
X3428253Y5443433D01*
X3427884Y5443768D01*
X3427549Y5444136D01*
X3427252Y5444538D01*
X3426995Y5444964D01*
X3426782Y5445417D01*
X3426614Y5445884D01*
X3426493Y5446369D01*
X3426421Y5446862D01*
X3426396Y5447360D01*
X3426396Y5487492D01*
X3426421Y5487990D01*
X3426493Y5488482D01*
X3426614Y5488967D01*
X3426782Y5489435D01*
X3426995Y5489887D01*
X3427252Y5490314D01*
X3427549Y5490715D01*
X3427884Y5491083D01*
X3428253Y5491419D01*
X3428654Y5491716D01*
X3429081Y5491972D01*
X3429533Y5492186D01*
X3430000Y5492353D01*
X3430485Y5492475D01*
X3430978Y5492546D01*
X3431476Y5492572D01*
X3483424Y5492572D01*
X3483424Y5507421D01*
X3431476Y5507421D01*
X3430978Y5507446D01*
X3430485Y5507517D01*
X3430000Y5507639D01*
X3429533Y5507807D01*
X3429081Y5508020D01*
X3428654Y5508277D01*
X3428253Y5508574D01*
X3427884Y5508909D01*
X3427549Y5509277D01*
X3427252Y5509679D01*
X3426995Y5510105D01*
X3426782Y5510557D01*
X3426614Y5511025D01*
X3426493Y5511510D01*
X3426421Y5512003D01*
X3426396Y5512501D01*
X3426396Y5552516D01*
X3426421Y5553014D01*
X3426493Y5553506D01*
X3426614Y5553991D01*
X3426782Y5554459D01*
X3426995Y5554911D01*
X3427252Y5555338D01*
X3427549Y5555739D01*
X3427884Y5556107D01*
X3428253Y5556443D01*
X3428654Y5556740D01*
X3429081Y5556996D01*
X3429533Y5557210D01*
X3430000Y5557377D01*
X3430485Y5557499D01*
X3430978Y5557570D01*
X3431476Y5557596D01*
X3483424Y5557596D01*
X3483424Y5572328D01*
X3431476Y5572328D01*
X3430978Y5572353D01*
X3430485Y5572424D01*
X3430000Y5572546D01*
X3429533Y5572714D01*
X3429081Y5572927D01*
X3428654Y5573184D01*
X3428253Y5573481D01*
X3427884Y5573816D01*
X3427549Y5574184D01*
X3427252Y5574586D01*
X3426995Y5575012D01*
X3426782Y5575465D01*
X3426614Y5575932D01*
X3426493Y5576417D01*
X3426421Y5576910D01*
X3426396Y5577408D01*
X3426396Y5617588D01*
X3426421Y5618086D01*
X3426493Y5618579D01*
X3426614Y5619064D01*
X3426782Y5619531D01*
X3426995Y5619983D01*
X3427252Y5620410D01*
X3427549Y5620811D01*
X3427884Y5621180D01*
X3428253Y5621515D01*
X3428654Y5621812D01*
X3429081Y5622069D01*
X3429533Y5622282D01*
X3430000Y5622450D01*
X3430485Y5622571D01*
X3430978Y5622643D01*
X3431476Y5622668D01*
X3681290Y5622668D01*
X3681788Y5622643D01*
X3682281Y5622571D01*
X3682766Y5622450D01*
X3683233Y5622282D01*
X3683685Y5622069D01*
X3684112Y5621812D01*
X3684513Y5621515D01*
X3684882Y5621180D01*
X3685217Y5620811D01*
X3685514Y5620410D01*
X3685771Y5619983D01*
X3685984Y5619531D01*
X3686152Y5619064D01*
X3686274Y5618579D01*
X3686345Y5618086D01*
X3686370Y5617588D01*
X3686370Y5382389D01*
X3686345Y5381891D01*
X3686274Y5381398D01*
X3686152Y5380913D01*
X3685984Y5380446D01*
X3685771Y5379994D01*
X3685514Y5379567D01*
X3685217Y5379166D01*
X3684882Y5378797D01*
X3684513Y5378462D01*
X3684112Y5378165D01*
X3683685Y5377908D01*
X3683233Y5377695D01*
X3682766Y5377527D01*
X3682281Y5377406D01*
X3681788Y5377334D01*
X3681290Y5377309D01*
G37*
G01*
X3776471Y5402491D03*
G01*
X3776471Y5467489D03*
G01*
X3776471Y5532488D03*
G01*
X3776471Y5597486D03*
G36*
X2931477Y5377309D02*
G01*
X2930979Y5377334D01*
X2930486Y5377406D01*
X2930001Y5377527D01*
X2929534Y5377695D01*
X2929082Y5377908D01*
X2928655Y5378165D01*
X2928254Y5378462D01*
X2927885Y5378797D01*
X2927550Y5379166D01*
X2927253Y5379567D01*
X2926996Y5379994D01*
X2926783Y5380446D01*
X2926615Y5380913D01*
X2926494Y5381398D01*
X2926422Y5381891D01*
X2926397Y5382389D01*
X2926397Y5422468D01*
X2926422Y5422966D01*
X2926494Y5423458D01*
X2926615Y5423943D01*
X2926783Y5424411D01*
X2926996Y5424863D01*
X2927253Y5425290D01*
X2927550Y5425691D01*
X2927885Y5426059D01*
X2928254Y5426395D01*
X2928655Y5426692D01*
X2929082Y5426948D01*
X2929534Y5427162D01*
X2930001Y5427329D01*
X2930486Y5427451D01*
X2930979Y5427522D01*
X2931477Y5427548D01*
X2983425Y5427548D01*
X2983425Y5442280D01*
X2931477Y5442280D01*
X2930979Y5442305D01*
X2930486Y5442376D01*
X2930001Y5442498D01*
X2929534Y5442666D01*
X2929082Y5442879D01*
X2928655Y5443136D01*
X2928254Y5443433D01*
X2927885Y5443768D01*
X2927550Y5444136D01*
X2927253Y5444538D01*
X2926996Y5444964D01*
X2926783Y5445417D01*
X2926615Y5445884D01*
X2926494Y5446369D01*
X2926422Y5446862D01*
X2926397Y5447360D01*
X2926397Y5487492D01*
X2926422Y5487990D01*
X2926494Y5488482D01*
X2926615Y5488967D01*
X2926783Y5489435D01*
X2926996Y5489887D01*
X2927253Y5490314D01*
X2927550Y5490715D01*
X2927885Y5491083D01*
X2928254Y5491419D01*
X2928655Y5491716D01*
X2929082Y5491972D01*
X2929534Y5492186D01*
X2930001Y5492353D01*
X2930486Y5492475D01*
X2930979Y5492546D01*
X2931477Y5492572D01*
X2983425Y5492572D01*
X2983425Y5507421D01*
X2931477Y5507421D01*
X2930979Y5507446D01*
X2930486Y5507517D01*
X2930001Y5507639D01*
X2929534Y5507807D01*
X2929082Y5508020D01*
X2928655Y5508277D01*
X2928254Y5508574D01*
X2927885Y5508909D01*
X2927550Y5509277D01*
X2927253Y5509679D01*
X2926996Y5510105D01*
X2926783Y5510557D01*
X2926615Y5511025D01*
X2926494Y5511510D01*
X2926422Y5512003D01*
X2926397Y5512501D01*
X2926397Y5552516D01*
X2926422Y5553014D01*
X2926494Y5553506D01*
X2926615Y5553991D01*
X2926783Y5554459D01*
X2926996Y5554911D01*
X2927253Y5555338D01*
X2927550Y5555739D01*
X2927885Y5556107D01*
X2928254Y5556443D01*
X2928655Y5556740D01*
X2929082Y5556996D01*
X2929534Y5557210D01*
X2930001Y5557377D01*
X2930486Y5557499D01*
X2930979Y5557570D01*
X2931477Y5557596D01*
X2983425Y5557596D01*
X2983425Y5572328D01*
X2931477Y5572328D01*
X2930979Y5572353D01*
X2930486Y5572424D01*
X2930001Y5572546D01*
X2929534Y5572714D01*
X2929082Y5572927D01*
X2928655Y5573184D01*
X2928254Y5573481D01*
X2927885Y5573816D01*
X2927550Y5574184D01*
X2927253Y5574586D01*
X2926996Y5575012D01*
X2926783Y5575465D01*
X2926615Y5575932D01*
X2926494Y5576417D01*
X2926422Y5576910D01*
X2926397Y5577408D01*
X2926397Y5617588D01*
X2926422Y5618086D01*
X2926494Y5618579D01*
X2926615Y5619064D01*
X2926783Y5619531D01*
X2926996Y5619983D01*
X2927253Y5620410D01*
X2927550Y5620811D01*
X2927885Y5621180D01*
X2928254Y5621515D01*
X2928655Y5621812D01*
X2929082Y5622069D01*
X2929534Y5622282D01*
X2930001Y5622450D01*
X2930486Y5622571D01*
X2930979Y5622643D01*
X2931477Y5622668D01*
X3181291Y5622668D01*
X3181789Y5622643D01*
X3182282Y5622571D01*
X3182767Y5622450D01*
X3183234Y5622282D01*
X3183686Y5622069D01*
X3184113Y5621812D01*
X3184514Y5621515D01*
X3184883Y5621180D01*
X3185218Y5620811D01*
X3185515Y5620410D01*
X3185772Y5619983D01*
X3185985Y5619531D01*
X3186153Y5619064D01*
X3186275Y5618579D01*
X3186346Y5618086D01*
X3186371Y5617588D01*
X3186371Y5382389D01*
X3186346Y5381891D01*
X3186275Y5381398D01*
X3186153Y5380913D01*
X3185985Y5380446D01*
X3185772Y5379994D01*
X3185515Y5379567D01*
X3185218Y5379166D01*
X3184883Y5378797D01*
X3184514Y5378462D01*
X3184113Y5378165D01*
X3183686Y5377908D01*
X3183234Y5377695D01*
X3182767Y5377527D01*
X3182282Y5377406D01*
X3181789Y5377334D01*
X3181291Y5377309D01*
G37*
G01*
X3276473Y5402491D03*
G01*
X3276473Y5467489D03*
G01*
X3276473Y5532488D03*
G01*
X3276473Y5597486D03*
D24*
G01*
X3399993Y1413370D03*
G01*
X3399993Y2026622D03*
G01*
X2899994Y4006618D03*
G01*
X2899994Y3393366D03*
D25*
G01*
X4906617Y5499989D03*
G01*
X4293364Y5499989D03*
G01*
X3093366Y599998D03*
G01*
X3706619Y599998D03*
D26*
G01*
X5587965Y2807973D03*
G01*
X5612009Y2832017D03*
D27*
G01*
X4479991Y2992993D03*
G01*
X4479991Y3026994D03*
D28*
G01*
X6799986Y5475833D03*
G01*
X6799986Y5524144D03*
G01*
X7599984Y5475833D03*
G01*
X7599984Y5524144D03*
D29*
G01*
X5384264Y3171687D03*
G01*
X5412552Y3143399D03*
G01*
X5440840Y3115111D03*
G01*
X5469128Y3086823D03*
G01*
X5497415Y3058535D03*
G01*
X5525686Y3030265D03*
G01*
X5553974Y3001977D03*
G01*
X5582260Y2973689D03*
G01*
X5610548Y2945401D03*
G01*
X5638836Y2917113D03*
G01*
X5667105Y2888844D03*
G01*
X5695393Y2860556D03*
G01*
X5723681Y2832268D03*
G01*
X5751969Y2803982D03*
G01*
X5780257Y2775694D03*
G01*
X5808527Y2747424D03*
G01*
X5836815Y2719136D03*
G01*
X5865103Y2690848D03*
G01*
X5893391Y2662560D03*
G01*
X5921679Y2634272D03*
D30*
G01*
X6078294Y2634272D03*
G01*
X6106582Y2662558D03*
G01*
X6134870Y2690846D03*
G01*
X6163158Y2719134D03*
G01*
X6191446Y2747422D03*
G01*
X6219717Y2775692D03*
G01*
X6248003Y2803980D03*
G01*
X6276291Y2832267D03*
G01*
X6304579Y2860555D03*
G01*
X6332867Y2888843D03*
G01*
X6361137Y2917113D03*
G01*
X6389425Y2945401D03*
G01*
X6417713Y2973689D03*
G01*
X6446000Y3001977D03*
G01*
X6474288Y3030264D03*
G01*
X6502558Y3058534D03*
G01*
X6530846Y3086822D03*
G01*
X6559134Y3115110D03*
G01*
X6587422Y3143398D03*
G01*
X6615709Y3171686D03*
D29*
G01*
X6615709Y3328302D03*
G01*
X6587422Y3356590D03*
G01*
X6559134Y3384878D03*
G01*
X6530846Y3413166D03*
G01*
X6502558Y3441454D03*
G01*
X6474288Y3469725D03*
G01*
X6446000Y3498011D03*
G01*
X6417713Y3526299D03*
G01*
X6389425Y3554587D03*
G01*
X6361137Y3582875D03*
G01*
X6332867Y3611145D03*
G01*
X6304579Y3639433D03*
G01*
X6276291Y3667721D03*
G01*
X6248003Y3696008D03*
G01*
X6219717Y3724296D03*
G01*
X6191446Y3752566D03*
G01*
X6163158Y3780854D03*
G01*
X6134870Y3809142D03*
G01*
X6106582Y3837430D03*
G01*
X6078294Y3865717D03*
D30*
G01*
X5921679Y3865717D03*
G01*
X5893391Y3837429D03*
G01*
X5865103Y3809141D03*
G01*
X5836815Y3780853D03*
G01*
X5808527Y3752565D03*
G01*
X5780257Y3724295D03*
G01*
X5751969Y3696007D03*
G01*
X5723681Y3667720D03*
G01*
X5695393Y3639432D03*
G01*
X5667105Y3611144D03*
G01*
X5638836Y3582875D03*
G01*
X5610548Y3554587D03*
G01*
X5582260Y3526299D03*
G01*
X5553974Y3498011D03*
G01*
X5525686Y3469723D03*
G01*
X5497415Y3441453D03*
G01*
X5469128Y3413165D03*
G01*
X5440840Y3384877D03*
G01*
X5412552Y3356589D03*
G01*
X5384264Y3328301D03*
D31*
G01*
X5999986Y3249994D03*
D32*
G01*
X4084243Y1199997D03*
G01*
X4084243Y1149984D03*
G01*
X4084243Y1099997D03*
G01*
X4084243Y1049985D03*
G01*
X4084243Y999998D03*
G01*
X4315739Y1199997D03*
G01*
X4315739Y1149984D03*
G01*
X4315739Y1099997D03*
G01*
X4315739Y1049985D03*
G01*
X4315739Y999998D03*
D33*
G01*
X4199991Y1099997D03*
D34*
G01*
X9774985Y5113489D03*
G01*
X9224973Y5286489D03*
G01*
X9624973Y5113489D03*
G01*
X9574985Y5113489D03*
G01*
X9524973Y5113489D03*
G01*
X9474986Y5113489D03*
G01*
X9424973Y5113489D03*
G01*
X9374986Y5113489D03*
G01*
X9224973Y5113494D03*
G01*
X9374986Y5286489D03*
G01*
X9424973Y5286489D03*
G01*
X9474986Y5286489D03*
G01*
X9524973Y5286489D03*
G01*
X9574985Y5286489D03*
G01*
X9624973Y5286489D03*
G01*
X9774985Y5286489D03*
D35*
G01*
X9739985Y4985004D03*
G01*
X9259976Y4985004D03*
G01*
X9259976Y5415000D03*
G01*
X9739985Y5415000D03*
D36*
G01*
X9399981Y4499990D03*
D18*
G01*
X9399981Y4299991D03*
D36*
G01*
X9399981Y3799992D03*
D18*
G01*
X9399981Y3599992D03*
D37*
G01*
X8277225Y1009497D03*
G01*
X8277225Y1136497D03*
G01*
X8277225Y1263497D03*
G01*
X8277225Y1390497D03*
G01*
X7722743Y1009497D03*
G01*
X7722743Y1136497D03*
G01*
X7722743Y1263497D03*
G01*
X7722743Y1390497D03*
D38*
G01*
X6418986Y1023086D03*
G01*
X6545986Y1023086D03*
G01*
X6672986Y1023086D03*
G01*
X6799986Y1023086D03*
G01*
X6926986Y1023086D03*
G01*
X7053986Y1023086D03*
G01*
X7180986Y1023086D03*
G01*
X6418986Y1576908D03*
G01*
X6545986Y1576908D03*
G01*
X6672986Y1576908D03*
G01*
X6799986Y1576908D03*
G01*
X6926986Y1576908D03*
G01*
X7053986Y1576908D03*
G01*
X7180986Y1576908D03*
D39*
G01*
X4199991Y2399995D03*
D40*
G01*
X4474997Y1980006D03*
G01*
X4424984Y1980006D03*
G01*
X4374997Y1980006D03*
G01*
X4324984Y1980006D03*
G01*
X4274997Y1980006D03*
G01*
X4224985Y1980006D03*
G01*
X4174997Y1980006D03*
G01*
X4124985Y1980006D03*
G01*
X4074998Y1980006D03*
G01*
X4024985Y1980006D03*
G01*
X3974998Y1980006D03*
G01*
X3924985Y1980006D03*
D41*
G01*
X3780002Y2124989D03*
G01*
X3780002Y2175002D03*
G01*
X3780002Y2224989D03*
G01*
X3780002Y2275001D03*
G01*
X3780002Y2324988D03*
G01*
X3780002Y2375001D03*
G01*
X3780002Y2424988D03*
G01*
X3780002Y2475001D03*
G01*
X3780002Y2524988D03*
G01*
X3780002Y2575001D03*
G01*
X3780002Y2624988D03*
G01*
X3780002Y2675001D03*
D40*
G01*
X3924985Y2819984D03*
G01*
X3974998Y2819984D03*
G01*
X4024985Y2819984D03*
G01*
X4074998Y2819984D03*
G01*
X4124985Y2819984D03*
G01*
X4174997Y2819984D03*
G01*
X4224985Y2819984D03*
G01*
X4274997Y2819984D03*
G01*
X4324984Y2819984D03*
G01*
X4374997Y2819984D03*
G01*
X4424984Y2819984D03*
G01*
X4474997Y2819984D03*
D41*
G01*
X4619980Y2675001D03*
G01*
X4619980Y2624988D03*
G01*
X4619980Y2575001D03*
G01*
X4619980Y2524988D03*
G01*
X4619980Y2475001D03*
G01*
X4619980Y2424988D03*
G01*
X4619980Y2375001D03*
G01*
X4619980Y2324988D03*
G01*
X4619980Y2275001D03*
G01*
X4619980Y2224989D03*
G01*
X4619980Y2175002D03*
G01*
X4619980Y2124989D03*
D42*
G01*
X6954986Y5443406D03*
G01*
X6954986Y5493419D03*
G01*
X6954986Y5543381D03*
D43*
G01*
X6954986Y5593392D03*
D44*
G01*
X7049974Y5601619D03*
D45*
G01*
X7099987Y5581619D03*
D44*
G01*
X7149974Y5601619D03*
D42*
G01*
X7244985Y5593391D03*
G01*
X7244985Y5543378D03*
G01*
X7244985Y5493365D03*
G01*
X7244985Y5443378D03*
D46*
G01*
X7174993Y5398357D03*
G01*
X7124980Y5398357D03*
G01*
X7074968Y5398357D03*
D47*
G01*
X7024979Y5398357D03*
D48*
G01*
X7249998Y499998D03*
D49*
G01*
X7099998Y499998D03*
G01*
X6949998Y499998D03*
D50*
G01*
X8875307Y5299989D03*
G01*
X8724657Y5299989D03*
G01*
X8875307Y5099989D03*
G01*
X8724657Y5099989D03*
D51*
G01*
X6909986Y2487485D03*
G01*
X6689986Y2487485D03*
G01*
X6689986Y2312479D03*
G01*
X6909986Y2312484D03*
D52*
G01*
X499998Y499998D03*
G01*
X499998Y5999987D03*
G01*
X9499981Y5999987D03*
G01*
X9499981Y499998D03*
M02*
