G04 Layer: TopLayer*
G04 EasyEDA v6.5.51, 2025-11-04 20:26:23*
G04 623bb76df6fb496f828c8c95ac90ab9a,07aaf3ec58ed4e568cacc845e37e2e79,10*
G04 Gerber Generator version 0.2*
G04 Scale: 100 percent, Rotated: No, Reflected: No *
G04 Dimensions in millimeters *
G04 leading zeros omitted , absolute positions ,4 integer and 5 decimal *
%FSLAX45Y45*%
%MOMM*%

%AMMACRO1*21,1,$1,$2,0,0,$3*%
%AMMACRO2*4,1,22,-1.176,-1.2491,-1.176,0.6788,-1.176,0.6788,-1.176,1.2491,-0.7752,1.2491,-0.7752,0.6788,-0.5263,0.6788,-0.5263,1.2491,-0.125,1.2491,-0.125,0.6788,0.1251,0.6788,0.1251,1.2491,0.5253,1.2491,0.5253,0.6788,0.7742,0.6788,0.7742,1.2491,0.7742,0.6788,0.7742,1.2491,1.176,1.2491,1.176,0.6788,1.176,0.6788,1.176,-1.2491,-1.176,-1.2491,0*%
%AMMACRO3*4,1,22,1.2491,-1.176,-0.6788,-1.176,-0.6788,-1.176,-1.2491,-1.176,-1.2491,-0.7752,-0.6788,-0.7752,-0.6788,-0.5263,-1.2491,-0.5263,-1.2491,-0.125,-0.6788,-0.125,-0.6788,0.1251,-1.2491,0.1251,-1.2491,0.5253,-0.6788,0.5253,-0.6788,0.7742,-1.2491,0.7742,-0.6788,0.7742,-1.2491,0.7742,-1.2491,1.176,-0.6788,1.176,-0.6788,1.176,1.2491,1.176,1.2491,-1.176,0*%
%ADD10C,2.0000*%
%ADD11C,0.2000*%
%ADD12C,0.2540*%
%ADD13C,0.1800*%
%ADD14MACRO1,0.54X0.7901X90.0000*%
%ADD15MACRO1,0.54X0.7901X0.0000*%
%ADD16R,0.5400X0.7901*%
%ADD17R,0.0166X0.7901*%
%ADD18R,0.9000X0.8000*%
%ADD19R,0.8000X0.9000*%
%ADD20MACRO1,1.35X1.41X0.0000*%
%ADD21R,1.3500X1.4100*%
%ADD22MACRO1,1.35X1.41X90.0000*%
%ADD23MACRO1,0.8X0.9X135.0000*%
%ADD24MACRO1,0.54X0.7901X-90.0000*%
%ADD25R,1.0000X3.8000*%
%ADD26R,3.8000X1.0000*%
%ADD27MACRO2*%
%ADD28R,0.3500X0.7000*%
%ADD29MACRO3*%
%ADD30R,0.7000X0.3500*%
%ADD31MACRO1,3.456X1.2825X0.0000*%
%ADD32R,3.4560X1.2825*%
%ADD33MACRO1,3.456X1.2825X90.0000*%
%ADD34MACRO1,3.456X1.2825X-90.0000*%
%ADD35MACRO1,0.18X0.216X-134.9943*%
%ADD36MACRO1,0.18X0.216X-135.0057*%
%ADD37R,0.2160X0.1800*%
%ADD38MACRO1,0.324X0.3031X0.0000*%
%ADD39R,0.3240X0.3031*%
%ADD40MACRO1,0.665X0.2X45.0000*%
%ADD41MACRO1,0.665X0.2X45.0015*%
%ADD42MACRO1,0.665X0.2X44.9985*%
%ADD43MACRO1,0.2X0.665X45.0000*%
%ADD44MACRO1,0.2X0.665X44.9949*%
%ADD45MACRO1,0.2X0.665X45.0051*%
%ADD46MACRO1,3.4X3.4X45.0000*%
%ADD47R,0.6650X0.2800*%
%ADD48R,1.2000X2.0000*%
%ADD49R,0.3000X0.8700*%
%ADD50O,2.045005X0.58801*%
%ADD51O,0.573989X2.037994*%
%ADD52R,5.1000X5.1000*%
%ADD53O,0.28001X1.599997*%
%ADD54O,1.599997X0.28001*%
%ADD55R,0.7000X0.2500*%
%ADD56R,0.2500X1.4500*%
%ADD57R,0.2500X1.8500*%
%ADD58R,0.2500X0.7000*%
%ADD59R,0.8001X2.9997*%
%ADD60MACRO1,0.864X0.8065X90.0000*%
%ADD61R,1.4000X1.2000*%
%ADD62C,2.8000*%
%ADD63C,1.6000*%
%ADD64O,1.35001X1.099998*%
%ADD65R,1.6000X1.6000*%
%ADD66C,5.0000*%
%ADD67C,0.6200*%

%LPD*%
D10*
X2899994Y2576474D02*
G01*
X1074978Y2576474D01*
X798499Y2299995D01*
D11*
X3776472Y4632502D02*
G01*
X3867480Y4632502D01*
X3899992Y4599990D01*
X3899992Y4399991D01*
X3529982Y4399991D01*
X3299993Y4170001D01*
D12*
X3780002Y2175002D02*
G01*
X2799994Y2175002D01*
X2601132Y2373863D01*
X2601132Y2576474D01*
D11*
X2999993Y3599992D02*
G01*
X2698244Y3599992D01*
X2606662Y3691575D01*
X2606662Y4034447D01*
X2321306Y4319803D01*
D10*
X3219805Y4319803D02*
G01*
X2321306Y4319803D01*
X801496Y2799994D01*
X3623513Y4599990D02*
G01*
X3499993Y4599990D01*
X3219805Y4319803D01*
X2699994Y4999989D02*
G01*
X2498496Y4999989D01*
X798499Y3299993D01*
X3623513Y5499988D02*
G01*
X3123514Y4999989D01*
X2699994Y4999989D01*
D11*
X3099993Y4999989D02*
G01*
X3599992Y4999989D01*
X3999991Y4599990D01*
X3999991Y4299991D01*
X3619995Y4299991D01*
X3454994Y4134990D01*
X3454994Y2809994D01*
X3689987Y2575001D01*
X3780002Y2575001D01*
X4074998Y2819984D02*
G01*
X4074998Y2924987D01*
X3899992Y3099993D01*
X4024983Y2819981D02*
G01*
X4024983Y2905000D01*
X3949997Y2979991D01*
X3794993Y2979991D01*
X3699992Y2884990D01*
X3699992Y2839999D01*
X3776472Y5402579D02*
G01*
X3899915Y5400039D01*
X3776472Y5467350D02*
G01*
X3899915Y5466842D01*
X3776472Y5532501D02*
G01*
X3867480Y5532501D01*
X3899992Y5499988D01*
X3899992Y5099989D01*
X4099991Y4899990D01*
X4599990Y4899990D01*
X4669993Y4969992D01*
X4669993Y5099989D01*
X4669993Y5099989D02*
G01*
X4906619Y5336616D01*
X4906619Y5499988D01*
X4529988Y5099989D02*
G01*
X4293361Y5336616D01*
X4293361Y5499988D01*
X3276472Y5402503D02*
G01*
X3526027Y5402503D01*
X3623513Y5499988D01*
X3276472Y5467502D02*
G01*
X3591026Y5467502D01*
X3623513Y5499988D01*
X3276472Y5532501D02*
G01*
X3591001Y5532501D01*
X3623513Y5499988D01*
X3975000Y2819981D02*
G01*
X3975000Y2904987D01*
X3939989Y2939994D01*
X3849999Y2939994D01*
X3785006Y2875000D01*
X3776472Y4697476D02*
G01*
X3852418Y4697476D01*
X3940047Y4610100D01*
X3940047Y4359910D01*
X3539997Y4359910D01*
X3400043Y4219955D01*
X3400043Y3919981D01*
X3150108Y3670045D01*
X3150108Y2899918D01*
X3276472Y4502505D02*
G01*
X3526027Y4502505D01*
X3623513Y4599990D01*
X3276472Y4567478D02*
G01*
X3591001Y4567478D01*
X3623513Y4599990D01*
X3276472Y4632502D02*
G01*
X3591001Y4632502D01*
X3623513Y4599990D01*
X3776472Y4502505D02*
G01*
X3899992Y4502505D01*
X3776472Y4567504D02*
G01*
X3899992Y4567504D01*
D13*
X5587969Y2807975D02*
G01*
X5239989Y2459995D01*
X4749990Y2459995D01*
X4734984Y2475001D01*
X4619980Y2475001D01*
D11*
X2899991Y4006621D02*
G01*
X3136620Y4006621D01*
X3299993Y4169994D01*
X3129991Y2089988D02*
G01*
X3174997Y2134994D01*
X3649997Y2134994D01*
X3659992Y2124986D01*
X3779997Y2124986D01*
X4375000Y1980003D02*
G01*
X4375000Y1864989D01*
X4390006Y1849983D01*
X4715484Y1849983D01*
X6389415Y3554580D02*
G01*
X6434828Y3599992D01*
X6599986Y3599992D01*
X4224985Y2819984D02*
G01*
X4224985Y3175000D01*
X4199991Y3199993D01*
X4275076Y2819907D02*
G01*
X4275076Y3325111D01*
X4240027Y3359912D01*
X4240027Y3439919D01*
X4395094Y3594988D01*
X4509998Y3594988D01*
X4324982Y2819981D02*
G01*
X4324982Y3375002D01*
X4299991Y3399993D01*
X5469122Y3413175D02*
G01*
X5357312Y3524986D01*
X4959984Y3524986D01*
D13*
X6276342Y3667757D02*
G01*
X6388587Y3780002D01*
X6439992Y3780002D01*
X6099987Y1899996D02*
G01*
X6269987Y1729996D01*
X6449987Y1729996D01*
X6545986Y1633997D01*
X6545986Y1576908D01*
X6199886Y1899920D02*
G01*
X6329809Y1769996D01*
X6559986Y1769996D01*
X6672986Y1656996D01*
X6672986Y1576908D01*
X6299961Y1899920D02*
G01*
X6389877Y1810004D01*
X6670040Y1810004D01*
X6800088Y1679955D01*
X6800088Y1576831D01*
X6400038Y1899920D02*
G01*
X6450075Y1849881D01*
X6809993Y1849881D01*
X6927088Y1733042D01*
X6927088Y1576831D01*
D11*
X7054088Y1576831D02*
G01*
X7054088Y1745995D01*
X6910070Y1890013D01*
X6549897Y1890013D01*
X6359906Y2080005D01*
X6359906Y2352547D01*
X6078220Y2634234D01*
X5384266Y3328286D02*
G01*
X5357568Y3354984D01*
X5269991Y3354984D01*
X5412557Y3356582D02*
G01*
X5349156Y3419982D01*
X5189981Y3419982D01*
D13*
X5666993Y2888742D02*
G01*
X5611875Y2832100D01*
D12*
X4399991Y3045485D02*
G01*
X4369991Y3015485D01*
X4369991Y2899994D01*
X4374997Y2894987D01*
X4374997Y2819984D01*
D13*
X4479991Y3026981D02*
G01*
X4479991Y3099993D01*
D12*
X6799986Y5524144D02*
G01*
X6754144Y5524144D01*
X6619989Y5389989D01*
X6599986Y4999989D02*
G01*
X6599986Y5199989D01*
X6619989Y5389989D02*
G01*
X6599986Y5369986D01*
X6599986Y5199989D01*
X7599984Y5524144D02*
G01*
X7529984Y5524144D01*
X6799986Y5524144D02*
G01*
X6819214Y5543372D01*
X6954977Y5543372D01*
X6954977Y5543372D02*
G01*
X6954977Y5593384D01*
X3924985Y1980006D02*
G01*
X3899484Y1954504D01*
X3799992Y1954504D01*
X3974998Y1980006D02*
G01*
X3974998Y1905000D01*
X3957320Y1887321D01*
X3957320Y1847324D01*
X3819992Y1709996D01*
X3819992Y1559999D01*
X4020058Y1887728D02*
G01*
X4009999Y1877669D01*
X4009999Y1832965D01*
X3949992Y1772958D01*
X3949992Y1519996D01*
X3939992Y1509996D01*
X3939992Y1349997D01*
X3974500Y1315488D01*
X3999991Y1315488D01*
X4024884Y1979929D02*
G01*
X4020058Y1975104D01*
X4020058Y1887728D01*
X4074922Y1979929D02*
G01*
X4074922Y1895094D01*
X4059936Y1880107D01*
X4059936Y1825244D01*
X3999991Y1765300D01*
X3999991Y1424431D01*
X4124957Y1979929D02*
G01*
X4124957Y1884934D01*
X4109976Y1869950D01*
X4109976Y1817626D01*
X4050035Y1757679D01*
X4050035Y1529938D01*
X4129989Y1449984D01*
X4225036Y1979929D02*
G01*
X4225036Y1854962D01*
X4210050Y1839976D01*
X4210050Y1741423D01*
X4169918Y1701292D01*
X4169918Y1694434D01*
X4174997Y1979929D02*
G01*
X4174997Y1875028D01*
X4160011Y1860042D01*
X4160011Y1810004D01*
X4100068Y1750060D01*
X4100068Y1599945D01*
X4114545Y1585468D01*
X4169918Y1585468D01*
X4275000Y1980003D02*
G01*
X4279986Y1975010D01*
X4279986Y1849996D01*
X4259994Y1829996D01*
X4259994Y1779996D01*
X4259986Y1779988D01*
X4259986Y1710004D01*
X2802509Y2923514D02*
G01*
X2802509Y2673957D01*
X2899991Y2576474D01*
X2867482Y2923514D02*
G01*
X2867482Y2608983D01*
X2899991Y2576474D01*
X2932506Y2923514D02*
G01*
X2932506Y2608991D01*
X2899991Y2576474D01*
D11*
X5921756Y2634234D02*
G01*
X5921756Y2631694D01*
X5370068Y2080005D01*
X5370068Y830071D01*
X5599938Y599947D01*
X6599936Y599947D01*
X6800088Y800100D01*
X6800088Y1023112D01*
D12*
X4869992Y1499996D02*
G01*
X5099989Y1499996D01*
X7999984Y5499988D02*
G01*
X7999978Y5099989D01*
X7799984Y5499988D02*
G01*
X7799979Y5099989D01*
X7599984Y5524144D02*
G01*
X7775829Y5524144D01*
X7799984Y5499988D01*
X7399985Y5429984D02*
G01*
X7554135Y5429984D01*
X7599984Y5475833D01*
X4315729Y999997D02*
G01*
X4315729Y1099997D01*
X4315729Y1099997D02*
G01*
X4669993Y1099997D01*
X4699990Y1129995D01*
X4429988Y1499996D02*
G01*
X4429988Y1314246D01*
X4324197Y1208481D01*
X4569985Y1499996D02*
G01*
X4729980Y1499996D01*
X6979996Y6099987D02*
G01*
X7049973Y6030010D01*
X7049973Y5601614D01*
X7149972Y5601614D02*
G01*
X7149972Y6029985D01*
X7219975Y6099987D01*
X7399985Y5429986D02*
G01*
X7386601Y5443369D01*
X7244989Y5443369D01*
X7244989Y5593382D02*
G01*
X7376594Y5593382D01*
X7399985Y5569991D01*
X7244994Y5593384D02*
G01*
X7244994Y5543372D01*
X6689979Y2312492D02*
G01*
X6499986Y2502484D01*
X6499986Y2721724D01*
X6332867Y2888843D01*
X9399981Y4299991D02*
G01*
X9299981Y4299991D01*
X9199981Y4199991D01*
X9199981Y3699992D01*
X9299981Y3599992D01*
X9399981Y3599992D01*
X9399981Y4499990D02*
G01*
X9499981Y4499990D01*
X9599980Y4399991D01*
X9599980Y3899992D01*
X9499981Y3799992D01*
X9399981Y3799992D01*
X5999988Y4129986D02*
G01*
X5999988Y4099991D01*
X6099987Y3999992D01*
X6099987Y3887406D01*
X6078296Y3865714D01*
X6629984Y2699994D02*
G01*
X6629984Y2704843D01*
X6389425Y2945401D01*
D11*
X5893384Y2662554D02*
G01*
X5355818Y2124989D01*
X4619980Y2124989D01*
X5865113Y2690850D02*
G01*
X5349265Y2175002D01*
X4619980Y2175002D01*
X5808522Y2747416D02*
G01*
X5336108Y2275001D01*
X4619980Y2275001D01*
X5751982Y2803982D02*
G01*
X5272989Y2324988D01*
X4619980Y2324988D01*
X5723686Y2832277D02*
G01*
X5266410Y2375001D01*
X4619980Y2375001D01*
X5695391Y2860547D02*
G01*
X5259831Y2424988D01*
X4619980Y2424988D01*
X5638850Y2917113D02*
G01*
X5421731Y2699994D01*
X5299989Y2699994D01*
X5610555Y2945409D02*
G01*
X5497240Y2832094D01*
X4991089Y2832094D01*
X4734001Y2575001D01*
X4645913Y2575001D01*
X4619980Y2524988D02*
G01*
X4799990Y2524988D01*
X6191453Y3752570D02*
G01*
X6418874Y3979992D01*
X6819986Y3979992D01*
X8299983Y2499995D01*
X9399981Y2499995D01*
X6163157Y3780840D02*
G01*
X6402308Y4019991D01*
X6829986Y4019991D01*
X8149983Y2699994D01*
X9399981Y2699994D01*
X6134861Y3809136D02*
G01*
X6385717Y4059991D01*
X6839986Y4059991D01*
X7999984Y2899994D01*
X9399981Y2899994D01*
X6106591Y3837431D02*
G01*
X6199987Y3930827D01*
X6199987Y3999992D01*
X6219723Y3724300D02*
G01*
X6435415Y3939992D01*
X6809986Y3939992D01*
X8449983Y2299995D01*
X9399981Y2299995D01*
X7053986Y1023086D02*
G01*
X7053986Y945997D01*
X7249998Y749985D01*
X7249998Y499998D01*
X6926986Y1023086D02*
G01*
X6926986Y799998D01*
X6949998Y776986D01*
X6949998Y499998D01*
X5836818Y2719146D02*
G01*
X5342661Y2224989D01*
X4619980Y2224989D01*
D12*
X6418986Y1023086D02*
G01*
X6418986Y699998D01*
X8277225Y1009495D02*
G01*
X8390483Y1009495D01*
X8499983Y899995D01*
X8499983Y699998D01*
X8277225Y1390495D02*
G01*
X8509482Y1390495D01*
X8599982Y1299994D01*
X8599982Y899998D01*
X7722743Y1136497D02*
G01*
X7563484Y1136497D01*
X7499984Y1199997D01*
X7499984Y2999994D01*
X6800088Y5475731D02*
G01*
X6875779Y5475731D01*
X6893306Y5493512D01*
X6955027Y5493512D01*
D11*
X9474987Y5286476D02*
G01*
X9474987Y5374995D01*
X9474982Y5399989D01*
X8875318Y5299989D02*
G01*
X8899982Y5299989D01*
X9099981Y5499988D01*
X9374982Y5499988D01*
X9474982Y5399989D01*
X9524974Y5113502D02*
G01*
X9524974Y4989995D01*
X9539980Y4974988D01*
X9474987Y5113502D02*
G01*
X9474987Y4974996D01*
X9399981Y4899990D01*
X9075318Y4899990D01*
X8875318Y5099989D01*
X9524974Y5286476D02*
G01*
X9524974Y5224983D01*
X9474987Y5174995D01*
X9474987Y5113502D01*
X4084243Y999997D02*
G01*
X4069994Y985748D01*
X4069994Y799998D01*
X5553963Y3002026D02*
G01*
X5553963Y2998978D01*
X5465063Y2910078D01*
X5225034Y2910078D01*
X5199888Y2934970D01*
X3780027Y2674873D02*
G01*
X3739895Y2674873D01*
X3599941Y2815081D01*
X3599941Y2999994D01*
X3780027Y2625089D02*
G01*
X3700018Y2625089D01*
X3499865Y2825242D01*
X3499865Y4100068D01*
X3640074Y4240021D01*
X4340097Y4240021D01*
X4599940Y4500118D01*
X4599940Y4899913D01*
X3780027Y2525013D02*
G01*
X3679952Y2525013D01*
X3359911Y2845054D01*
X3359911Y2999994D01*
X3274999Y3104997D02*
G01*
X3274999Y2869989D01*
X3670015Y2474973D01*
X3780022Y2474973D01*
X3499967Y2465014D02*
G01*
X3590036Y2374900D01*
X3780027Y2374900D01*
X2899918Y4006595D02*
G01*
X3109975Y3796537D01*
X3109975Y2960115D01*
X3085084Y2934970D01*
X3085084Y2880105D01*
X3499967Y2465014D01*
D12*
X3779997Y2324986D02*
G01*
X3555011Y2324986D01*
X3410000Y2469997D01*
X4430013Y1499870D02*
G01*
X4299965Y1499870D01*
X4084320Y1284223D01*
X4084320Y1199895D01*
D11*
X7074966Y5398363D02*
G01*
X7074966Y5299969D01*
X7044987Y5269989D01*
D13*
X4480001Y2992983D02*
G01*
X4509990Y2962993D01*
X4509990Y2899994D01*
X4474997Y2865000D01*
X4474997Y2819984D01*
D11*
X5525693Y3030270D02*
G01*
X5495416Y2999994D01*
X5099989Y2999994D01*
X5054991Y2949994D01*
X4729990Y2624993D01*
X4619980Y2624988D01*
D13*
X7124979Y5398363D02*
G01*
X7124979Y5220487D01*
X7145477Y5199989D01*
X5440832Y3384880D02*
G01*
X5340720Y3484991D01*
X5064988Y3484991D01*
X5039989Y3459993D01*
D12*
X5893308Y3837431D02*
G01*
X5815075Y3914902D01*
D11*
X3780022Y2424937D02*
G01*
X3620008Y2424937D01*
X3215004Y2829940D01*
X3215004Y3189986D01*
D12*
X4534992Y1969996D02*
G01*
X4524982Y1980006D01*
X4474997Y1980006D01*
X7024877Y5398262D02*
G01*
X7024877Y5364987D01*
X6960108Y5299963D01*
X6869938Y5299963D01*
X6800088Y5370068D01*
X6800088Y5475731D01*
D13*
X4124985Y2819984D02*
G01*
X4124985Y2925000D01*
X4044993Y3004992D01*
X4044993Y4084093D01*
X4200921Y4240021D01*
X4174997Y2819984D02*
G01*
X4174997Y3024987D01*
X4139991Y3059993D01*
D11*
X9399981Y1299971D02*
G01*
X6799961Y3899992D01*
X6451981Y3899992D01*
X6247993Y3696004D01*
D13*
X7244994Y5493359D02*
G01*
X7119985Y5493359D01*
X7099985Y5513359D01*
X7099985Y5581624D01*
X7174991Y5398363D02*
G01*
X7254493Y5318861D01*
X7254493Y5199989D01*
X6954977Y5443397D02*
G01*
X6983399Y5443397D01*
X6997954Y5457952D01*
X7082950Y5457952D01*
X7099985Y5474987D01*
X7099985Y5581624D01*
X7174991Y5398363D02*
G01*
X7174991Y5438353D01*
X7119985Y5493359D01*
X5582259Y2973679D02*
G01*
X5483572Y2874992D01*
X5149989Y2874992D01*
X5124991Y2874992D01*
X5099989Y2899994D01*
X4619980Y2675001D02*
G01*
X4724996Y2675001D01*
X4949990Y2899994D01*
X4999990Y2949994D01*
X4999990Y2999994D01*
X4474997Y2819984D02*
G01*
X4739980Y2819984D01*
X5169989Y3249993D01*
X5688876Y3249993D01*
X6191453Y2747416D01*
X4324984Y1980006D02*
G01*
X4324984Y1820494D01*
X4445482Y1699996D01*
X6399987Y5199989D02*
G01*
X6399987Y4999989D01*
X6479997Y5389981D02*
G01*
X6399987Y5309971D01*
X6399987Y5199989D01*
X4434992Y2939994D02*
G01*
X4424984Y2929986D01*
X4424984Y2819984D01*
X3925061Y2819907D02*
G01*
X3849877Y2819907D01*
X3780027Y2275078D02*
G01*
X3525011Y2275078D01*
X3499865Y2299970D01*
X3055111Y2299970D01*
X2997454Y2357373D01*
X2997454Y2423413D01*
D12*
X3780002Y2224989D02*
G01*
X3399993Y2224989D01*
X3384986Y2239995D01*
X3164994Y2239995D01*
X2932480Y2423515D02*
G01*
X2932480Y2367508D01*
X3059993Y2239995D01*
X3164994Y2239995D01*
X2867507Y2423515D02*
G01*
X2867507Y2372481D01*
X2999993Y2239995D01*
X3164994Y2239995D01*
X2802509Y2423515D02*
G01*
X2802509Y2377480D01*
X2939994Y2239995D01*
X3164994Y2239995D01*
D11*
X6304584Y3639438D02*
G01*
X6375138Y3709992D01*
X6494988Y3709992D01*
X6332981Y3611118D02*
G01*
X6371843Y3649979D01*
X6530086Y3649979D01*
X6629908Y3750055D01*
X6750558Y3749547D01*
D12*
X5399989Y3929987D02*
G01*
X5404840Y3929987D01*
X5695396Y3639431D01*
D11*
X5723686Y3667709D02*
G01*
X5629419Y3761976D01*
X5572851Y3761976D01*
X6199987Y3999992D02*
G01*
X6099987Y3999992D01*
D12*
X6099987Y3999992D02*
G01*
X5663303Y3999992D01*
X5499069Y3835758D01*
D11*
X5836818Y3780840D02*
G01*
X5757666Y3859992D01*
X5754989Y3859992D01*
X5714989Y3929992D02*
G01*
X5694989Y3909992D01*
X5694989Y3809563D01*
X5780252Y3724300D01*
X5751982Y3696004D02*
G01*
X5614990Y3832997D01*
X5614990Y3859992D01*
X5921679Y3865727D02*
G01*
X5873950Y3913456D01*
X5873950Y3999992D01*
X6106668Y2662428D02*
G01*
X6400038Y2369057D01*
X6400038Y2100071D01*
X6570218Y1929892D01*
X6930136Y1929892D01*
X7181088Y1678939D01*
X7181088Y1576831D01*
X6134861Y2690876D02*
G01*
X6439915Y2385821D01*
X6439915Y2115057D01*
X6589775Y1965197D01*
X6949693Y1965197D01*
X7459979Y1454912D01*
X7459979Y1180084D01*
X7630413Y1009395D01*
X7722615Y1009395D01*
D12*
X4084241Y1099995D02*
G01*
X4084238Y1099997D01*
X3949979Y1099997D01*
X4084243Y1049985D02*
G01*
X4019979Y1049985D01*
X3949992Y979998D01*
X3599992Y980008D01*
X3599992Y1219987D02*
G01*
X3949992Y1219997D01*
X4020004Y1149985D01*
X4084243Y1149985D01*
X4499990Y1199997D02*
G01*
X4449978Y1149985D01*
X4315739Y1149985D01*
D14*
G01*
X4824496Y1849996D03*
G01*
X4715484Y1849996D03*
G01*
X4554496Y1699996D03*
G01*
X4445485Y1699996D03*
D15*
G01*
X3799992Y1954502D03*
D16*
G01*
X3799992Y1845487D03*
D15*
G01*
X4169991Y1585490D03*
D16*
G01*
X4169994Y1694510D03*
D15*
G01*
X3999992Y1315491D03*
D16*
G01*
X3999991Y1424508D03*
D15*
G01*
X4399991Y3154499D03*
D16*
G01*
X4399991Y3045485D03*
D18*
G01*
X3819982Y1559991D03*
G01*
X3819982Y1419987D03*
D19*
G01*
X4069994Y799998D03*
G01*
X3929989Y799998D03*
D18*
G01*
X4699990Y1129995D03*
G01*
X4699990Y1270000D03*
D19*
G01*
X4429988Y1499996D03*
G01*
X4569993Y1499996D03*
G01*
X4729988Y1499996D03*
G01*
X4869992Y1499996D03*
G01*
X6619976Y5389981D03*
G01*
X6479997Y5389981D03*
D18*
G01*
X7399985Y5429986D03*
G01*
X7399985Y5569991D03*
D20*
G01*
X4799990Y3099991D03*
D21*
G01*
X4799990Y3299993D03*
D22*
G01*
X7999986Y5099989D03*
G01*
X7799981Y5099989D03*
G01*
X7999986Y5299989D03*
G01*
X7799981Y5299989D03*
G01*
X7999986Y5499989D03*
G01*
X7799981Y5499989D03*
G01*
X5299991Y2699994D03*
G01*
X5099987Y2699994D03*
G01*
X5199992Y3799992D03*
G01*
X4999987Y3799992D03*
G01*
X6599989Y5199989D03*
G01*
X6399984Y5199989D03*
G01*
X6599989Y4999990D03*
G01*
X6399984Y4999990D03*
D18*
G01*
X3164992Y2489987D03*
G01*
X3164992Y2629992D03*
G01*
X3299993Y4169994D03*
G01*
X3299993Y4029989D03*
D19*
G01*
X4669993Y5099989D03*
G01*
X4529988Y5099989D03*
D23*
G01*
X6750489Y3749489D03*
G01*
X6849483Y3650495D03*
D19*
G01*
X6629984Y2699994D03*
G01*
X6769988Y2699994D03*
D18*
G01*
X5999988Y4129989D03*
G01*
X5999988Y4269994D03*
G01*
X5399989Y3929989D03*
G01*
X5399989Y4069994D03*
D24*
G01*
X7145479Y5199989D03*
G01*
X7254491Y5199989D03*
D25*
G01*
X7219975Y6099987D03*
G01*
X6979996Y6099987D03*
D26*
G01*
X3599992Y1219987D03*
G01*
X3599992Y980008D03*
D27*
G01*
X2899994Y3143603D03*
D28*
G01*
X2802509Y2923514D03*
G01*
X2867507Y2923514D03*
G01*
X2932480Y2923514D03*
G01*
X2997504Y2923514D03*
D27*
G01*
X2899994Y2643604D03*
D28*
G01*
X2802509Y2423515D03*
G01*
X2867507Y2423515D03*
G01*
X2932480Y2423515D03*
G01*
X2997504Y2423515D03*
D29*
G01*
X3056384Y4599990D03*
D30*
G01*
X3276472Y4502480D03*
G01*
X3276472Y4567478D03*
G01*
X3276472Y4632477D03*
G01*
X3276472Y4697476D03*
D29*
G01*
X3556383Y4599990D03*
D30*
G01*
X3776472Y4502480D03*
G01*
X3776472Y4567478D03*
G01*
X3776472Y4632477D03*
G01*
X3776472Y4697476D03*
D29*
G01*
X3556383Y5499989D03*
D30*
G01*
X3776472Y5402478D03*
G01*
X3776472Y5467477D03*
G01*
X3776472Y5532475D03*
G01*
X3776472Y5597474D03*
D29*
G01*
X3056384Y5499989D03*
D30*
G01*
X3276472Y5402478D03*
G01*
X3276472Y5467477D03*
G01*
X3276472Y5532475D03*
G01*
X3276472Y5597474D03*
D31*
G01*
X3399993Y1413370D03*
D32*
G01*
X3399993Y2026615D03*
D31*
G01*
X2899994Y4006618D03*
D32*
G01*
X2899994Y3393363D03*
D33*
G01*
X4906617Y5499989D03*
G01*
X4293364Y5499989D03*
D34*
G01*
X3093366Y599998D03*
G01*
X3706619Y599998D03*
D35*
G01*
X5587966Y2807973D03*
D36*
G01*
X5612010Y2832014D03*
D37*
G01*
X4480001Y2992983D03*
G01*
X4480001Y3026994D03*
D38*
G01*
X6799986Y5475833D03*
D39*
G01*
X6799986Y5524144D03*
D38*
G01*
X7599984Y5475833D03*
D39*
G01*
X7599984Y5524144D03*
D40*
G01*
X5384265Y3171685D03*
D41*
G01*
X5412553Y3143397D03*
G01*
X5440841Y3115109D03*
G01*
X5469129Y3086821D03*
D40*
G01*
X5497417Y3058534D03*
G01*
X5525687Y3030264D03*
G01*
X5553975Y3001976D03*
D42*
G01*
X5582262Y2973689D03*
G01*
X5610550Y2945401D03*
G01*
X5638838Y2917113D03*
D40*
G01*
X5667107Y2888843D03*
G01*
X5695395Y2860555D03*
G01*
X5723682Y2832267D03*
D41*
G01*
X5751970Y2803979D03*
G01*
X5780258Y2775691D03*
D40*
G01*
X5808529Y2747422D03*
G01*
X5836817Y2719134D03*
G01*
X5865105Y2690846D03*
G01*
X5893393Y2662558D03*
G01*
X5921681Y2634272D03*
D43*
G01*
X6078296Y2634270D03*
D44*
G01*
X6106584Y2662558D03*
G01*
X6134872Y2690846D03*
G01*
X6163160Y2719134D03*
D43*
G01*
X6191448Y2747422D03*
D45*
G01*
X6219718Y2775690D03*
D43*
G01*
X6248005Y2803978D03*
G01*
X6276293Y2832266D03*
G01*
X6304580Y2860554D03*
G01*
X6332868Y2888842D03*
G01*
X6361139Y2917112D03*
G01*
X6389427Y2945400D03*
G01*
X6417715Y2973688D03*
G01*
X6446001Y3001976D03*
D44*
G01*
X6474289Y3030264D03*
D43*
G01*
X6502560Y3058534D03*
D45*
G01*
X6530847Y3086820D03*
G01*
X6559135Y3115108D03*
G01*
X6587423Y3143396D03*
D43*
G01*
X6615710Y3171684D03*
D42*
G01*
X6615710Y3328302D03*
D40*
G01*
X6587423Y3356590D03*
G01*
X6559135Y3384878D03*
G01*
X6530847Y3413166D03*
D41*
G01*
X6502560Y3441452D03*
D40*
G01*
X6474289Y3469722D03*
G01*
X6446001Y3498010D03*
G01*
X6417715Y3526298D03*
G01*
X6389427Y3554586D03*
G01*
X6361139Y3582874D03*
G01*
X6332868Y3611144D03*
G01*
X6304580Y3639432D03*
G01*
X6276293Y3667720D03*
D42*
G01*
X6248005Y3696008D03*
D40*
G01*
X6219718Y3724296D03*
D41*
G01*
X6191448Y3752564D03*
D40*
G01*
X6163160Y3780852D03*
G01*
X6134872Y3809140D03*
G01*
X6106584Y3837428D03*
G01*
X6078296Y3865716D03*
D45*
G01*
X5921681Y3865714D03*
G01*
X5893393Y3837428D03*
G01*
X5865105Y3809140D03*
G01*
X5836817Y3780852D03*
D43*
G01*
X5808529Y3752564D03*
D44*
G01*
X5780258Y3724295D03*
G01*
X5751970Y3696007D03*
D43*
G01*
X5723682Y3667719D03*
G01*
X5695395Y3639431D03*
G01*
X5667107Y3611143D03*
G01*
X5638838Y3582873D03*
G01*
X5610550Y3554585D03*
G01*
X5582262Y3526297D03*
D45*
G01*
X5553975Y3498010D03*
G01*
X5525687Y3469722D03*
D43*
G01*
X5497417Y3441452D03*
D44*
G01*
X5469129Y3413165D03*
G01*
X5440841Y3384877D03*
G01*
X5412553Y3356589D03*
G01*
X5384265Y3328301D03*
D46*
G01*
X5999987Y3249993D03*
D47*
G01*
X4084243Y1199997D03*
G01*
X4084243Y1149985D03*
G01*
X4084243Y1099997D03*
G01*
X4084243Y1049985D03*
G01*
X4084243Y999997D03*
G01*
X4315739Y1199997D03*
G01*
X4315739Y1149985D03*
G01*
X4315739Y1099997D03*
G01*
X4315739Y1049985D03*
G01*
X4315739Y999997D03*
D48*
G01*
X4199991Y1099997D03*
D49*
G01*
X9774986Y5113502D03*
G01*
X9224975Y5286476D03*
G01*
X9624974Y5113502D03*
G01*
X9574987Y5113502D03*
G01*
X9524974Y5113502D03*
G01*
X9474987Y5113502D03*
G01*
X9424974Y5113502D03*
G01*
X9374987Y5113502D03*
G01*
X9224975Y5113502D03*
G01*
X9374987Y5286476D03*
G01*
X9424974Y5286476D03*
G01*
X9474987Y5286476D03*
G01*
X9524974Y5286476D03*
G01*
X9574987Y5286476D03*
G01*
X9624974Y5286476D03*
G01*
X9774986Y5286476D03*
D50*
G01*
X8277225Y1009497D03*
G01*
X8277225Y1136497D03*
G01*
X8277225Y1263497D03*
G01*
X8277225Y1390497D03*
G01*
X7722743Y1009497D03*
G01*
X7722743Y1136497D03*
G01*
X7722743Y1263497D03*
G01*
X7722743Y1390497D03*
D51*
G01*
X6418986Y1023086D03*
G01*
X6545986Y1023086D03*
G01*
X6672986Y1023086D03*
G01*
X6799986Y1023086D03*
G01*
X6926986Y1023086D03*
G01*
X7053986Y1023086D03*
G01*
X7180986Y1023086D03*
G01*
X6418986Y1576908D03*
G01*
X6545986Y1576908D03*
G01*
X6672986Y1576908D03*
G01*
X6799986Y1576908D03*
G01*
X6926986Y1576908D03*
G01*
X7053986Y1576908D03*
G01*
X7180986Y1576908D03*
D52*
G01*
X4199991Y2399995D03*
D53*
G01*
X4474997Y1980006D03*
G01*
X4424984Y1980006D03*
G01*
X4374997Y1980006D03*
G01*
X4324984Y1980006D03*
G01*
X4274997Y1980006D03*
G01*
X4224985Y1980006D03*
G01*
X4174997Y1980006D03*
G01*
X4124985Y1980006D03*
G01*
X4074998Y1980006D03*
G01*
X4024985Y1980006D03*
G01*
X3974998Y1980006D03*
G01*
X3924985Y1980006D03*
D54*
G01*
X3780002Y2124989D03*
G01*
X3780002Y2175002D03*
G01*
X3780002Y2224989D03*
G01*
X3780002Y2275001D03*
G01*
X3780002Y2324988D03*
G01*
X3780002Y2375001D03*
G01*
X3780002Y2424988D03*
G01*
X3780002Y2475001D03*
G01*
X3780002Y2524988D03*
G01*
X3780002Y2575001D03*
G01*
X3780002Y2624988D03*
G01*
X3780002Y2675001D03*
D53*
G01*
X3924985Y2819984D03*
G01*
X3974998Y2819984D03*
G01*
X4024985Y2819984D03*
G01*
X4074998Y2819984D03*
G01*
X4124985Y2819984D03*
G01*
X4174997Y2819984D03*
G01*
X4224985Y2819984D03*
G01*
X4274997Y2819984D03*
G01*
X4324984Y2819984D03*
G01*
X4374997Y2819984D03*
G01*
X4424984Y2819984D03*
G01*
X4474997Y2819984D03*
D54*
G01*
X4619980Y2675001D03*
G01*
X4619980Y2624988D03*
G01*
X4619980Y2575001D03*
G01*
X4619980Y2524988D03*
G01*
X4619980Y2475001D03*
G01*
X4619980Y2424988D03*
G01*
X4619980Y2375001D03*
G01*
X4619980Y2324988D03*
G01*
X4619980Y2275001D03*
G01*
X4619980Y2224989D03*
G01*
X4619980Y2175002D03*
G01*
X4619980Y2124989D03*
D55*
G01*
X6954977Y5443397D03*
G01*
X6954977Y5493410D03*
G01*
X6954977Y5543372D03*
G01*
X6954977Y5593384D03*
D56*
G01*
X7049973Y5601614D03*
D57*
G01*
X7099985Y5581624D03*
D56*
G01*
X7149972Y5601614D03*
D55*
G01*
X7244994Y5593384D03*
G01*
X7244994Y5543372D03*
G01*
X7244994Y5493359D03*
G01*
X7244994Y5443372D03*
D58*
G01*
X7174991Y5398363D03*
G01*
X7124979Y5398363D03*
G01*
X7074966Y5398363D03*
G01*
X7024979Y5398363D03*
D59*
G01*
X7249998Y499998D03*
G01*
X7100011Y499998D03*
G01*
X6949998Y499998D03*
D60*
G01*
X8875307Y5299989D03*
G01*
X8724657Y5299989D03*
G01*
X8875307Y5099989D03*
G01*
X8724657Y5099989D03*
D61*
G01*
X6909993Y2487472D03*
G01*
X6689979Y2487472D03*
G01*
X6689979Y2312466D03*
G01*
X6909993Y2312492D03*
D62*
G01*
X798499Y1299997D03*
G01*
X798499Y1799869D03*
G01*
X798499Y2299995D03*
G01*
X801496Y2799994D03*
G01*
X798499Y3299993D03*
D63*
G01*
X9399981Y2299995D03*
G01*
X9399981Y2099995D03*
G01*
X9399981Y2499995D03*
G01*
X9399981Y2699994D03*
G01*
X9399981Y2899994D03*
G01*
X9399981Y3099993D03*
G01*
X9399981Y1299971D03*
G01*
X9399981Y1099972D03*
G01*
X9399981Y1499971D03*
D64*
G01*
X9739985Y4985004D03*
G01*
X9259976Y4985004D03*
G01*
X9259976Y5415000D03*
G01*
X9739985Y5415000D03*
D65*
G01*
X9399981Y4499990D03*
D63*
G01*
X9399981Y4299991D03*
D65*
G01*
X9399981Y3799992D03*
D63*
G01*
X9399981Y3599992D03*
D66*
G01*
X499998Y499998D03*
G01*
X499998Y5999987D03*
G01*
X9499981Y5999987D03*
G01*
X9499981Y499998D03*
D67*
G01*
X5999988Y3249980D03*
G01*
X6769988Y2699994D03*
G01*
X5999988Y4269994D03*
G01*
X5399989Y4069994D03*
G01*
X5199989Y3799992D03*
G01*
X5814999Y3914978D03*
G01*
X6689979Y2487498D03*
G01*
X3929989Y799998D03*
G01*
X4069994Y799998D03*
G01*
X6909993Y2312492D03*
G01*
X7999984Y5499988D03*
G01*
X6926986Y1576908D03*
G01*
X4799990Y2524988D03*
G01*
X6418986Y1576908D03*
G01*
X4534992Y1969998D03*
G01*
X7180986Y1023086D03*
G01*
X6199987Y3999992D03*
G01*
X5099989Y1499996D03*
G01*
X7099985Y499998D03*
G01*
X8277225Y1263497D03*
G01*
X6418986Y699998D03*
G01*
X8277225Y1136497D03*
G01*
X8499983Y699998D03*
G01*
X8599982Y899998D03*
G01*
X6545986Y1023086D03*
G01*
X7722743Y1263497D03*
G01*
X7499984Y2999994D03*
G01*
X4445482Y1699996D03*
G01*
X4554499Y1699996D03*
G01*
X2997504Y2923514D03*
G01*
X4199991Y2399995D03*
G01*
X2899994Y3076473D03*
G01*
X3410000Y2469997D03*
G01*
X4259986Y1710004D03*
G01*
X3706622Y599998D03*
G01*
X3093364Y599998D03*
G01*
X4129989Y1449984D03*
G01*
X3799992Y1845487D03*
G01*
X3399993Y1423365D03*
G01*
X7044994Y5269992D03*
G01*
X7529982Y5524144D03*
G01*
X6479997Y5389981D03*
G01*
X6479997Y5389981D03*
G01*
X4480001Y3099993D03*
G01*
X4399991Y3154502D03*
G01*
X5269991Y3354984D03*
G01*
X5039995Y3459987D03*
G01*
X4959984Y3524986D03*
G01*
X5189981Y3419982D03*
G01*
X6399987Y1899996D03*
G01*
X6299961Y1899920D03*
G01*
X6199886Y1899920D03*
G01*
X6099987Y1899996D03*
G01*
X6439992Y3780002D03*
G01*
X6494983Y3710000D03*
G01*
X4299991Y3399993D03*
G01*
X4509998Y3594988D03*
G01*
X4199991Y3199993D03*
G01*
X6599986Y3599992D03*
G01*
X4824501Y1849983D03*
G01*
X3129991Y2089988D03*
G01*
X3164992Y2629992D03*
G01*
X2899994Y3399993D03*
G01*
X3299993Y4029989D03*
G01*
X3150108Y2899918D03*
G01*
X2999993Y3599992D03*
G01*
X3215004Y3189986D03*
G01*
X3276472Y4697501D03*
G01*
X3274999Y3104997D03*
G01*
X3785006Y2875000D03*
G01*
X3123514Y4599990D03*
G01*
X3276472Y5597474D03*
G01*
X3359988Y2999994D03*
G01*
X3699992Y2839999D03*
G01*
X4293361Y5499988D03*
G01*
X3899992Y3099993D03*
G01*
X3776472Y5597499D03*
G01*
X3599992Y2999994D03*
G01*
X4799990Y3299993D03*
G01*
X4799990Y3099993D03*
G01*
X6399987Y4999989D03*
G01*
X6599986Y4999989D03*
G01*
X9539986Y4974996D03*
G01*
X9474987Y5399989D03*
G01*
X5199888Y2934970D03*
G01*
X3499967Y2465019D03*
G01*
X3819982Y1419987D03*
G01*
X6849490Y3650487D03*
G01*
X6750481Y3749497D03*
G01*
X5099989Y2699994D03*
G01*
X4999990Y3799992D03*
G01*
X7254493Y5199989D03*
G01*
X4139996Y3059988D03*
G01*
X5099989Y2899994D03*
G01*
X4999990Y2999994D03*
G01*
X3164992Y2489987D03*
G01*
X4434992Y2939999D03*
G01*
X3399993Y2026615D03*
G01*
X3849877Y2819907D03*
G01*
X3164992Y2240000D03*
G01*
X5754979Y3859987D03*
G01*
X5715000Y3929989D03*
G01*
X5615000Y3859987D03*
G01*
X8724645Y5099989D03*
G01*
X8724645Y5299989D03*
G01*
X3123514Y5499988D03*
G01*
X4699990Y1270000D03*
G01*
X3949979Y1099997D03*
G01*
X4499990Y1199997D03*
M02*
