G04 Layer: TopSilkscreenLayer*
G04 EasyEDA v6.5.51, 2025-11-04 20:26:23*
G04 623bb76df6fb496f828c8c95ac90ab9a,07aaf3ec58ed4e568cacc845e37e2e79,10*
G04 Gerber Generator version 0.2*
G04 Scale: 100 percent, Rotated: No, Reflected: No *
G04 Dimensions in millimeters *
G04 leading zeros omitted , absolute positions ,4 integer and 5 decimal *
%FSLAX45Y45*%
%MOMM*%

%ADD10C,0.1524*%
%ADD11C,0.2540*%
%ADD12C,0.1500*%
%ADD13C,0.1520*%
%ADD14C,0.0800*%
%ADD15C,0.2000*%
%ADD16C,0.3000*%
%ADD17C,0.0170*%

%LPD*%
D10*
X150291Y2361463D02*
G01*
X139877Y2356129D01*
X129463Y2345715D01*
X124383Y2335555D01*
X124383Y2314727D01*
X129463Y2304313D01*
X139877Y2293899D01*
X150291Y2288565D01*
X166039Y2283485D01*
X191947Y2283485D01*
X207441Y2288565D01*
X217855Y2293899D01*
X228269Y2304313D01*
X233349Y2314727D01*
X233349Y2335555D01*
X228269Y2345715D01*
X217855Y2356129D01*
X207441Y2361463D01*
X124383Y2395753D02*
G01*
X233349Y2395753D01*
X124383Y2395753D02*
G01*
X233349Y2468397D01*
X124383Y2468397D02*
G01*
X233349Y2468397D01*
X124383Y2554757D02*
G01*
X197027Y2502687D01*
X197027Y2580665D01*
X124383Y2554757D02*
G01*
X233349Y2554757D01*
X4847968Y2015604D02*
G01*
X4842634Y2026018D01*
X4832220Y2036432D01*
X4822060Y2041512D01*
X4801232Y2041512D01*
X4790818Y2036432D01*
X4780404Y2026018D01*
X4775070Y2015604D01*
X4769990Y1999856D01*
X4769990Y1973948D01*
X4775070Y1958454D01*
X4780404Y1948040D01*
X4790818Y1937626D01*
X4801232Y1932546D01*
X4822060Y1932546D01*
X4832220Y1937626D01*
X4842634Y1948040D01*
X4847968Y1958454D01*
X4882258Y2020684D02*
G01*
X4892672Y2026018D01*
X4908166Y2041512D01*
X4908166Y1932546D01*
X4487969Y1849404D02*
G01*
X4482635Y1859818D01*
X4472221Y1870232D01*
X4462061Y1875312D01*
X4441233Y1875312D01*
X4430819Y1870232D01*
X4420405Y1859818D01*
X4415071Y1849404D01*
X4409991Y1833656D01*
X4409991Y1807748D01*
X4415071Y1792254D01*
X4420405Y1781840D01*
X4430819Y1771426D01*
X4441233Y1766346D01*
X4462061Y1766346D01*
X4472221Y1771426D01*
X4482635Y1781840D01*
X4487969Y1792254D01*
X4527339Y1849404D02*
G01*
X4527339Y1854484D01*
X4532673Y1864898D01*
X4537753Y1870232D01*
X4548167Y1875312D01*
X4568995Y1875312D01*
X4579409Y1870232D01*
X4584489Y1864898D01*
X4589823Y1854484D01*
X4589823Y1844070D01*
X4584489Y1833656D01*
X4574075Y1818162D01*
X4522259Y1766346D01*
X4594903Y1766346D01*
X3650587Y1887966D02*
G01*
X3640173Y1882632D01*
X3629759Y1872218D01*
X3624679Y1862058D01*
X3624679Y1841230D01*
X3629759Y1830816D01*
X3640173Y1820402D01*
X3650587Y1815068D01*
X3666335Y1809988D01*
X3692243Y1809988D01*
X3707737Y1815068D01*
X3718151Y1820402D01*
X3728565Y1830816D01*
X3733645Y1841230D01*
X3733645Y1862058D01*
X3728565Y1872218D01*
X3718151Y1882632D01*
X3707737Y1887966D01*
X3624679Y1932670D02*
G01*
X3624679Y1989820D01*
X3666335Y1958578D01*
X3666335Y1974072D01*
X3671415Y1984486D01*
X3676495Y1989820D01*
X3692243Y1994900D01*
X3702657Y1994900D01*
X3718151Y1989820D01*
X3728565Y1979406D01*
X3733645Y1963658D01*
X3733645Y1948164D01*
X3728565Y1932670D01*
X3723485Y1927336D01*
X3713071Y1922256D01*
X4147962Y1859399D02*
G01*
X4142628Y1869813D01*
X4132214Y1880227D01*
X4122054Y1885307D01*
X4101226Y1885307D01*
X4090812Y1880227D01*
X4080398Y1869813D01*
X4075064Y1859399D01*
X4069984Y1843651D01*
X4069984Y1817743D01*
X4075064Y1802249D01*
X4080398Y1791835D01*
X4090812Y1781421D01*
X4101226Y1776341D01*
X4122054Y1776341D01*
X4132214Y1781421D01*
X4142628Y1791835D01*
X4147962Y1802249D01*
X4234068Y1885307D02*
G01*
X4182252Y1812663D01*
X4260230Y1812663D01*
X4234068Y1885307D02*
G01*
X4234068Y1776341D01*
X3992963Y1589402D02*
G01*
X3987629Y1599816D01*
X3977215Y1610230D01*
X3967055Y1615310D01*
X3946227Y1615310D01*
X3935813Y1610230D01*
X3925399Y1599816D01*
X3920065Y1589402D01*
X3914985Y1573654D01*
X3914985Y1547746D01*
X3920065Y1532252D01*
X3925399Y1521838D01*
X3935813Y1511424D01*
X3946227Y1506344D01*
X3967055Y1506344D01*
X3977215Y1511424D01*
X3987629Y1521838D01*
X3992963Y1532252D01*
X4089483Y1615310D02*
G01*
X4037667Y1615310D01*
X4032333Y1568574D01*
X4037667Y1573654D01*
X4053161Y1578988D01*
X4068655Y1578988D01*
X4084403Y1573654D01*
X4094817Y1563494D01*
X4099897Y1547746D01*
X4099897Y1537332D01*
X4094817Y1521838D01*
X4084403Y1511424D01*
X4068655Y1506344D01*
X4053161Y1506344D01*
X4037667Y1511424D01*
X4032333Y1516504D01*
X4027253Y1526918D01*
X4377969Y3319401D02*
G01*
X4372635Y3329815D01*
X4362221Y3340229D01*
X4352061Y3345309D01*
X4331233Y3345309D01*
X4320819Y3340229D01*
X4310405Y3329815D01*
X4305071Y3319401D01*
X4299991Y3303653D01*
X4299991Y3277745D01*
X4305071Y3262251D01*
X4310405Y3251837D01*
X4320819Y3241423D01*
X4331233Y3236343D01*
X4352061Y3236343D01*
X4362221Y3241423D01*
X4372635Y3251837D01*
X4377969Y3262251D01*
X4438167Y3345309D02*
G01*
X4422673Y3340229D01*
X4417339Y3329815D01*
X4417339Y3319401D01*
X4422673Y3308987D01*
X4433087Y3303653D01*
X4453661Y3298573D01*
X4469409Y3293493D01*
X4479823Y3283079D01*
X4484903Y3272665D01*
X4484903Y3256917D01*
X4479823Y3246503D01*
X4474489Y3241423D01*
X4458995Y3236343D01*
X4438167Y3236343D01*
X4422673Y3241423D01*
X4417339Y3246503D01*
X4412259Y3256917D01*
X4412259Y3272665D01*
X4417339Y3283079D01*
X4427753Y3293493D01*
X4443501Y3298573D01*
X4464075Y3303653D01*
X4474489Y3308987D01*
X4479823Y3319401D01*
X4479823Y3329815D01*
X4474489Y3340229D01*
X4458995Y3345309D01*
X4438167Y3345309D01*
X3807970Y1734403D02*
G01*
X3802636Y1744817D01*
X3792222Y1755231D01*
X3782062Y1760311D01*
X3761234Y1760311D01*
X3750820Y1755231D01*
X3740406Y1744817D01*
X3735072Y1734403D01*
X3729992Y1718655D01*
X3729992Y1692747D01*
X3735072Y1677253D01*
X3740406Y1666839D01*
X3750820Y1656425D01*
X3761234Y1651345D01*
X3782062Y1651345D01*
X3792222Y1656425D01*
X3802636Y1666839D01*
X3807970Y1677253D01*
X3904490Y1744817D02*
G01*
X3899410Y1755231D01*
X3883662Y1760311D01*
X3873502Y1760311D01*
X3857754Y1755231D01*
X3847340Y1739483D01*
X3842260Y1713575D01*
X3842260Y1687667D01*
X3847340Y1666839D01*
X3857754Y1656425D01*
X3873502Y1651345D01*
X3878582Y1651345D01*
X3894076Y1656425D01*
X3904490Y1666839D01*
X3909824Y1682333D01*
X3909824Y1687667D01*
X3904490Y1703161D01*
X3894076Y1713575D01*
X3878582Y1718655D01*
X3873502Y1718655D01*
X3857754Y1713575D01*
X3847340Y1703161D01*
X3842260Y1687667D01*
X3977962Y989406D02*
G01*
X3972628Y999820D01*
X3962214Y1010234D01*
X3952054Y1015314D01*
X3931226Y1015314D01*
X3920812Y1010234D01*
X3910398Y999820D01*
X3905064Y989406D01*
X3899984Y973658D01*
X3899984Y947750D01*
X3905064Y932256D01*
X3910398Y921842D01*
X3920812Y911428D01*
X3931226Y906348D01*
X3952054Y906348D01*
X3962214Y911428D01*
X3972628Y921842D01*
X3977962Y932256D01*
X4079816Y978992D02*
G01*
X4074482Y963498D01*
X4064068Y953084D01*
X4048574Y947750D01*
X4043494Y947750D01*
X4027746Y953084D01*
X4017332Y963498D01*
X4012252Y978992D01*
X4012252Y984072D01*
X4017332Y999820D01*
X4027746Y1010234D01*
X4043494Y1015314D01*
X4048574Y1015314D01*
X4064068Y1010234D01*
X4074482Y999820D01*
X4079816Y978992D01*
X4079816Y953084D01*
X4074482Y926922D01*
X4064068Y911428D01*
X4048574Y906348D01*
X4038160Y906348D01*
X4022666Y911428D01*
X4017332Y921842D01*
X4889398Y1222019D02*
G01*
X4899812Y1227353D01*
X4910226Y1237767D01*
X4915306Y1247927D01*
X4915306Y1268755D01*
X4910226Y1279169D01*
X4899812Y1289583D01*
X4889398Y1294917D01*
X4873650Y1299997D01*
X4847742Y1299997D01*
X4832248Y1294917D01*
X4821834Y1289583D01*
X4811420Y1279169D01*
X4806340Y1268755D01*
X4806340Y1247927D01*
X4811420Y1237767D01*
X4821834Y1227353D01*
X4832248Y1222019D01*
X4894478Y1187729D02*
G01*
X4899812Y1177315D01*
X4915306Y1161821D01*
X4806340Y1161821D01*
X4915306Y1096289D02*
G01*
X4910226Y1112037D01*
X4894478Y1122197D01*
X4868570Y1127531D01*
X4853076Y1127531D01*
X4826914Y1122197D01*
X4811420Y1112037D01*
X4806340Y1096289D01*
X4806340Y1085875D01*
X4811420Y1070381D01*
X4826914Y1059967D01*
X4853076Y1054887D01*
X4868570Y1054887D01*
X4894478Y1059967D01*
X4910226Y1070381D01*
X4915306Y1085875D01*
X4915306Y1096289D01*
X4522012Y1320589D02*
G01*
X4527346Y1310175D01*
X4537760Y1299761D01*
X4547920Y1294681D01*
X4568748Y1294681D01*
X4579162Y1299761D01*
X4589576Y1310175D01*
X4594910Y1320589D01*
X4599990Y1336337D01*
X4599990Y1362245D01*
X4594910Y1377739D01*
X4589576Y1388153D01*
X4579162Y1398567D01*
X4568748Y1403647D01*
X4547920Y1403647D01*
X4537760Y1398567D01*
X4527346Y1388153D01*
X4522012Y1377739D01*
X4487722Y1315509D02*
G01*
X4477308Y1310175D01*
X4461814Y1294681D01*
X4461814Y1403647D01*
X4427524Y1315509D02*
G01*
X4417110Y1310175D01*
X4401616Y1294681D01*
X4401616Y1403647D01*
X4747968Y1679404D02*
G01*
X4742634Y1689818D01*
X4732220Y1700232D01*
X4722060Y1705312D01*
X4701232Y1705312D01*
X4690818Y1700232D01*
X4680404Y1689818D01*
X4675070Y1679404D01*
X4669990Y1663656D01*
X4669990Y1637748D01*
X4675070Y1622254D01*
X4680404Y1611840D01*
X4690818Y1601426D01*
X4701232Y1596346D01*
X4722060Y1596346D01*
X4732220Y1601426D01*
X4742634Y1611840D01*
X4747968Y1622254D01*
X4782258Y1684484D02*
G01*
X4792672Y1689818D01*
X4808166Y1705312D01*
X4808166Y1596346D01*
X4847790Y1679404D02*
G01*
X4847790Y1684484D01*
X4852870Y1694898D01*
X4857950Y1700232D01*
X4868364Y1705312D01*
X4889192Y1705312D01*
X4899606Y1700232D01*
X4904940Y1694898D01*
X4910020Y1684484D01*
X4910020Y1674070D01*
X4904940Y1663656D01*
X4894526Y1648162D01*
X4842456Y1596346D01*
X4915100Y1596346D01*
X6467965Y5579397D02*
G01*
X6462631Y5589811D01*
X6452217Y5600225D01*
X6442057Y5605305D01*
X6421229Y5605305D01*
X6410815Y5600225D01*
X6400401Y5589811D01*
X6395067Y5579397D01*
X6389987Y5563649D01*
X6389987Y5537741D01*
X6395067Y5522247D01*
X6400401Y5511833D01*
X6410815Y5501419D01*
X6421229Y5496339D01*
X6442057Y5496339D01*
X6452217Y5501419D01*
X6462631Y5511833D01*
X6467965Y5522247D01*
X6502255Y5584477D02*
G01*
X6512669Y5589811D01*
X6528163Y5605305D01*
X6528163Y5496339D01*
X6635097Y5605305D02*
G01*
X6583281Y5496339D01*
X6562453Y5605305D02*
G01*
X6635097Y5605305D01*
X7447963Y5309397D02*
G01*
X7442629Y5319811D01*
X7432215Y5330225D01*
X7422055Y5335305D01*
X7401227Y5335305D01*
X7390813Y5330225D01*
X7380399Y5319811D01*
X7375065Y5309397D01*
X7369985Y5293649D01*
X7369985Y5267741D01*
X7375065Y5252247D01*
X7380399Y5241833D01*
X7390813Y5231419D01*
X7401227Y5226339D01*
X7422055Y5226339D01*
X7432215Y5231419D01*
X7442629Y5241833D01*
X7447963Y5252247D01*
X7487333Y5309397D02*
G01*
X7487333Y5314477D01*
X7492667Y5324891D01*
X7497747Y5330225D01*
X7508161Y5335305D01*
X7528989Y5335305D01*
X7539403Y5330225D01*
X7544483Y5324891D01*
X7549817Y5314477D01*
X7549817Y5304063D01*
X7544483Y5293649D01*
X7534069Y5278155D01*
X7482253Y5226339D01*
X7554897Y5226339D01*
X7589187Y5314477D02*
G01*
X7599601Y5319811D01*
X7615095Y5335305D01*
X7615095Y5226339D01*
X4787963Y3509401D02*
G01*
X4782629Y3519815D01*
X4772215Y3530229D01*
X4762055Y3535309D01*
X4741227Y3535309D01*
X4730813Y3530229D01*
X4720399Y3519815D01*
X4715065Y3509401D01*
X4709985Y3493653D01*
X4709985Y3467745D01*
X4715065Y3452251D01*
X4720399Y3441837D01*
X4730813Y3431423D01*
X4741227Y3426343D01*
X4762055Y3426343D01*
X4772215Y3431423D01*
X4782629Y3441837D01*
X4787963Y3452251D01*
X4894897Y3535309D02*
G01*
X4843081Y3426343D01*
X4822253Y3535309D02*
G01*
X4894897Y3535309D01*
X8207961Y5139397D02*
G01*
X8202627Y5149811D01*
X8192213Y5160225D01*
X8182053Y5165305D01*
X8161225Y5165305D01*
X8150811Y5160225D01*
X8140397Y5149811D01*
X8135063Y5139397D01*
X8129983Y5123649D01*
X8129983Y5097741D01*
X8135063Y5082247D01*
X8140397Y5071833D01*
X8150811Y5061419D01*
X8161225Y5056339D01*
X8182053Y5056339D01*
X8192213Y5061419D01*
X8202627Y5071833D01*
X8207961Y5082247D01*
X8242251Y5144477D02*
G01*
X8252665Y5149811D01*
X8268159Y5165305D01*
X8268159Y5056339D01*
X8328357Y5165305D02*
G01*
X8312863Y5160225D01*
X8307783Y5149811D01*
X8307783Y5139397D01*
X8312863Y5128983D01*
X8323277Y5123649D01*
X8344105Y5118569D01*
X8359599Y5113489D01*
X8370013Y5103075D01*
X8375093Y5092661D01*
X8375093Y5076913D01*
X8370013Y5066499D01*
X8364933Y5061419D01*
X8349185Y5056339D01*
X8328357Y5056339D01*
X8312863Y5061419D01*
X8307783Y5066499D01*
X8302449Y5076913D01*
X8302449Y5092661D01*
X8307783Y5103075D01*
X8317943Y5113489D01*
X8333691Y5118569D01*
X8354519Y5123649D01*
X8364933Y5128983D01*
X8370013Y5139397D01*
X8370013Y5149811D01*
X8364933Y5160225D01*
X8349185Y5165305D01*
X8328357Y5165305D01*
X8207961Y5349397D02*
G01*
X8202627Y5359811D01*
X8192213Y5370225D01*
X8182053Y5375305D01*
X8161225Y5375305D01*
X8150811Y5370225D01*
X8140397Y5359811D01*
X8135063Y5349397D01*
X8129983Y5333649D01*
X8129983Y5307741D01*
X8135063Y5292247D01*
X8140397Y5281833D01*
X8150811Y5271419D01*
X8161225Y5266339D01*
X8182053Y5266339D01*
X8192213Y5271419D01*
X8202627Y5281833D01*
X8207961Y5292247D01*
X8242251Y5354477D02*
G01*
X8252665Y5359811D01*
X8268159Y5375305D01*
X8268159Y5266339D01*
X8370013Y5338983D02*
G01*
X8364933Y5323489D01*
X8354519Y5313075D01*
X8338771Y5307741D01*
X8333691Y5307741D01*
X8317943Y5313075D01*
X8307783Y5323489D01*
X8302449Y5338983D01*
X8302449Y5344063D01*
X8307783Y5359811D01*
X8317943Y5370225D01*
X8333691Y5375305D01*
X8338771Y5375305D01*
X8354519Y5370225D01*
X8364933Y5359811D01*
X8370013Y5338983D01*
X8370013Y5313075D01*
X8364933Y5286913D01*
X8354519Y5271419D01*
X8338771Y5266339D01*
X8328357Y5266339D01*
X8312863Y5271419D01*
X8307783Y5281833D01*
X8207961Y5529397D02*
G01*
X8202627Y5539811D01*
X8192213Y5550225D01*
X8182053Y5555305D01*
X8161225Y5555305D01*
X8150811Y5550225D01*
X8140397Y5539811D01*
X8135063Y5529397D01*
X8129983Y5513649D01*
X8129983Y5487741D01*
X8135063Y5472247D01*
X8140397Y5461833D01*
X8150811Y5451419D01*
X8161225Y5446339D01*
X8182053Y5446339D01*
X8192213Y5451419D01*
X8202627Y5461833D01*
X8207961Y5472247D01*
X8247331Y5529397D02*
G01*
X8247331Y5534477D01*
X8252665Y5544891D01*
X8257745Y5550225D01*
X8268159Y5555305D01*
X8288987Y5555305D01*
X8299401Y5550225D01*
X8304481Y5544891D01*
X8309815Y5534477D01*
X8309815Y5524063D01*
X8304481Y5513649D01*
X8294067Y5498155D01*
X8242251Y5446339D01*
X8314895Y5446339D01*
X8380427Y5555305D02*
G01*
X8364933Y5550225D01*
X8354519Y5534477D01*
X8349185Y5508569D01*
X8349185Y5493075D01*
X8354519Y5466913D01*
X8364933Y5451419D01*
X8380427Y5446339D01*
X8390841Y5446339D01*
X8406335Y5451419D01*
X8416749Y5466913D01*
X8422083Y5493075D01*
X8422083Y5508569D01*
X8416749Y5534477D01*
X8406335Y5550225D01*
X8390841Y5555305D01*
X8380427Y5555305D01*
X5117967Y2559403D02*
G01*
X5112633Y2569817D01*
X5102219Y2580231D01*
X5092059Y2585311D01*
X5071231Y2585311D01*
X5060817Y2580231D01*
X5050403Y2569817D01*
X5045069Y2559403D01*
X5039989Y2543655D01*
X5039989Y2517747D01*
X5045069Y2502253D01*
X5050403Y2491839D01*
X5060817Y2481425D01*
X5071231Y2476345D01*
X5092059Y2476345D01*
X5102219Y2481425D01*
X5112633Y2491839D01*
X5117967Y2502253D01*
X5157337Y2559403D02*
G01*
X5157337Y2564483D01*
X5162671Y2574897D01*
X5167751Y2580231D01*
X5178165Y2585311D01*
X5198993Y2585311D01*
X5209407Y2580231D01*
X5214487Y2574897D01*
X5219821Y2564483D01*
X5219821Y2554069D01*
X5214487Y2543655D01*
X5204073Y2528161D01*
X5152257Y2476345D01*
X5224901Y2476345D01*
X5269605Y2585311D02*
G01*
X5326755Y2585311D01*
X5295513Y2543655D01*
X5311261Y2543655D01*
X5321675Y2538575D01*
X5326755Y2533495D01*
X5332089Y2517747D01*
X5332089Y2507333D01*
X5326755Y2491839D01*
X5316341Y2481425D01*
X5300847Y2476345D01*
X5285099Y2476345D01*
X5269605Y2481425D01*
X5264525Y2486505D01*
X5259191Y2496919D01*
X5037968Y4009400D02*
G01*
X5032634Y4019814D01*
X5022220Y4030228D01*
X5012060Y4035308D01*
X4991232Y4035308D01*
X4980818Y4030228D01*
X4970404Y4019814D01*
X4965070Y4009400D01*
X4959990Y3993652D01*
X4959990Y3967744D01*
X4965070Y3952250D01*
X4970404Y3941836D01*
X4980818Y3931422D01*
X4991232Y3926342D01*
X5012060Y3926342D01*
X5022220Y3931422D01*
X5032634Y3941836D01*
X5037968Y3952250D01*
X5077338Y4009400D02*
G01*
X5077338Y4014480D01*
X5082672Y4024894D01*
X5087752Y4030228D01*
X5098166Y4035308D01*
X5118994Y4035308D01*
X5129408Y4030228D01*
X5134488Y4024894D01*
X5139822Y4014480D01*
X5139822Y4004066D01*
X5134488Y3993652D01*
X5124074Y3978158D01*
X5072258Y3926342D01*
X5144902Y3926342D01*
X5205100Y4035308D02*
G01*
X5189606Y4030228D01*
X5184526Y4019814D01*
X5184526Y4009400D01*
X5189606Y3998986D01*
X5200020Y3993652D01*
X5220848Y3988572D01*
X5236342Y3983492D01*
X5246756Y3973078D01*
X5252090Y3962664D01*
X5252090Y3946916D01*
X5246756Y3936502D01*
X5241676Y3931422D01*
X5225928Y3926342D01*
X5205100Y3926342D01*
X5189606Y3931422D01*
X5184526Y3936502D01*
X5179192Y3946916D01*
X5179192Y3962664D01*
X5184526Y3973078D01*
X5194940Y3983492D01*
X5210434Y3988572D01*
X5231262Y3993652D01*
X5241676Y3998986D01*
X5246756Y4009400D01*
X5246756Y4019814D01*
X5241676Y4030228D01*
X5225928Y4035308D01*
X5205100Y4035308D01*
X6719986Y5255305D02*
G01*
X6719986Y5177327D01*
X6725066Y5161833D01*
X6735480Y5151419D01*
X6751228Y5146339D01*
X6761642Y5146339D01*
X6777136Y5151419D01*
X6787550Y5161833D01*
X6792630Y5177327D01*
X6792630Y5255305D01*
X6837334Y5255305D02*
G01*
X6894484Y5255305D01*
X6863496Y5213649D01*
X6878990Y5213649D01*
X6889404Y5208569D01*
X6894484Y5203489D01*
X6899818Y5187741D01*
X6899818Y5177327D01*
X6894484Y5161833D01*
X6884070Y5151419D01*
X6868576Y5146339D01*
X6853082Y5146339D01*
X6837334Y5151419D01*
X6832254Y5156499D01*
X6826920Y5166913D01*
X6934108Y5234477D02*
G01*
X6944522Y5239811D01*
X6960016Y5255305D01*
X6960016Y5146339D01*
X6719986Y5065306D02*
G01*
X6719986Y4987328D01*
X6725066Y4971834D01*
X6735480Y4961420D01*
X6751228Y4956340D01*
X6761642Y4956340D01*
X6777136Y4961420D01*
X6787550Y4971834D01*
X6792630Y4987328D01*
X6792630Y5065306D01*
X6837334Y5065306D02*
G01*
X6894484Y5065306D01*
X6863496Y5023650D01*
X6878990Y5023650D01*
X6889404Y5018570D01*
X6894484Y5013490D01*
X6899818Y4997742D01*
X6899818Y4987328D01*
X6894484Y4971834D01*
X6884070Y4961420D01*
X6868576Y4956340D01*
X6853082Y4956340D01*
X6837334Y4961420D01*
X6832254Y4966500D01*
X6826920Y4976914D01*
X6939188Y5039398D02*
G01*
X6939188Y5044478D01*
X6944522Y5054892D01*
X6949602Y5060226D01*
X6960016Y5065306D01*
X6980844Y5065306D01*
X6991258Y5060226D01*
X6996338Y5054892D01*
X7001672Y5044478D01*
X7001672Y5034064D01*
X6996338Y5023650D01*
X6985924Y5008156D01*
X6934108Y4956340D01*
X7006752Y4956340D01*
X2977964Y2789397D02*
G01*
X2972630Y2799811D01*
X2962216Y2810225D01*
X2952056Y2815305D01*
X2931228Y2815305D01*
X2920814Y2810225D01*
X2910400Y2799811D01*
X2905066Y2789397D01*
X2899986Y2773649D01*
X2899986Y2747741D01*
X2905066Y2732247D01*
X2910400Y2721833D01*
X2920814Y2711419D01*
X2931228Y2706339D01*
X2952056Y2706339D01*
X2962216Y2711419D01*
X2972630Y2721833D01*
X2977964Y2732247D01*
X3012254Y2794477D02*
G01*
X3022668Y2799811D01*
X3038162Y2815305D01*
X3038162Y2706339D01*
X3082866Y2815305D02*
G01*
X3140016Y2815305D01*
X3108774Y2773649D01*
X3124522Y2773649D01*
X3134936Y2768569D01*
X3140016Y2763489D01*
X3145096Y2747741D01*
X3145096Y2737327D01*
X3140016Y2721833D01*
X3129602Y2711419D01*
X3114108Y2706339D01*
X3098360Y2706339D01*
X3082866Y2711419D01*
X3077786Y2716499D01*
X3072452Y2726913D01*
X3108985Y4177969D02*
G01*
X3098571Y4172635D01*
X3088157Y4162221D01*
X3083077Y4152061D01*
X3083077Y4131233D01*
X3088157Y4120819D01*
X3098571Y4110405D01*
X3108985Y4105071D01*
X3124733Y4099991D01*
X3150641Y4099991D01*
X3166135Y4105071D01*
X3176549Y4110405D01*
X3186963Y4120819D01*
X3192043Y4131233D01*
X3192043Y4152061D01*
X3186963Y4162221D01*
X3176549Y4172635D01*
X3166135Y4177969D01*
X3103905Y4212259D02*
G01*
X3098571Y4222673D01*
X3083077Y4238167D01*
X3192043Y4238167D01*
X3083077Y4324527D02*
G01*
X3155721Y4272457D01*
X3155721Y4350435D01*
X3083077Y4324527D02*
G01*
X3192043Y4324527D01*
X4677968Y5289397D02*
G01*
X4672634Y5299811D01*
X4662220Y5310225D01*
X4652060Y5315305D01*
X4631232Y5315305D01*
X4620818Y5310225D01*
X4610404Y5299811D01*
X4605070Y5289397D01*
X4599990Y5273649D01*
X4599990Y5247741D01*
X4605070Y5232247D01*
X4610404Y5221833D01*
X4620818Y5211419D01*
X4631232Y5206339D01*
X4652060Y5206339D01*
X4662220Y5211419D01*
X4672634Y5221833D01*
X4677968Y5232247D01*
X4712258Y5294477D02*
G01*
X4722672Y5299811D01*
X4738166Y5315305D01*
X4738166Y5206339D01*
X4834940Y5315305D02*
G01*
X4782870Y5315305D01*
X4777790Y5268569D01*
X4782870Y5273649D01*
X4798364Y5278983D01*
X4814112Y5278983D01*
X4829606Y5273649D01*
X4840020Y5263489D01*
X4845100Y5247741D01*
X4845100Y5237327D01*
X4840020Y5221833D01*
X4829606Y5211419D01*
X4814112Y5206339D01*
X4798364Y5206339D01*
X4782870Y5211419D01*
X4777790Y5216499D01*
X4772456Y5226913D01*
X6782953Y3499401D02*
G01*
X6777619Y3509815D01*
X6767205Y3520229D01*
X6757045Y3525309D01*
X6736217Y3525309D01*
X6725803Y3520229D01*
X6715389Y3509815D01*
X6710055Y3499401D01*
X6704975Y3483653D01*
X6704975Y3457745D01*
X6710055Y3442251D01*
X6715389Y3431837D01*
X6725803Y3421423D01*
X6736217Y3416343D01*
X6757045Y3416343D01*
X6767205Y3421423D01*
X6777619Y3431837D01*
X6782953Y3442251D01*
X6822323Y3499401D02*
G01*
X6822323Y3504481D01*
X6827657Y3514895D01*
X6832737Y3520229D01*
X6843151Y3525309D01*
X6863979Y3525309D01*
X6874393Y3520229D01*
X6879473Y3514895D01*
X6884807Y3504481D01*
X6884807Y3494067D01*
X6879473Y3483653D01*
X6869059Y3468159D01*
X6817243Y3416343D01*
X6889887Y3416343D01*
X6976247Y3525309D02*
G01*
X6924177Y3452665D01*
X7002155Y3452665D01*
X6976247Y3525309D02*
G01*
X6976247Y3416343D01*
X6631162Y2885003D02*
G01*
X6625828Y2895417D01*
X6615414Y2905831D01*
X6605254Y2910911D01*
X6584426Y2910911D01*
X6574012Y2905831D01*
X6563598Y2895417D01*
X6558264Y2885003D01*
X6553184Y2869255D01*
X6553184Y2843347D01*
X6558264Y2827853D01*
X6563598Y2817439D01*
X6574012Y2807025D01*
X6584426Y2801945D01*
X6605254Y2801945D01*
X6615414Y2807025D01*
X6625828Y2817439D01*
X6631162Y2827853D01*
X6670532Y2885003D02*
G01*
X6670532Y2890083D01*
X6675866Y2900497D01*
X6680946Y2905831D01*
X6691360Y2910911D01*
X6712188Y2910911D01*
X6722602Y2905831D01*
X6727682Y2900497D01*
X6733016Y2890083D01*
X6733016Y2879669D01*
X6727682Y2869255D01*
X6717268Y2853761D01*
X6665452Y2801945D01*
X6738096Y2801945D01*
X6834870Y2910911D02*
G01*
X6782800Y2910911D01*
X6777720Y2864175D01*
X6782800Y2869255D01*
X6798294Y2874589D01*
X6814042Y2874589D01*
X6829536Y2869255D01*
X6839950Y2859095D01*
X6845284Y2843347D01*
X6845284Y2832933D01*
X6839950Y2817439D01*
X6829536Y2807025D01*
X6814042Y2801945D01*
X6798294Y2801945D01*
X6782800Y2807025D01*
X6777720Y2812105D01*
X6772386Y2822519D01*
X5932977Y4459391D02*
G01*
X5927643Y4469805D01*
X5917229Y4480219D01*
X5907069Y4485299D01*
X5886241Y4485299D01*
X5875827Y4480219D01*
X5865413Y4469805D01*
X5860079Y4459391D01*
X5854999Y4443643D01*
X5854999Y4417735D01*
X5860079Y4402241D01*
X5865413Y4391827D01*
X5875827Y4381413D01*
X5886241Y4376333D01*
X5907069Y4376333D01*
X5917229Y4381413D01*
X5927643Y4391827D01*
X5932977Y4402241D01*
X5972347Y4459391D02*
G01*
X5972347Y4464471D01*
X5977681Y4474885D01*
X5982761Y4480219D01*
X5993175Y4485299D01*
X6014003Y4485299D01*
X6024417Y4480219D01*
X6029497Y4474885D01*
X6034831Y4464471D01*
X6034831Y4454057D01*
X6029497Y4443643D01*
X6019083Y4428149D01*
X5967267Y4376333D01*
X6039911Y4376333D01*
X6136685Y4469805D02*
G01*
X6131351Y4480219D01*
X6115857Y4485299D01*
X6105443Y4485299D01*
X6089949Y4480219D01*
X6079535Y4464471D01*
X6074201Y4438563D01*
X6074201Y4412655D01*
X6079535Y4391827D01*
X6089949Y4381413D01*
X6105443Y4376333D01*
X6110523Y4376333D01*
X6126271Y4381413D01*
X6136685Y4391827D01*
X6141765Y4407321D01*
X6141765Y4412655D01*
X6136685Y4428149D01*
X6126271Y4438563D01*
X6110523Y4443643D01*
X6105443Y4443643D01*
X6089949Y4438563D01*
X6079535Y4428149D01*
X6074201Y4412655D01*
X5337967Y4269399D02*
G01*
X5332633Y4279813D01*
X5322219Y4290227D01*
X5312059Y4295307D01*
X5291231Y4295307D01*
X5280817Y4290227D01*
X5270403Y4279813D01*
X5265069Y4269399D01*
X5259989Y4253651D01*
X5259989Y4227743D01*
X5265069Y4212249D01*
X5270403Y4201835D01*
X5280817Y4191421D01*
X5291231Y4186341D01*
X5312059Y4186341D01*
X5322219Y4191421D01*
X5332633Y4201835D01*
X5337967Y4212249D01*
X5377337Y4269399D02*
G01*
X5377337Y4274479D01*
X5382671Y4284893D01*
X5387751Y4290227D01*
X5398165Y4295307D01*
X5418993Y4295307D01*
X5429407Y4290227D01*
X5434487Y4284893D01*
X5439821Y4274479D01*
X5439821Y4264065D01*
X5434487Y4253651D01*
X5424073Y4238157D01*
X5372257Y4186341D01*
X5444901Y4186341D01*
X5552089Y4295307D02*
G01*
X5500019Y4186341D01*
X5479191Y4295307D02*
G01*
X5552089Y4295307D01*
X7127963Y5089397D02*
G01*
X7122629Y5099812D01*
X7112215Y5110226D01*
X7102055Y5115305D01*
X7081227Y5115305D01*
X7070813Y5110226D01*
X7060399Y5099812D01*
X7055065Y5089397D01*
X7049985Y5073650D01*
X7049985Y5047742D01*
X7055065Y5032247D01*
X7060399Y5021834D01*
X7070813Y5011420D01*
X7081227Y5006339D01*
X7102055Y5006339D01*
X7112215Y5011420D01*
X7122629Y5021834D01*
X7127963Y5032247D01*
X7167333Y5089397D02*
G01*
X7167333Y5094478D01*
X7172667Y5104892D01*
X7177747Y5110226D01*
X7188161Y5115305D01*
X7208989Y5115305D01*
X7219403Y5110226D01*
X7224483Y5104892D01*
X7229817Y5094478D01*
X7229817Y5084063D01*
X7224483Y5073650D01*
X7214069Y5058155D01*
X7162253Y5006339D01*
X7234897Y5006339D01*
X7274521Y5089397D02*
G01*
X7274521Y5094478D01*
X7279601Y5104892D01*
X7284935Y5110226D01*
X7295095Y5115305D01*
X7315923Y5115305D01*
X7326337Y5110226D01*
X7331671Y5104892D01*
X7336751Y5094478D01*
X7336751Y5084063D01*
X7331671Y5073650D01*
X7321257Y5058155D01*
X7269187Y5006339D01*
X7342085Y5006339D01*
X9819589Y2539517D02*
G01*
X9830003Y2544851D01*
X9840417Y2555265D01*
X9845497Y2565425D01*
X9845497Y2586253D01*
X9840417Y2596667D01*
X9830003Y2607081D01*
X9819589Y2612415D01*
X9803841Y2617495D01*
X9777933Y2617495D01*
X9762439Y2612415D01*
X9752025Y2607081D01*
X9741611Y2596667D01*
X9736531Y2586253D01*
X9736531Y2565425D01*
X9741611Y2555265D01*
X9752025Y2544851D01*
X9762439Y2539517D01*
X9845497Y2505227D02*
G01*
X9736531Y2505227D01*
X9845497Y2505227D02*
G01*
X9736531Y2432583D01*
X9845497Y2432583D02*
G01*
X9736531Y2432583D01*
X9824669Y2398293D02*
G01*
X9830003Y2387879D01*
X9845497Y2372385D01*
X9736531Y2372385D01*
X9819589Y1234719D02*
G01*
X9830003Y1240053D01*
X9840417Y1250467D01*
X9845497Y1260627D01*
X9845497Y1281455D01*
X9840417Y1291869D01*
X9830003Y1302283D01*
X9819589Y1307617D01*
X9803841Y1312697D01*
X9777933Y1312697D01*
X9762439Y1307617D01*
X9752025Y1302283D01*
X9741611Y1291869D01*
X9736531Y1281455D01*
X9736531Y1260627D01*
X9741611Y1250467D01*
X9752025Y1240053D01*
X9762439Y1234719D01*
X9845497Y1200429D02*
G01*
X9736531Y1200429D01*
X9845497Y1200429D02*
G01*
X9736531Y1127785D01*
X9845497Y1127785D02*
G01*
X9736531Y1127785D01*
X9845497Y1083081D02*
G01*
X9845497Y1025931D01*
X9803841Y1057173D01*
X9803841Y1041425D01*
X9798761Y1031011D01*
X9793681Y1025931D01*
X9777933Y1020597D01*
X9767519Y1020597D01*
X9752025Y1025931D01*
X9741611Y1036345D01*
X9736531Y1051839D01*
X9736531Y1067587D01*
X9741611Y1083081D01*
X9746691Y1088161D01*
X9757105Y1093495D01*
X7087285Y6469303D02*
G01*
X7087285Y6360337D01*
X7087285Y6360337D02*
G01*
X7149515Y6360337D01*
X7183805Y6448475D02*
G01*
X7194219Y6453809D01*
X7209967Y6469303D01*
X7209967Y6360337D01*
X3254677Y1009972D02*
G01*
X3363643Y1009972D01*
X3363643Y1009972D02*
G01*
X3363643Y1072202D01*
X3280585Y1111826D02*
G01*
X3275505Y1111826D01*
X3265091Y1116906D01*
X3259757Y1122240D01*
X3254677Y1132654D01*
X3254677Y1153482D01*
X3259757Y1163642D01*
X3265091Y1168976D01*
X3275505Y1174056D01*
X3285919Y1174056D01*
X3296333Y1168976D01*
X3311827Y1158562D01*
X3363643Y1106492D01*
X3363643Y1179390D01*
X2591239Y3045310D02*
G01*
X2580825Y3040230D01*
X2570411Y3029816D01*
X2565077Y3019402D01*
X2559997Y3003654D01*
X2559997Y2977746D01*
X2565077Y2962252D01*
X2570411Y2951838D01*
X2580825Y2941424D01*
X2591239Y2936344D01*
X2612067Y2936344D01*
X2622227Y2941424D01*
X2632641Y2951838D01*
X2637975Y2962252D01*
X2643055Y2977746D01*
X2643055Y3003654D01*
X2637975Y3019402D01*
X2632641Y3029816D01*
X2622227Y3040230D01*
X2612067Y3045310D01*
X2591239Y3045310D01*
X2606733Y2956918D02*
G01*
X2637975Y2925930D01*
X2677345Y3024482D02*
G01*
X2687759Y3029816D01*
X2703507Y3045310D01*
X2703507Y2936344D01*
X2541239Y2545311D02*
G01*
X2530825Y2540231D01*
X2520411Y2529817D01*
X2515077Y2519403D01*
X2509997Y2503655D01*
X2509997Y2477747D01*
X2515077Y2462253D01*
X2520411Y2451839D01*
X2530825Y2441425D01*
X2541239Y2436345D01*
X2562067Y2436345D01*
X2572227Y2441425D01*
X2582641Y2451839D01*
X2587975Y2462253D01*
X2593055Y2477747D01*
X2593055Y2503655D01*
X2587975Y2519403D01*
X2582641Y2529817D01*
X2572227Y2540231D01*
X2562067Y2545311D01*
X2541239Y2545311D01*
X2556733Y2456919D02*
G01*
X2587975Y2425931D01*
X2632679Y2519403D02*
G01*
X2632679Y2524483D01*
X2637759Y2534897D01*
X2643093Y2540231D01*
X2653507Y2545311D01*
X2674081Y2545311D01*
X2684495Y2540231D01*
X2689829Y2534897D01*
X2694909Y2524483D01*
X2694909Y2514069D01*
X2689829Y2503655D01*
X2679415Y2488161D01*
X2627345Y2436345D01*
X2700243Y2436345D01*
X3031238Y4915306D02*
G01*
X3020824Y4910226D01*
X3010410Y4899812D01*
X3005076Y4889398D01*
X2999996Y4873650D01*
X2999996Y4847742D01*
X3005076Y4832248D01*
X3010410Y4821834D01*
X3020824Y4811420D01*
X3031238Y4806340D01*
X3052066Y4806340D01*
X3062226Y4811420D01*
X3072640Y4821834D01*
X3077974Y4832248D01*
X3083054Y4847742D01*
X3083054Y4873650D01*
X3077974Y4889398D01*
X3072640Y4899812D01*
X3062226Y4910226D01*
X3052066Y4915306D01*
X3031238Y4915306D01*
X3046732Y4826914D02*
G01*
X3077974Y4795926D01*
X3127758Y4915306D02*
G01*
X3184908Y4915306D01*
X3153666Y4873650D01*
X3169414Y4873650D01*
X3179828Y4868570D01*
X3184908Y4863490D01*
X3190242Y4847742D01*
X3190242Y4837328D01*
X3184908Y4821834D01*
X3174494Y4811420D01*
X3159000Y4806340D01*
X3143506Y4806340D01*
X3127758Y4811420D01*
X3122678Y4816500D01*
X3117344Y4826914D01*
X3531237Y4915306D02*
G01*
X3520823Y4910226D01*
X3510409Y4899812D01*
X3505075Y4889398D01*
X3499995Y4873650D01*
X3499995Y4847742D01*
X3505075Y4832248D01*
X3510409Y4821834D01*
X3520823Y4811420D01*
X3531237Y4806340D01*
X3552065Y4806340D01*
X3562225Y4811420D01*
X3572639Y4821834D01*
X3577973Y4832248D01*
X3583053Y4847742D01*
X3583053Y4873650D01*
X3577973Y4889398D01*
X3572639Y4899812D01*
X3562225Y4910226D01*
X3552065Y4915306D01*
X3531237Y4915306D01*
X3546731Y4826914D02*
G01*
X3577973Y4795926D01*
X3669413Y4915306D02*
G01*
X3617343Y4842662D01*
X3695321Y4842662D01*
X3669413Y4915306D02*
G01*
X3669413Y4806340D01*
X3531237Y5815304D02*
G01*
X3520823Y5810224D01*
X3510409Y5799810D01*
X3505075Y5789396D01*
X3499995Y5773648D01*
X3499995Y5747740D01*
X3505075Y5732246D01*
X3510409Y5721832D01*
X3520823Y5711418D01*
X3531237Y5706338D01*
X3552065Y5706338D01*
X3562225Y5711418D01*
X3572639Y5721832D01*
X3577973Y5732246D01*
X3583053Y5747740D01*
X3583053Y5773648D01*
X3577973Y5789396D01*
X3572639Y5799810D01*
X3562225Y5810224D01*
X3552065Y5815304D01*
X3531237Y5815304D01*
X3546731Y5726912D02*
G01*
X3577973Y5695924D01*
X3679827Y5815304D02*
G01*
X3627757Y5815304D01*
X3622677Y5768568D01*
X3627757Y5773648D01*
X3643505Y5778982D01*
X3658999Y5778982D01*
X3674493Y5773648D01*
X3684907Y5763488D01*
X3690241Y5747740D01*
X3690241Y5737326D01*
X3684907Y5721832D01*
X3674493Y5711418D01*
X3658999Y5706338D01*
X3643505Y5706338D01*
X3627757Y5711418D01*
X3622677Y5716498D01*
X3617343Y5726912D01*
X3031238Y5815304D02*
G01*
X3020824Y5810224D01*
X3010410Y5799810D01*
X3005076Y5789396D01*
X2999996Y5773648D01*
X2999996Y5747740D01*
X3005076Y5732246D01*
X3010410Y5721832D01*
X3020824Y5711418D01*
X3031238Y5706338D01*
X3052066Y5706338D01*
X3062226Y5711418D01*
X3072640Y5721832D01*
X3077974Y5732246D01*
X3083054Y5747740D01*
X3083054Y5773648D01*
X3077974Y5789396D01*
X3072640Y5799810D01*
X3062226Y5810224D01*
X3052066Y5815304D01*
X3031238Y5815304D01*
X3046732Y5726912D02*
G01*
X3077974Y5695924D01*
X3179828Y5799810D02*
G01*
X3174494Y5810224D01*
X3159000Y5815304D01*
X3148586Y5815304D01*
X3133092Y5810224D01*
X3122678Y5794476D01*
X3117344Y5768568D01*
X3117344Y5742660D01*
X3122678Y5721832D01*
X3133092Y5711418D01*
X3148586Y5706338D01*
X3153666Y5706338D01*
X3169414Y5711418D01*
X3179828Y5721832D01*
X3184908Y5737326D01*
X3184908Y5742660D01*
X3179828Y5758154D01*
X3169414Y5768568D01*
X3153666Y5773648D01*
X3148586Y5773648D01*
X3133092Y5768568D01*
X3122678Y5758154D01*
X3117344Y5742660D01*
X3074677Y1979996D02*
G01*
X3183643Y1979996D01*
X3074677Y1979996D02*
G01*
X3074677Y2026732D01*
X3079757Y2042226D01*
X3085091Y2047560D01*
X3095505Y2052640D01*
X3105919Y2052640D01*
X3116333Y2047560D01*
X3121413Y2042226D01*
X3126493Y2026732D01*
X3126493Y1979996D01*
X3126493Y2016318D02*
G01*
X3183643Y2052640D01*
X3095505Y2086930D02*
G01*
X3090171Y2097344D01*
X3074677Y2113092D01*
X3183643Y2113092D01*
X2834678Y3609992D02*
G01*
X2943644Y3609992D01*
X2834678Y3609992D02*
G01*
X2834678Y3656728D01*
X2839758Y3672222D01*
X2845092Y3677556D01*
X2855506Y3682636D01*
X2865920Y3682636D01*
X2876334Y3677556D01*
X2881414Y3672222D01*
X2886494Y3656728D01*
X2886494Y3609992D01*
X2886494Y3646314D02*
G01*
X2943644Y3682636D01*
X2860586Y3722260D02*
G01*
X2855506Y3722260D01*
X2845092Y3727340D01*
X2839758Y3732674D01*
X2834678Y3743088D01*
X2834678Y3763662D01*
X2839758Y3774076D01*
X2845092Y3779410D01*
X2855506Y3784490D01*
X2865920Y3784490D01*
X2876334Y3779410D01*
X2891828Y3768996D01*
X2943644Y3716926D01*
X2943644Y3789824D01*
X4599990Y5843904D02*
G01*
X4599990Y5734938D01*
X4599990Y5843904D02*
G01*
X4646726Y5843904D01*
X4662220Y5838825D01*
X4667554Y5833490D01*
X4672634Y5823077D01*
X4672634Y5812662D01*
X4667554Y5802248D01*
X4662220Y5797169D01*
X4646726Y5792088D01*
X4599990Y5792088D01*
X4636312Y5792088D02*
G01*
X4672634Y5734938D01*
X4758994Y5843904D02*
G01*
X4706924Y5771261D01*
X4784902Y5771261D01*
X4758994Y5843904D02*
G01*
X4758994Y5734938D01*
X3399993Y256082D02*
G01*
X3399993Y365048D01*
X3399993Y256082D02*
G01*
X3353257Y256082D01*
X3337763Y261162D01*
X3332429Y266496D01*
X3327349Y276910D01*
X3327349Y287324D01*
X3332429Y297738D01*
X3337763Y302818D01*
X3353257Y307898D01*
X3399993Y307898D01*
X3363671Y307898D02*
G01*
X3327349Y365048D01*
X3282645Y256082D02*
G01*
X3225495Y256082D01*
X3256483Y297738D01*
X3240989Y297738D01*
X3230575Y302818D01*
X3225495Y307898D01*
X3220161Y323646D01*
X3220161Y334060D01*
X3225495Y349554D01*
X3235909Y359968D01*
X3251403Y365048D01*
X3266897Y365048D01*
X3282645Y359968D01*
X3287725Y354888D01*
X3293059Y344474D01*
X5504987Y2755320D02*
G01*
X5504987Y2646354D01*
X5504987Y2755320D02*
G01*
X5551723Y2755320D01*
X5567217Y2750240D01*
X5572551Y2744906D01*
X5577631Y2734492D01*
X5577631Y2724078D01*
X5572551Y2713664D01*
X5567217Y2708584D01*
X5551723Y2703504D01*
X5504987Y2703504D01*
X5541309Y2703504D02*
G01*
X5577631Y2646354D01*
X5674405Y2755320D02*
G01*
X5622335Y2755320D01*
X5617255Y2708584D01*
X5622335Y2713664D01*
X5638083Y2718998D01*
X5653577Y2718998D01*
X5669071Y2713664D01*
X5679485Y2703504D01*
X5684819Y2687756D01*
X5684819Y2677342D01*
X5679485Y2661848D01*
X5669071Y2651434D01*
X5653577Y2646354D01*
X5638083Y2646354D01*
X5622335Y2651434D01*
X5617255Y2656514D01*
X5611921Y2666928D01*
X4519996Y3060319D02*
G01*
X4519996Y2951353D01*
X4519996Y3060319D02*
G01*
X4566732Y3060319D01*
X4582226Y3055238D01*
X4587560Y3049904D01*
X4592640Y3039490D01*
X4592640Y3029077D01*
X4587560Y3018662D01*
X4582226Y3013582D01*
X4566732Y3008503D01*
X4519996Y3008503D01*
X4556318Y3008503D02*
G01*
X4592640Y2951353D01*
X4689414Y3044825D02*
G01*
X4684080Y3055238D01*
X4668586Y3060319D01*
X4658172Y3060319D01*
X4642678Y3055238D01*
X4632264Y3039490D01*
X4626930Y3013582D01*
X4626930Y2987675D01*
X4632264Y2966846D01*
X4642678Y2956432D01*
X4658172Y2951353D01*
X4663506Y2951353D01*
X4679000Y2956432D01*
X4689414Y2966846D01*
X4694494Y2982340D01*
X4694494Y2987675D01*
X4689414Y3003169D01*
X4679000Y3013582D01*
X4663506Y3018662D01*
X4658172Y3018662D01*
X4642678Y3013582D01*
X4632264Y3003169D01*
X4626930Y2987675D01*
X6699986Y5705304D02*
G01*
X6699986Y5596338D01*
X6699986Y5705304D02*
G01*
X6746722Y5705304D01*
X6762216Y5700224D01*
X6767550Y5694890D01*
X6772630Y5684476D01*
X6772630Y5674062D01*
X6767550Y5663648D01*
X6762216Y5658568D01*
X6746722Y5653488D01*
X6699986Y5653488D01*
X6736308Y5653488D02*
G01*
X6772630Y5596338D01*
X6806920Y5684476D02*
G01*
X6817334Y5689810D01*
X6833082Y5705304D01*
X6833082Y5596338D01*
X6867372Y5684476D02*
G01*
X6877786Y5689810D01*
X6893280Y5705304D01*
X6893280Y5596338D01*
X7509984Y5735304D02*
G01*
X7509984Y5626338D01*
X7509984Y5735304D02*
G01*
X7556720Y5735304D01*
X7572214Y5730224D01*
X7577548Y5724890D01*
X7582628Y5714476D01*
X7582628Y5704062D01*
X7577548Y5693648D01*
X7572214Y5688568D01*
X7556720Y5683488D01*
X7509984Y5683488D01*
X7546306Y5683488D02*
G01*
X7582628Y5626338D01*
X7616918Y5714476D02*
G01*
X7627332Y5719810D01*
X7643080Y5735304D01*
X7643080Y5626338D01*
X7682450Y5709396D02*
G01*
X7682450Y5714476D01*
X7687784Y5724890D01*
X7692864Y5730224D01*
X7703278Y5735304D01*
X7724106Y5735304D01*
X7734520Y5730224D01*
X7739600Y5724890D01*
X7744934Y5714476D01*
X7744934Y5704062D01*
X7739600Y5693648D01*
X7729186Y5678154D01*
X7677370Y5626338D01*
X7750014Y5626338D01*
X5409989Y3705298D02*
G01*
X5409989Y3627320D01*
X5415069Y3611826D01*
X5425483Y3601412D01*
X5441231Y3596332D01*
X5451645Y3596332D01*
X5467139Y3601412D01*
X5477553Y3611826D01*
X5482633Y3627320D01*
X5482633Y3705298D01*
X5516923Y3684470D02*
G01*
X5527337Y3689804D01*
X5543085Y3705298D01*
X5543085Y3596332D01*
X4119984Y1365310D02*
G01*
X4119984Y1287332D01*
X4125064Y1271838D01*
X4135478Y1261424D01*
X4151226Y1256344D01*
X4161640Y1256344D01*
X4177134Y1261424D01*
X4187548Y1271838D01*
X4192628Y1287332D01*
X4192628Y1365310D01*
X4232252Y1339402D02*
G01*
X4232252Y1344482D01*
X4237332Y1354896D01*
X4242666Y1360230D01*
X4253080Y1365310D01*
X4273654Y1365310D01*
X4284068Y1360230D01*
X4289402Y1354896D01*
X4294482Y1344482D01*
X4294482Y1334068D01*
X4289402Y1323654D01*
X4278988Y1308160D01*
X4226918Y1256344D01*
X4299816Y1256344D01*
X9511385Y4742675D02*
G01*
X9511385Y4820653D01*
X9506305Y4836147D01*
X9495891Y4846561D01*
X9480143Y4851641D01*
X9469729Y4851641D01*
X9454235Y4846561D01*
X9443821Y4836147D01*
X9438741Y4820653D01*
X9438741Y4742675D01*
X9394037Y4742675D02*
G01*
X9336887Y4742675D01*
X9367875Y4784331D01*
X9352381Y4784331D01*
X9341967Y4789411D01*
X9336887Y4794491D01*
X9331553Y4810239D01*
X9331553Y4820653D01*
X9336887Y4836147D01*
X9347301Y4846561D01*
X9362795Y4851641D01*
X9378289Y4851641D01*
X9394037Y4846561D01*
X9399117Y4841481D01*
X9404451Y4831067D01*
X9081465Y4398390D02*
G01*
X9159443Y4398390D01*
X9174937Y4403470D01*
X9185351Y4413885D01*
X9190431Y4429632D01*
X9190431Y4440046D01*
X9185351Y4455540D01*
X9174937Y4465954D01*
X9159443Y4471035D01*
X9081465Y4471035D01*
X9107373Y4510659D02*
G01*
X9102293Y4510659D01*
X9091879Y4515738D01*
X9086545Y4521072D01*
X9081465Y4531487D01*
X9081465Y4552061D01*
X9086545Y4562475D01*
X9091879Y4567809D01*
X9102293Y4572888D01*
X9112707Y4572888D01*
X9123121Y4567809D01*
X9138615Y4557395D01*
X9190431Y4505325D01*
X9190431Y4578222D01*
X9102293Y4612512D02*
G01*
X9096959Y4622927D01*
X9081465Y4638420D01*
X9190431Y4638420D01*
X9081465Y3698392D02*
G01*
X9159443Y3698392D01*
X9174937Y3703472D01*
X9185351Y3713886D01*
X9190431Y3729634D01*
X9190431Y3740048D01*
X9185351Y3755542D01*
X9174937Y3765956D01*
X9159443Y3771036D01*
X9081465Y3771036D01*
X9107373Y3810660D02*
G01*
X9102293Y3810660D01*
X9091879Y3815740D01*
X9086545Y3821074D01*
X9081465Y3831488D01*
X9081465Y3852062D01*
X9086545Y3862476D01*
X9091879Y3867810D01*
X9102293Y3872890D01*
X9112707Y3872890D01*
X9123121Y3867810D01*
X9138615Y3857396D01*
X9190431Y3805326D01*
X9190431Y3878224D01*
X9107373Y3917594D02*
G01*
X9102293Y3917594D01*
X9091879Y3922928D01*
X9086545Y3928008D01*
X9081465Y3938422D01*
X9081465Y3959250D01*
X9086545Y3969664D01*
X9091879Y3974744D01*
X9102293Y3980078D01*
X9112707Y3980078D01*
X9123121Y3974744D01*
X9138615Y3964330D01*
X9190431Y3912514D01*
X9190431Y3985158D01*
X7478268Y1174597D02*
G01*
X7556245Y1174597D01*
X7571740Y1179677D01*
X7582154Y1190091D01*
X7587234Y1205839D01*
X7587234Y1216253D01*
X7582154Y1231747D01*
X7571740Y1242161D01*
X7556245Y1247241D01*
X7478268Y1247241D01*
X7504175Y1286865D02*
G01*
X7499095Y1286865D01*
X7488681Y1291945D01*
X7483347Y1297279D01*
X7478268Y1307693D01*
X7478268Y1328267D01*
X7483347Y1338681D01*
X7488681Y1344015D01*
X7499095Y1349095D01*
X7509509Y1349095D01*
X7519924Y1344015D01*
X7535418Y1333601D01*
X7587234Y1281531D01*
X7587234Y1354429D01*
X7478268Y1399133D02*
G01*
X7478268Y1456283D01*
X7519924Y1425041D01*
X7519924Y1440535D01*
X7525004Y1450949D01*
X7530084Y1456283D01*
X7545831Y1461363D01*
X7556245Y1461363D01*
X7571740Y1456283D01*
X7582154Y1445869D01*
X7587234Y1430121D01*
X7587234Y1414627D01*
X7582154Y1399133D01*
X7577074Y1393799D01*
X7566659Y1388719D01*
X6774586Y1821708D02*
G01*
X6774586Y1743730D01*
X6779666Y1728236D01*
X6790080Y1717822D01*
X6805828Y1712742D01*
X6816242Y1712742D01*
X6831736Y1717822D01*
X6842150Y1728236D01*
X6847230Y1743730D01*
X6847230Y1821708D01*
X6886854Y1795800D02*
G01*
X6886854Y1800880D01*
X6891934Y1811294D01*
X6897268Y1816628D01*
X6907682Y1821708D01*
X6928256Y1821708D01*
X6938670Y1816628D01*
X6944004Y1811294D01*
X6949084Y1800880D01*
X6949084Y1790466D01*
X6944004Y1780052D01*
X6933590Y1764558D01*
X6881520Y1712742D01*
X6954418Y1712742D01*
X7040524Y1821708D02*
G01*
X6988708Y1749064D01*
X7066686Y1749064D01*
X7040524Y1821708D02*
G01*
X7040524Y1712742D01*
X4069991Y3085310D02*
G01*
X4069991Y3007332D01*
X4075071Y2991838D01*
X4085485Y2981424D01*
X4101233Y2976344D01*
X4111647Y2976344D01*
X4127141Y2981424D01*
X4137555Y2991838D01*
X4142635Y3007332D01*
X4142635Y3085310D01*
X4182259Y3059402D02*
G01*
X4182259Y3064482D01*
X4187339Y3074896D01*
X4192673Y3080230D01*
X4203087Y3085310D01*
X4223661Y3085310D01*
X4234075Y3080230D01*
X4239409Y3074896D01*
X4244489Y3064482D01*
X4244489Y3054068D01*
X4239409Y3043654D01*
X4228995Y3028160D01*
X4176925Y2976344D01*
X4249823Y2976344D01*
X4356757Y3085310D02*
G01*
X4304941Y2976344D01*
X4284113Y3085310D02*
G01*
X4356757Y3085310D01*
X6969986Y5805309D02*
G01*
X6969986Y5727331D01*
X6975066Y5711837D01*
X6985480Y5701423D01*
X7001228Y5696343D01*
X7011642Y5696343D01*
X7027136Y5701423D01*
X7037550Y5711837D01*
X7042630Y5727331D01*
X7042630Y5805309D01*
X7082254Y5779401D02*
G01*
X7082254Y5784481D01*
X7087334Y5794895D01*
X7092668Y5800229D01*
X7103082Y5805309D01*
X7123656Y5805309D01*
X7134070Y5800229D01*
X7139404Y5794895D01*
X7144484Y5784481D01*
X7144484Y5774067D01*
X7139404Y5763653D01*
X7128990Y5748159D01*
X7076920Y5696343D01*
X7149818Y5696343D01*
X7251672Y5768987D02*
G01*
X7246338Y5753493D01*
X7235924Y5743079D01*
X7220430Y5737745D01*
X7215096Y5737745D01*
X7199602Y5743079D01*
X7189188Y5753493D01*
X7184108Y5768987D01*
X7184108Y5774067D01*
X7189188Y5789815D01*
X7199602Y5800229D01*
X7215096Y5805309D01*
X7220430Y5805309D01*
X7235924Y5800229D01*
X7246338Y5789815D01*
X7251672Y5768987D01*
X7251672Y5743079D01*
X7246338Y5716917D01*
X7235924Y5701423D01*
X7220430Y5696343D01*
X7210016Y5696343D01*
X7194522Y5701423D01*
X7189188Y5711837D01*
X7110158Y194182D02*
G01*
X7037514Y303148D01*
X7037514Y194182D02*
G01*
X7110158Y303148D01*
X7003224Y215011D02*
G01*
X6992810Y209677D01*
X6977062Y194182D01*
X6977062Y303148D01*
X8699982Y5515305D02*
G01*
X8699982Y5406339D01*
X8699982Y5515305D02*
G01*
X8746718Y5515305D01*
X8762212Y5510225D01*
X8767546Y5504891D01*
X8772626Y5494477D01*
X8772626Y5484063D01*
X8767546Y5473649D01*
X8762212Y5468569D01*
X8746718Y5463489D01*
X8699982Y5463489D01*
X8736304Y5463489D02*
G01*
X8772626Y5406339D01*
X8879814Y5515305D02*
G01*
X8827744Y5406339D01*
X8806916Y5515305D02*
G01*
X8879814Y5515305D01*
X8699982Y5015306D02*
G01*
X8699982Y4906340D01*
X8699982Y5015306D02*
G01*
X8746718Y5015306D01*
X8762212Y5010226D01*
X8767546Y5004892D01*
X8772626Y4994478D01*
X8772626Y4984064D01*
X8767546Y4973650D01*
X8762212Y4968570D01*
X8746718Y4963490D01*
X8699982Y4963490D01*
X8736304Y4963490D02*
G01*
X8772626Y4906340D01*
X8833078Y5015306D02*
G01*
X8817330Y5010226D01*
X8812250Y4999812D01*
X8812250Y4989398D01*
X8817330Y4978984D01*
X8827744Y4973650D01*
X8848572Y4968570D01*
X8864066Y4963490D01*
X8874480Y4953076D01*
X8879814Y4942662D01*
X8879814Y4926914D01*
X8874480Y4916500D01*
X8869400Y4911420D01*
X8853652Y4906340D01*
X8833078Y4906340D01*
X8817330Y4911420D01*
X8812250Y4916500D01*
X8806916Y4926914D01*
X8806916Y4942662D01*
X8812250Y4953076D01*
X8822664Y4963490D01*
X8838158Y4968570D01*
X8858986Y4973650D01*
X8869400Y4978984D01*
X8874480Y4989398D01*
X8874480Y4999812D01*
X8869400Y5010226D01*
X8853652Y5015306D01*
X8833078Y5015306D01*
X6719986Y2200310D02*
G01*
X6792630Y2091344D01*
X6792630Y2200310D02*
G01*
X6719986Y2091344D01*
X6832254Y2174402D02*
G01*
X6832254Y2179482D01*
X6837334Y2189896D01*
X6842668Y2195230D01*
X6853082Y2200310D01*
X6873656Y2200310D01*
X6884070Y2195230D01*
X6889404Y2189896D01*
X6894484Y2179482D01*
X6894484Y2169068D01*
X6889404Y2158654D01*
X6878990Y2143160D01*
X6826920Y2091344D01*
X6899818Y2091344D01*
D11*
X298475Y1019860D02*
G01*
X1328496Y1019860D01*
X299465Y3581194D02*
G01*
X1329486Y3581194D01*
X564489Y3581194D02*
G01*
X564489Y1018796D01*
X305587Y1710537D02*
G01*
X359587Y1710537D01*
X359587Y1863521D01*
X305587Y1863521D01*
X302590Y1228725D02*
G01*
X356590Y1228725D01*
X356590Y1381709D01*
X302590Y1381709D01*
X297510Y3581194D02*
G01*
X297510Y1018794D01*
X1329486Y3581194D02*
G01*
X1329486Y1018796D01*
X1269492Y3581194D02*
G01*
X1269492Y1018796D01*
X1188491Y3581194D02*
G01*
X1188491Y1018796D01*
X305587Y2240787D02*
G01*
X359587Y2240787D01*
X359587Y2393772D01*
X305587Y2393772D01*
X299999Y2719999D02*
G01*
X353999Y2719999D01*
X353999Y2872983D01*
X299999Y2872983D01*
X302996Y3201812D02*
G01*
X356996Y3201812D01*
X356996Y3354796D01*
X302996Y3354796D01*
D10*
X4871620Y1899856D02*
G01*
X4792611Y1899856D01*
X4792611Y1800136D02*
G01*
X4871620Y1800136D01*
X4886860Y1815376D02*
G01*
X4886860Y1884616D01*
X4668359Y1899856D02*
G01*
X4747369Y1899856D01*
X4747369Y1800136D02*
G01*
X4668359Y1800136D01*
X4653119Y1815376D02*
G01*
X4653119Y1884616D01*
X4601621Y1749856D02*
G01*
X4522612Y1749856D01*
X4522612Y1650136D02*
G01*
X4601621Y1650136D01*
X4616861Y1665376D02*
G01*
X4616861Y1734616D01*
X4398360Y1749856D02*
G01*
X4477369Y1749856D01*
X4477369Y1650136D02*
G01*
X4398360Y1650136D01*
X4383120Y1665376D02*
G01*
X4383120Y1734616D01*
X3750132Y2001626D02*
G01*
X3750132Y1922617D01*
X3849852Y1922617D02*
G01*
X3849852Y2001626D01*
X3834612Y2016866D02*
G01*
X3765372Y2016866D01*
X3750132Y1798365D02*
G01*
X3750132Y1877374D01*
X3849852Y1877374D02*
G01*
X3849852Y1798365D01*
X3834612Y1783125D02*
G01*
X3765372Y1783125D01*
X4219851Y1538366D02*
G01*
X4219851Y1617375D01*
X4120131Y1617375D02*
G01*
X4120131Y1538366D01*
X4135371Y1523126D02*
G01*
X4204611Y1523126D01*
X4219851Y1741627D02*
G01*
X4219851Y1662617D01*
X4120131Y1662617D02*
G01*
X4120131Y1741627D01*
X4135371Y1756867D02*
G01*
X4204611Y1756867D01*
X4049852Y1268366D02*
G01*
X4049852Y1347376D01*
X3950131Y1347376D02*
G01*
X3950131Y1268366D01*
X3965371Y1253126D02*
G01*
X4034612Y1253126D01*
X4049852Y1471627D02*
G01*
X4049852Y1392618D01*
X3950131Y1392618D02*
G01*
X3950131Y1471627D01*
X3965371Y1486867D02*
G01*
X4034612Y1486867D01*
X4350131Y3201624D02*
G01*
X4350131Y3122615D01*
X4449851Y3122615D02*
G01*
X4449851Y3201624D01*
X4434611Y3216864D02*
G01*
X4365370Y3216864D01*
X4350131Y2998363D02*
G01*
X4350131Y3077372D01*
X4449851Y3077372D02*
G01*
X4449851Y2998363D01*
X4434611Y2983123D02*
G01*
X4365370Y2983123D01*
D11*
X3890949Y1461978D02*
G01*
X3890949Y1381980D01*
X3890995Y1518023D02*
G01*
X3890995Y1598020D01*
X3748981Y1461978D02*
G01*
X3748981Y1381980D01*
X3749029Y1518023D02*
G01*
X3749029Y1598020D01*
X3859966Y1351005D02*
G01*
X3779961Y1351005D01*
X3780015Y1628998D02*
G01*
X3860017Y1628998D01*
X3971973Y729040D02*
G01*
X3891975Y729040D01*
X4028018Y728995D02*
G01*
X4108015Y728995D01*
X3971973Y871009D02*
G01*
X3891975Y871009D01*
X4028018Y870960D02*
G01*
X4108015Y870960D01*
X3861000Y760023D02*
G01*
X3861000Y840028D01*
X4138993Y839975D02*
G01*
X4138993Y759973D01*
X4629033Y1228016D02*
G01*
X4629033Y1308013D01*
X4628987Y1171971D02*
G01*
X4628987Y1091973D01*
X4771001Y1228016D02*
G01*
X4771001Y1308013D01*
X4770953Y1171971D02*
G01*
X4770953Y1091973D01*
X4660016Y1338988D02*
G01*
X4740020Y1338988D01*
X4739967Y1060996D02*
G01*
X4659965Y1060996D01*
X4528009Y1570954D02*
G01*
X4608007Y1570954D01*
X4471964Y1571000D02*
G01*
X4391967Y1571000D01*
X4528009Y1428986D02*
G01*
X4608007Y1428986D01*
X4471964Y1429034D02*
G01*
X4391967Y1429034D01*
X4638982Y1539971D02*
G01*
X4638982Y1459966D01*
X4360989Y1460019D02*
G01*
X4360989Y1540022D01*
X4828009Y1570954D02*
G01*
X4908006Y1570954D01*
X4771964Y1571000D02*
G01*
X4691966Y1571000D01*
X4828009Y1428986D02*
G01*
X4908006Y1428986D01*
X4771964Y1429034D02*
G01*
X4691966Y1429034D01*
X4938981Y1539971D02*
G01*
X4938981Y1459966D01*
X4660988Y1460019D02*
G01*
X4660988Y1540022D01*
X6521968Y5319031D02*
G01*
X6441970Y5319031D01*
X6578013Y5318986D02*
G01*
X6658010Y5318986D01*
X6521968Y5461000D02*
G01*
X6441970Y5461000D01*
X6578013Y5460951D02*
G01*
X6658010Y5460951D01*
X6410995Y5350014D02*
G01*
X6410995Y5430019D01*
X6688988Y5429966D02*
G01*
X6688988Y5349963D01*
X7329027Y5528007D02*
G01*
X7329027Y5608005D01*
X7328982Y5471962D02*
G01*
X7328982Y5391965D01*
X7470995Y5528007D02*
G01*
X7470995Y5608005D01*
X7470947Y5471962D02*
G01*
X7470947Y5391965D01*
X7360010Y5638980D02*
G01*
X7440015Y5638980D01*
X7439962Y5360987D02*
G01*
X7359959Y5360987D01*
D10*
X4890350Y3018873D02*
G01*
X4890350Y3159874D01*
X4709629Y3159874D02*
G01*
X4709629Y3018873D01*
X4724869Y3003633D02*
G01*
X4875110Y3003633D01*
X4890350Y3381113D02*
G01*
X4890350Y3240112D01*
X4709629Y3240112D02*
G01*
X4709629Y3381113D01*
X4724869Y3396353D02*
G01*
X4875110Y3396353D01*
X8081103Y5190350D02*
G01*
X7940103Y5190350D01*
X7940103Y5009629D02*
G01*
X8081103Y5009629D01*
X8096343Y5024869D02*
G01*
X8096343Y5175110D01*
X7718864Y5190350D02*
G01*
X7859864Y5190350D01*
X7859864Y5009629D02*
G01*
X7718864Y5009629D01*
X7703624Y5024869D02*
G01*
X7703624Y5175110D01*
X8081103Y5390349D02*
G01*
X7940103Y5390349D01*
X7940103Y5209628D02*
G01*
X8081103Y5209628D01*
X8096343Y5224868D02*
G01*
X8096343Y5375109D01*
X7718864Y5390349D02*
G01*
X7859864Y5390349D01*
X7859864Y5209628D02*
G01*
X7718864Y5209628D01*
X7703624Y5224868D02*
G01*
X7703624Y5375109D01*
X8081103Y5590349D02*
G01*
X7940103Y5590349D01*
X7940103Y5409628D02*
G01*
X8081103Y5409628D01*
X8096343Y5424868D02*
G01*
X8096343Y5575109D01*
X7718864Y5590349D02*
G01*
X7859864Y5590349D01*
X7859864Y5409628D02*
G01*
X7718864Y5409628D01*
X7703624Y5424868D02*
G01*
X7703624Y5575109D01*
X5381109Y2790355D02*
G01*
X5240108Y2790355D01*
X5240108Y2609634D02*
G01*
X5381109Y2609634D01*
X5396349Y2624874D02*
G01*
X5396349Y2775115D01*
X5018869Y2790355D02*
G01*
X5159870Y2790355D01*
X5159870Y2609634D02*
G01*
X5018869Y2609634D01*
X5003629Y2624874D02*
G01*
X5003629Y2775115D01*
X5281109Y3890352D02*
G01*
X5140109Y3890352D01*
X5140109Y3709631D02*
G01*
X5281109Y3709631D01*
X5296349Y3724871D02*
G01*
X5296349Y3875112D01*
X4918870Y3890352D02*
G01*
X5059870Y3890352D01*
X5059870Y3709631D02*
G01*
X4918870Y3709631D01*
X4903630Y3724871D02*
G01*
X4903630Y3875112D01*
X6681106Y5290350D02*
G01*
X6540106Y5290350D01*
X6540106Y5109629D02*
G01*
X6681106Y5109629D01*
X6696346Y5124869D02*
G01*
X6696346Y5275110D01*
X6318867Y5290350D02*
G01*
X6459867Y5290350D01*
X6459867Y5109629D02*
G01*
X6318867Y5109629D01*
X6303627Y5124869D02*
G01*
X6303627Y5275110D01*
X6681106Y5090350D02*
G01*
X6540106Y5090350D01*
X6540106Y4909629D02*
G01*
X6681106Y4909629D01*
X6696346Y4924869D02*
G01*
X6696346Y5075110D01*
X6318867Y5090350D02*
G01*
X6459867Y5090350D01*
X6459867Y4909629D02*
G01*
X6318867Y4909629D01*
X6303627Y4924869D02*
G01*
X6303627Y5075110D01*
D11*
X3094037Y2588013D02*
G01*
X3094037Y2668010D01*
X3093991Y2531968D02*
G01*
X3093991Y2451971D01*
X3236005Y2588013D02*
G01*
X3236005Y2668010D01*
X3235957Y2531968D02*
G01*
X3235957Y2451971D01*
X3125020Y2698986D02*
G01*
X3205025Y2698986D01*
X3204972Y2420993D02*
G01*
X3124969Y2420993D01*
X3370950Y4071973D02*
G01*
X3370950Y3991975D01*
X3370996Y4128018D02*
G01*
X3370996Y4208015D01*
X3228982Y4071973D02*
G01*
X3228982Y3991975D01*
X3229030Y4128018D02*
G01*
X3229030Y4208015D01*
X3339967Y3961000D02*
G01*
X3259963Y3961000D01*
X3260016Y4238993D02*
G01*
X3340018Y4238993D01*
X4571972Y5029032D02*
G01*
X4491974Y5029032D01*
X4628017Y5028986D02*
G01*
X4708014Y5028986D01*
X4571972Y5171000D02*
G01*
X4491974Y5171000D01*
X4628017Y5170952D02*
G01*
X4708014Y5170952D01*
X4460999Y5060015D02*
G01*
X4460999Y5140020D01*
X4738992Y5139966D02*
G01*
X4738992Y5059964D01*
X6869973Y3730355D02*
G01*
X6926539Y3673787D01*
X6830374Y3770017D02*
G01*
X6773809Y3826583D01*
X6769587Y3629967D02*
G01*
X6826153Y3573401D01*
X6729991Y3669631D02*
G01*
X6673423Y3726197D01*
X6926534Y3629977D02*
G01*
X6869963Y3573404D01*
X6673428Y3770012D02*
G01*
X6729999Y3826583D01*
X6728005Y2770952D02*
G01*
X6808002Y2770952D01*
X6671960Y2770997D02*
G01*
X6591962Y2770997D01*
X6728005Y2628983D02*
G01*
X6808002Y2628983D01*
X6671960Y2629032D02*
G01*
X6591962Y2629032D01*
X6838977Y2739969D02*
G01*
X6838977Y2659964D01*
X6560985Y2660017D02*
G01*
X6560985Y2740019D01*
X5929030Y4228010D02*
G01*
X5929030Y4308007D01*
X5928984Y4171965D02*
G01*
X5928984Y4091967D01*
X6070998Y4228010D02*
G01*
X6070998Y4308007D01*
X6070950Y4171965D02*
G01*
X6070950Y4091967D01*
X5960013Y4338982D02*
G01*
X6040018Y4338982D01*
X6039965Y4060990D02*
G01*
X5959962Y4060990D01*
X5329031Y4028010D02*
G01*
X5329031Y4108008D01*
X5328986Y3971965D02*
G01*
X5328986Y3891968D01*
X5470999Y4028010D02*
G01*
X5470999Y4108008D01*
X5470951Y3971965D02*
G01*
X5470951Y3891968D01*
X5360014Y4138983D02*
G01*
X5440019Y4138983D01*
X5439966Y3860990D02*
G01*
X5359963Y3860990D01*
D10*
X7098355Y5150129D02*
G01*
X7177364Y5150129D01*
X7177364Y5249849D02*
G01*
X7098355Y5249849D01*
X7083115Y5234609D02*
G01*
X7083115Y5165369D01*
X7301616Y5150129D02*
G01*
X7222606Y5150129D01*
X7222606Y5249849D02*
G01*
X7301616Y5249849D01*
X7316856Y5234609D02*
G01*
X7316856Y5165369D01*
D11*
X9679990Y3299993D02*
G01*
X9679990Y1899996D01*
X9229979Y1899996D01*
X9229979Y3299993D01*
X9679990Y3299993D01*
X9679990Y1699996D02*
G01*
X9679990Y899998D01*
X9229979Y899998D01*
X9229979Y1699996D01*
X9679990Y1699996D01*
D12*
X6892985Y5910988D02*
G01*
X6892985Y5890369D01*
X7308230Y5890369D01*
X7307986Y5909988D01*
X7306985Y6289987D02*
G01*
X7306995Y6309537D01*
X6891705Y6309537D01*
X6891985Y6287988D01*
X3788991Y892997D02*
G01*
X3809611Y892997D01*
X3809611Y1308242D01*
X3789992Y1307998D01*
X3409993Y1306997D02*
G01*
X3390442Y1307007D01*
X3390442Y891717D01*
X3411992Y891997D01*
D13*
X3065492Y3248022D02*
G01*
X3036105Y3248022D01*
X2767479Y2918020D02*
G01*
X2735493Y2918020D01*
X2735493Y3248022D01*
X2764878Y3248022D01*
X3065492Y3248022D02*
G01*
X3065492Y2918020D01*
X3033504Y2918020D01*
X3065492Y2748023D02*
G01*
X3036105Y2748023D01*
X2767479Y2418021D02*
G01*
X2735493Y2418021D01*
X2735493Y2748023D01*
X2764878Y2748023D01*
X3065492Y2748023D02*
G01*
X3065492Y2418021D01*
X3033504Y2418021D01*
X2951965Y4765489D02*
G01*
X2951965Y4736101D01*
X3281967Y4467476D02*
G01*
X3281967Y4435490D01*
X2951965Y4435490D01*
X2951965Y4464875D01*
X2951965Y4765489D02*
G01*
X3281967Y4765489D01*
X3281967Y4733500D01*
X3451964Y4765489D02*
G01*
X3451964Y4736101D01*
X3781966Y4467476D02*
G01*
X3781966Y4435490D01*
X3451964Y4435490D01*
X3451964Y4464875D01*
X3451964Y4765489D02*
G01*
X3781966Y4765489D01*
X3781966Y4733500D01*
X3451964Y5665487D02*
G01*
X3451964Y5636099D01*
X3781966Y5367474D02*
G01*
X3781966Y5335488D01*
X3451964Y5335488D01*
X3451964Y5364873D01*
X3451964Y5665487D02*
G01*
X3781966Y5665487D01*
X3781966Y5633499D01*
X2951965Y5665487D02*
G01*
X2951965Y5636099D01*
X3281967Y5367474D02*
G01*
X3281967Y5335488D01*
X2951965Y5335488D01*
X2951965Y5364873D01*
X2951965Y5665487D02*
G01*
X3281967Y5665487D01*
X3281967Y5633499D01*
D10*
X3204334Y1469877D02*
G01*
X3204334Y1326382D01*
X3595651Y1326382D01*
X3595651Y1469877D01*
X3204334Y1970115D02*
G01*
X3204334Y2113610D01*
X3595651Y2113610D01*
X3595651Y1970115D01*
X3095652Y3950111D02*
G01*
X3095652Y4093606D01*
X2704335Y4093606D01*
X2704335Y3950111D01*
X3095652Y3449873D02*
G01*
X3095652Y3306378D01*
X2704335Y3306378D01*
X2704335Y3449873D01*
X4850109Y5304330D02*
G01*
X4993604Y5304330D01*
X4993604Y5695647D01*
X4850109Y5695647D01*
X4349871Y5304330D02*
G01*
X4206377Y5304330D01*
X4206377Y5695647D01*
X4349871Y5695647D01*
X3149874Y795657D02*
G01*
X3006379Y795657D01*
X3006379Y404340D01*
X3149874Y404340D01*
X3650112Y795657D02*
G01*
X3793606Y795657D01*
X3793606Y404340D01*
X3650112Y404340D01*
D14*
X5588601Y2842696D02*
G01*
X5608401Y2862493D01*
X5639513Y2831378D01*
X5642340Y2828549D01*
X5622543Y2808752D01*
X5611230Y2797436D02*
G01*
X5591431Y2777639D01*
X5560319Y2808752D01*
X5557489Y2811581D01*
X5577288Y2831378D01*
X4455886Y3017994D02*
G01*
X4455888Y3045993D01*
X4499889Y3045993D01*
X4503889Y3045990D01*
X4503889Y3017992D01*
X4503889Y3001992D02*
G01*
X4503889Y2973994D01*
X4459889Y2973994D01*
X4455888Y2973994D01*
X4455888Y3001992D01*
D10*
X6760926Y5483369D02*
G01*
X6760926Y5437817D01*
X6839046Y5437817D01*
X6839046Y5483369D01*
X6760926Y5516608D02*
G01*
X6760926Y5562160D01*
X6839046Y5562160D01*
X6839046Y5516608D01*
X7560924Y5483369D02*
G01*
X7560924Y5437817D01*
X7639044Y5437817D01*
X7639044Y5483369D01*
X7560924Y5516608D02*
G01*
X7560924Y5562160D01*
X7639044Y5562160D01*
X7639044Y5516608D01*
X5353651Y3178446D02*
G01*
X5282105Y3249993D01*
X5353651Y3321540D01*
X6071534Y3896329D02*
G01*
X5999988Y3967876D01*
X5928441Y3896329D01*
X6646324Y3321540D02*
G01*
X6717870Y3249993D01*
X6646324Y3178446D01*
X5928441Y2603657D02*
G01*
X5999988Y2532110D01*
X6071534Y2603657D01*
X4067370Y1232618D02*
G01*
X4332612Y1232618D01*
X4332612Y967376D02*
G01*
X4067370Y967376D01*
D11*
X9194180Y5041988D02*
G01*
X9052981Y5041988D01*
X9674189Y5041988D02*
G01*
X9325772Y5041988D01*
X9805781Y5357990D02*
G01*
X9946980Y5357990D01*
X9946980Y5041988D01*
X9805781Y5041988D01*
X9325772Y5357990D02*
G01*
X9674189Y5357990D01*
X9052981Y5041988D02*
G01*
X9052981Y5357990D01*
X9194180Y5357990D01*
X9407982Y4603104D02*
G01*
X9407982Y4644991D01*
X9246981Y4644991D01*
X9246981Y4694991D01*
X10006980Y4694991D01*
X10006980Y4106992D01*
X10005979Y4105991D01*
X10006980Y4104993D02*
G01*
X9246981Y4104993D01*
X9246981Y4154992D01*
X9407982Y4154992D01*
X9407982Y4197189D01*
X9407982Y3903106D02*
G01*
X9407982Y3944993D01*
X9246981Y3944993D01*
X9246981Y3994993D01*
X10006980Y3994993D01*
X10006980Y3406993D01*
X10005979Y3405992D01*
X10006980Y3404994D02*
G01*
X9246981Y3404994D01*
X9246981Y3454994D01*
X9407982Y3454994D01*
X9407982Y3497191D01*
D10*
X8152124Y947376D02*
G01*
X7847843Y947376D01*
X7847843Y1452618D01*
X8152124Y1452618D01*
X8152124Y947376D01*
X6359865Y1147853D02*
G01*
X6359865Y1452135D01*
X7240107Y1452135D01*
X7240107Y1147853D01*
X6359865Y1147853D01*
X3891940Y2042375D02*
G01*
X3842372Y2042375D01*
X3842372Y2091944D01*
X3891940Y2757614D02*
G01*
X3842372Y2757614D01*
X3842372Y2708046D01*
X4508042Y2042375D02*
G01*
X4557610Y2042375D01*
X4557610Y2091944D01*
X4508042Y2757614D02*
G01*
X4557610Y2757614D01*
X4557610Y2708046D01*
X4517130Y2082855D02*
G01*
X3882852Y2082855D01*
X3882852Y2717134D01*
X4517130Y2717134D01*
X4517130Y2082855D01*
D11*
X7014370Y5644304D02*
G01*
X6949983Y5644304D01*
X6949983Y5381604D02*
G01*
X6989366Y5381604D01*
X7210592Y5381604D02*
G01*
X7249982Y5381604D01*
X7249982Y5381604D02*
G01*
X7249982Y5398482D01*
X7249982Y5632416D02*
G01*
X7249982Y5644304D01*
X7249982Y5644304D02*
G01*
X7185596Y5644304D01*
X6949983Y5644304D02*
G01*
X6949983Y5632416D01*
X6949983Y5398482D02*
G01*
X6949983Y5381604D01*
X7329995Y389996D02*
G01*
X7329995Y609998D01*
X6869998Y389996D02*
G01*
X6869998Y609998D01*
X7329995Y389996D02*
G01*
X7313117Y389996D01*
X7186879Y389996D02*
G01*
X7163117Y389996D01*
X7036879Y389996D02*
G01*
X7013117Y389996D01*
X6886879Y389996D02*
G01*
X6869998Y389996D01*
X7329995Y609998D02*
G01*
X7313117Y609998D01*
X7186879Y609998D02*
G01*
X7163117Y609998D01*
X7036879Y609998D02*
G01*
X7013117Y609998D01*
X6886879Y609998D02*
G01*
X6869998Y609998D01*
D10*
X8842603Y5233929D02*
G01*
X8938491Y5233929D01*
X8938491Y5366049D01*
X8842603Y5366049D01*
X8757361Y5233929D02*
G01*
X8661473Y5233929D01*
X8661473Y5366049D01*
X8757361Y5366049D01*
X8842603Y5033929D02*
G01*
X8938491Y5033929D01*
X8938491Y5166050D01*
X8842603Y5166050D01*
X8757361Y5033929D02*
G01*
X8661473Y5033929D01*
X8661473Y5166050D01*
X8757361Y5166050D01*
D13*
X7002932Y2227864D02*
G01*
X7002932Y2567863D01*
X6592933Y2567863D01*
X6592933Y2227864D01*
X7002932Y2227864D01*
X7028586Y2539682D02*
G01*
X7028586Y2590482D01*
X6977786Y2590482D01*
D10*
G75*
G01*
X4871621Y1800136D02*
G03*
X4886861Y1815376I0J15240D01*
G75*
G01*
X4886861Y1884617D02*
G03*
X4871621Y1899857I-15240J0D01*
G75*
G01*
X4668360Y1800136D02*
G02*
X4653120Y1815376I0J15240D01*
G75*
G01*
X4653120Y1884617D02*
G02*
X4668360Y1899857I15240J0D01*
G75*
G01*
X4601621Y1650136D02*
G03*
X4616861Y1665376I0J15240D01*
G75*
G01*
X4616861Y1734617D02*
G03*
X4601621Y1749857I-15240J0D01*
G75*
G01*
X4398361Y1650136D02*
G02*
X4383121Y1665376I0J15240D01*
G75*
G01*
X4383121Y1734617D02*
G02*
X4398361Y1749857I15240J0D01*
G75*
G01*
X3849853Y2001627D02*
G03*
X3834613Y2016867I-15240J0D01*
G75*
G01*
X3765372Y2016867D02*
G03*
X3750132Y2001627I0J-15240D01*
G75*
G01*
X3849853Y1798366D02*
G02*
X3834613Y1783126I-15240J0D01*
G75*
G01*
X3765372Y1783126D02*
G02*
X3750132Y1798366I0J15240D01*
G75*
G01*
X4120131Y1538366D02*
G03*
X4135371Y1523126I15240J0D01*
G75*
G01*
X4204612Y1523126D02*
G03*
X4219852Y1538366I0J15240D01*
G75*
G01*
X4120131Y1741627D02*
G02*
X4135371Y1756867I15240J0D01*
G75*
G01*
X4204612Y1756867D02*
G02*
X4219852Y1741627I0J-15240D01*
G75*
G01*
X3950132Y1268367D02*
G03*
X3965372Y1253127I15240J0D01*
G75*
G01*
X4034612Y1253127D02*
G03*
X4049852Y1268367I0J15240D01*
G75*
G01*
X3950132Y1471628D02*
G02*
X3965372Y1486868I15240J0D01*
G75*
G01*
X4034612Y1486868D02*
G02*
X4049852Y1471628I0J-15240D01*
G75*
G01*
X4449851Y3201624D02*
G03*
X4434611Y3216864I-15240J0D01*
G75*
G01*
X4365371Y3216864D02*
G03*
X4350131Y3201624I0J-15240D01*
G75*
G01*
X4449851Y2998363D02*
G02*
X4434611Y2983123I-15240J0D01*
G75*
G01*
X4365371Y2983123D02*
G02*
X4350131Y2998363I0J15240D01*
D11*
G75*
G01*
X3749030Y1598016D02*
G02*
X3780015Y1628999I30983J0D01*
G75*
G01*
X3860013Y1628999D02*
G02*
X3890996Y1598016I0J-30983D01*
G75*
G01*
X3890950Y1381986D02*
G02*
X3859967Y1351006I-30983J3D01*
G75*
G01*
X3779970Y1351006D02*
G02*
X3748982Y1381986I-6J30983D01*
G75*
G01*
X4108011Y870961D02*
G02*
X4138994Y839975I0J-30983D01*
G75*
G01*
X4138994Y759978D02*
G02*
X4108011Y728995I-30983J0D01*
G75*
G01*
X3891981Y729041D02*
G02*
X3861001Y760024I3J30983D01*
G75*
G01*
X3861001Y840021D02*
G02*
X3891981Y871009I30983J5D01*
G75*
G01*
X4770953Y1091979D02*
G02*
X4739968Y1060996I-30983J0D01*
G75*
G01*
X4659970Y1060996D02*
G02*
X4628987Y1091979I0J30983D01*
G75*
G01*
X4629033Y1308009D02*
G02*
X4660016Y1338989I30983J-3D01*
G75*
G01*
X4740013Y1338989D02*
G02*
X4771001Y1308009I5J-30983D01*
G75*
G01*
X4391972Y1429034D02*
G02*
X4360990Y1460020I0J30983D01*
G75*
G01*
X4360990Y1540017D02*
G02*
X4391972Y1571000I30982J0D01*
G75*
G01*
X4608002Y1570954D02*
G02*
X4638982Y1539972I-3J-30982D01*
G75*
G01*
X4638982Y1459974D02*
G02*
X4608002Y1428986I-30983J-5D01*
G75*
G01*
X4691972Y1429034D02*
G02*
X4660989Y1460020I0J30983D01*
G75*
G01*
X4660989Y1540017D02*
G02*
X4691972Y1571000I30983J0D01*
G75*
G01*
X4908001Y1570954D02*
G02*
X4938982Y1539972I-2J-30982D01*
G75*
G01*
X4938982Y1459974D02*
G02*
X4908001Y1428986I-30983J-5D01*
G75*
G01*
X6658005Y5460952D02*
G02*
X6688988Y5429966I0J-30983D01*
G75*
G01*
X6688988Y5349969D02*
G02*
X6658005Y5318986I-30983J0D01*
G75*
G01*
X6441976Y5319032D02*
G02*
X6410996Y5350015I2J30983D01*
G75*
G01*
X6410996Y5430012D02*
G02*
X6441976Y5461000I30982J5D01*
G75*
G01*
X7470948Y5391970D02*
G02*
X7439962Y5360988I-30983J0D01*
G75*
G01*
X7359965Y5360988D02*
G02*
X7328982Y5391970I0J30982D01*
G75*
G01*
X7329028Y5608000D02*
G02*
X7360011Y5638980I30983J-3D01*
G75*
G01*
X7440008Y5638980D02*
G02*
X7470996Y5608000I5J-30983D01*
D10*
G75*
G01*
X4709630Y3018874D02*
G03*
X4724870Y3003634I15240J0D01*
G75*
G01*
X4875111Y3003634D02*
G03*
X4890351Y3018874I0J15240D01*
G75*
G01*
X4709630Y3381113D02*
G02*
X4724870Y3396353I15240J0D01*
G75*
G01*
X4875111Y3396353D02*
G02*
X4890351Y3381113I0J-15240D01*
G75*
G01*
X8081104Y5009629D02*
G03*
X8096344Y5024869I0J15240D01*
G75*
G01*
X8096344Y5175110D02*
G03*
X8081104Y5190350I-15240J0D01*
G75*
G01*
X7718864Y5009629D02*
G02*
X7703624Y5024869I0J15240D01*
G75*
G01*
X7703624Y5175110D02*
G02*
X7718864Y5190350I15240J0D01*
G75*
G01*
X8081104Y5209629D02*
G03*
X8096344Y5224869I0J15240D01*
G75*
G01*
X8096344Y5375110D02*
G03*
X8081104Y5390350I-15240J0D01*
G75*
G01*
X7718864Y5209629D02*
G02*
X7703624Y5224869I0J15240D01*
G75*
G01*
X7703624Y5375110D02*
G02*
X7718864Y5390350I15240J0D01*
G75*
G01*
X8081104Y5409628D02*
G03*
X8096344Y5424868I0J15241D01*
G75*
G01*
X8096344Y5575109D02*
G03*
X8081104Y5590350I-15240J1D01*
G75*
G01*
X7718864Y5409628D02*
G02*
X7703624Y5424868I0J15241D01*
G75*
G01*
X7703624Y5575109D02*
G02*
X7718864Y5590350I15240J1D01*
G75*
G01*
X5381109Y2609634D02*
G03*
X5396349Y2624874I0J15240D01*
G75*
G01*
X5396349Y2775115D02*
G03*
X5381109Y2790355I-15240J0D01*
G75*
G01*
X5018870Y2609634D02*
G02*
X5003630Y2624874I0J15240D01*
G75*
G01*
X5003630Y2775115D02*
G02*
X5018870Y2790355I15240J0D01*
G75*
G01*
X5281110Y3709632D02*
G03*
X5296350Y3724872I0J15240D01*
G75*
G01*
X5296350Y3875113D02*
G03*
X5281110Y3890353I-15240J0D01*
G75*
G01*
X4918870Y3709632D02*
G02*
X4903630Y3724872I0J15240D01*
G75*
G01*
X4903630Y3875113D02*
G02*
X4918870Y3890353I15240J0D01*
G75*
G01*
X6681107Y5109629D02*
G03*
X6696347Y5124869I0J15240D01*
G75*
G01*
X6696347Y5275110D02*
G03*
X6681107Y5290350I-15240J0D01*
G75*
G01*
X6318867Y5109629D02*
G02*
X6303627Y5124869I0J15240D01*
G75*
G01*
X6303627Y5275110D02*
G02*
X6318867Y5290350I15240J0D01*
G75*
G01*
X6681107Y4909630D02*
G03*
X6696347Y4924869I0J15239D01*
G75*
G01*
X6696347Y5075110D02*
G03*
X6681107Y5090350I-15240J0D01*
G75*
G01*
X6318867Y4909630D02*
G02*
X6303627Y4924869I0J15239D01*
G75*
G01*
X6303627Y5075110D02*
G02*
X6318867Y5090350I15240J0D01*
D11*
G75*
G01*
X3235957Y2451976D02*
G02*
X3204972Y2420993I-30982J0D01*
G75*
G01*
X3124975Y2420993D02*
G02*
X3093992Y2451976I0J30983D01*
G75*
G01*
X3094038Y2668006D02*
G02*
X3125020Y2698986I30982J-3D01*
G75*
G01*
X3205018Y2698986D02*
G02*
X3236006Y2668006I5J-30983D01*
G75*
G01*
X3229031Y4208010D02*
G02*
X3260016Y4238993I30983J0D01*
G75*
G01*
X3340014Y4238993D02*
G02*
X3370997Y4208010I0J-30983D01*
G75*
G01*
X3370951Y3991981D02*
G02*
X3339968Y3961000I-30983J2D01*
G75*
G01*
X3259971Y3961000D02*
G02*
X3228983Y3991981I-5J30983D01*
G75*
G01*
X4708009Y5170952D02*
G02*
X4738992Y5139967I0J-30983D01*
G75*
G01*
X4738992Y5059970D02*
G02*
X4708009Y5028987I-30983J0D01*
G75*
G01*
X4491980Y5029032D02*
G02*
X4460999Y5060015I2J30983D01*
G75*
G01*
X4460999Y5140013D02*
G02*
X4491980Y5171001I30983J5D01*
G75*
G01*
X6673428Y3726195D02*
G02*
X6673428Y3770013I21908J21909D01*
G75*
G01*
X6729997Y3826581D02*
G02*
X6773812Y3826581I21907J-21909D01*
G75*
G01*
X6926537Y3673792D02*
G02*
X6926534Y3629977I-21910J-21906D01*
G75*
G01*
X6869968Y3573412D02*
G02*
X6826148Y3573404I-21913J21902D01*
G75*
G01*
X6591968Y2629032D02*
G02*
X6560985Y2660018I0J30983D01*
G75*
G01*
X6560985Y2740015D02*
G02*
X6591968Y2770998I30983J0D01*
G75*
G01*
X6807998Y2770952D02*
G02*
X6838978Y2739969I-3J-30983D01*
G75*
G01*
X6838978Y2659972D02*
G02*
X6807998Y2628984I-30983J-5D01*
G75*
G01*
X6070951Y4091973D02*
G02*
X6039965Y4060990I-30983J0D01*
G75*
G01*
X5959968Y4060990D02*
G02*
X5928985Y4091973I0J30983D01*
G75*
G01*
X5929031Y4308003D02*
G02*
X5960013Y4338983I30982J-3D01*
G75*
G01*
X6040011Y4338983D02*
G02*
X6070999Y4308003I5J-30983D01*
G75*
G01*
X5470952Y3891973D02*
G02*
X5439966Y3860991I-30983J0D01*
G75*
G01*
X5359969Y3860991D02*
G02*
X5328986Y3891973I0J30982D01*
G75*
G01*
X5329032Y4108003D02*
G02*
X5360015Y4138983I30983J-3D01*
G75*
G01*
X5440012Y4138983D02*
G02*
X5471000Y4108003I5J-30983D01*
D10*
G75*
G01*
X7098355Y5249850D02*
G03*
X7083115Y5234610I0J-15240D01*
G75*
G01*
X7083115Y5165369D02*
G03*
X7098355Y5150129I15240J0D01*
G75*
G01*
X7301616Y5249850D02*
G02*
X7316856Y5234610I0J-15240D01*
G75*
G01*
X7316856Y5165369D02*
G02*
X7301616Y5150129I-15240J0D01*
D11*
G75*
G01
X9334297Y1971396D02*
G03X9334297Y1971396I-35916J0D01*
G75*
G01
X9334297Y971372D02*
G03X9334297Y971372I-35916J0D01*
D15*
G75*
G01
X2758491Y2882011D02*
G03X2758491Y2882011I-10008J0D01*
G75*
G01
X2758491Y2382012D02*
G03X2758491Y2382012I-10008J0D01*
G75*
G01
X3327984Y4448480D02*
G03X3327984Y4448480I-10008J0D01*
G75*
G01
X3827983Y4448480D02*
G03X3827983Y4448480I-10008J0D01*
G75*
G01
X3827983Y5348478D02*
G03X3827983Y5348478I-10008J0D01*
G75*
G01
X3327984Y5348478D02*
G03X3327984Y5348478I-10008J0D01*
D16*
G75*
G01
X5346243Y3118637D02*
G03X5346243Y3118637I-15011J0D01*
D15*
G75*
G01
X4031005Y1199998D02*
G03X4031005Y1199998I-10008J0D01*
D16*
G75*
G01
X8091907Y1009498D02*
G03X8091907Y1009498I-15011J0D01*
G75*
G01
X8292236Y934847D02*
G03X8292236Y934847I-15011J0D01*
G75*
G01
X6433998Y1223086D02*
G03X6433998Y1223086I-15011J0D01*
G75*
G01
X6360058Y1023087D02*
G03X6360058Y1023087I-15011J0D01*
D15*
G75*
G01
X4616399Y2069795D02*
G03X4616399Y2069795I-10008J0D01*
G75*
G01
X7030999Y5336616D02*
G03X7030999Y5336616I-10008J0D01*
M02*
