M48
METRIC,LZ,000.000
;FILE_FORMAT=3:3
;TYPE=PLATED
;Layer: PTH_Through
;EasyEDA v6.5.50, 2025-06-24 16:33:47
;5496cec8b1eb4744bb4034f485f85566,07aaf3ec58ed4e568cacc845e37e2e79,10
;Gerber Generator version 0.2
;Holesize 1 = 0.310 mm
T01C0.310
;Holesize 2 = 1.000 mm
T02C1.000
;Holesize 3 = 1.021 mm
T03C1.021
;Holesize 4 = 1.101 mm
T04C1.101
;Holesize 5 = 1.200 mm
T05C1.200
%
G05
G90
T01
X047769Y022540
X047769Y021270
X047769Y020000
X047769Y018730
X030228Y019365
X047769Y023810
X030228Y021905
X042231Y023810
X042231Y022540
X030228Y018095
T02
X062000Y021270
X062000Y018730
X013730Y036000
X016270Y036000
T03
X026797Y006000
X024257Y006000
X021717Y006000
T04
X055000Y016190
X055000Y018730
X055000Y021270
X055000Y023810
X008890Y006000
X011430Y006000
X013970Y006000
X016510Y006000
T05
X001370Y011110
X003910Y011110
X006450Y011110
X008990Y011110
X011530Y011110
X014070Y011110
X016610Y011110
X019150Y011110
X021690Y011110
X024230Y011110
X026770Y011110
X029310Y011110
X031850Y011110
X034390Y011110
X036930Y011110
X039470Y011110
X042010Y011110
X044550Y011110
X047090Y011110
X049630Y011110
X001370Y028890
X003910Y028890
X006450Y028890
X008990Y028890
X011530Y028890
X014070Y028890
X016610Y028890
X019150Y028890
X021690Y028890
X024230Y028890
X026770Y028890
X029310Y028890
X031850Y028890
X034390Y028890
X036930Y028890
X039470Y028890
X042010Y028890
X044550Y028890
X047090Y028890
X049630Y028890
M30
