G04 Layer: BottomLayer*
G04 EasyEDA v6.5.50, 2025-06-24 16:33:47*
G04 5496cec8b1eb4744bb4034f485f85566,07aaf3ec58ed4e568cacc845e37e2e79,10*
G04 Gerber Generator version 0.2*
G04 Scale: 100 percent, Rotated: No, Reflected: No *
G04 Dimensions in millimeters *
G04 leading zeros omitted , absolute positions ,4 integer and 5 decimal *
%FSLAX45Y45*%
%MOMM*%

%ADD10C,0.2540*%
%ADD11C,1.7000*%
%ADD12R,1.7000X1.7000*%
%ADD13R,1.8000X1.8000*%
%ADD14C,1.8000*%
%ADD15C,1.5748*%
%ADD16R,1.5748X1.5748*%
%ADD17C,0.6200*%
%ADD18C,0.0116*%

%LPD*%
D10*
X3022854Y1809495D02*
G01*
X3022600Y1701800D01*
X3124454Y1599945D01*
X3700018Y1599945D01*
X3899915Y1800097D01*
X3899915Y2100071D01*
X4054093Y2253995D01*
X4223004Y2253995D01*
X3022854Y2190495D02*
G01*
X3022600Y2260600D01*
X3142995Y2380995D01*
X4223004Y2380995D01*
X4776896Y2380995D02*
G01*
X4557897Y2599994D01*
X2968294Y2599994D01*
X2298694Y1930394D01*
X2298694Y1930394D02*
G01*
X2298694Y726998D01*
X2425694Y599998D01*
X2298694Y1930394D02*
G01*
X1729094Y2499995D01*
X779993Y2499995D01*
X390994Y2888993D01*
X4776896Y1872995D02*
G01*
X4782995Y1866897D01*
X5206989Y1866897D01*
X5454891Y1618995D01*
X5499988Y1618995D01*
X4776896Y1999995D02*
G01*
X5199989Y1999995D01*
X5326989Y1872995D01*
X5499988Y1872995D01*
X4776896Y2253995D02*
G01*
X4783495Y2260594D01*
X5295889Y2260594D01*
X5416290Y2380995D01*
X5499988Y2380995D01*
X4776896Y2126995D02*
G01*
X5499988Y2126995D01*
X2298694Y1930394D02*
G01*
X2304795Y1936495D01*
X3022752Y1936495D01*
D11*
G01*
X6199987Y2126995D03*
G01*
X6199987Y1872995D03*
G01*
X1372996Y3599995D03*
G01*
X1626996Y3599995D03*
D12*
G01*
X5499988Y1618995D03*
D11*
G01*
X5499988Y1872995D03*
G01*
X5499988Y2126995D03*
G01*
X5499988Y2380995D03*
D12*
G01*
X888997Y599998D03*
D11*
G01*
X1142997Y599998D03*
G01*
X1396997Y599998D03*
G01*
X1650997Y599998D03*
D13*
G01*
X136994Y1110998D03*
D14*
G01*
X390994Y1110998D03*
G01*
X644994Y1110998D03*
G01*
X898994Y1110998D03*
G01*
X1152994Y1110998D03*
G01*
X1406994Y1110998D03*
G01*
X1660994Y1110998D03*
G01*
X1914994Y1110998D03*
G01*
X2168994Y1110998D03*
G01*
X2422994Y1110998D03*
G01*
X2676994Y1110998D03*
G01*
X2930994Y1110998D03*
G01*
X3184994Y1110998D03*
G01*
X3438994Y1110998D03*
G01*
X3692994Y1110998D03*
G01*
X3946994Y1110998D03*
G01*
X4200994Y1110998D03*
G01*
X4454994Y1110998D03*
G01*
X4708994Y1110998D03*
G01*
X4962994Y1110998D03*
D13*
G01*
X136994Y2888993D03*
D14*
G01*
X390994Y2888993D03*
G01*
X644994Y2888993D03*
G01*
X898994Y2888993D03*
G01*
X1152994Y2888993D03*
G01*
X1406994Y2888993D03*
G01*
X1660994Y2888993D03*
G01*
X1914994Y2888993D03*
G01*
X2168994Y2888993D03*
G01*
X2422994Y2888993D03*
G01*
X2676994Y2888993D03*
G01*
X2930994Y2888993D03*
G01*
X3184994Y2888993D03*
G01*
X3438994Y2888993D03*
G01*
X3692994Y2888993D03*
G01*
X3946994Y2888993D03*
G01*
X4200994Y2888993D03*
G01*
X4454994Y2888993D03*
G01*
X4708994Y2888993D03*
G01*
X4962994Y2888993D03*
D15*
G01*
X2679694Y599998D03*
G01*
X2425694Y599998D03*
D16*
G01*
X2171694Y599998D03*
D17*
G01*
X4776896Y2253995D03*
G01*
X4776896Y2126995D03*
G01*
X4776896Y1999995D03*
G01*
X4776896Y1872995D03*
G01*
X3022752Y1936495D03*
G01*
X4776896Y2380995D03*
G01*
X3022752Y2190495D03*
G01*
X4223075Y2380995D03*
G01*
X4223075Y2253995D03*
G01*
X3022752Y1809495D03*
M02*
